SplineFontDB: 3.0
FontName: Jost-Semi
FullName: Jost* 600 Semi
FamilyName: Jost*
Weight: Semi
Copyright: Copyright (c) 2018, Owen Earl,,,
UComments: "2018-6-8: Created with FontForge (http://fontforge.org)"
Version: 003.200
ItalicAngle: 0
UnderlinePosition: -100
UnderlineWidth: 50
Ascent: 800
Descent: 200
InvalidEm: 0
LayerCount: 2
Layer: 0 0 "Back" 1
Layer: 1 0 "Fore" 0
XUID: [1021 69 1495626776 9435324]
FSType: 0
OS2Version: 0
OS2_WeightWidthSlopeOnly: 0
OS2_UseTypoMetrics: 0
CreationTime: 1528479894
ModificationTime: 1533316905
PfmFamily: 17
TTFWeight: 600
TTFWidth: 5
LineGap: 100
VLineGap: 0
OS2TypoAscent: 825
OS2TypoAOffset: 0
OS2TypoDescent: -225
OS2TypoDOffset: 0
OS2TypoLinegap: 100
OS2WinAscent: 900
OS2WinAOffset: 0
OS2WinDescent: 300
OS2WinDOffset: 0
HheadAscent: 1030
HheadAOffset: 0
HheadDescent: -350
HheadDOffset: 0
OS2CapHeight: 700
OS2XHeight: 460
OS2Vendor: 'PfEd'
Lookup: 1 0 0 "Tabular Numbers lookup" { "Tabular Numbers lookup"  } ['tnum' ('DFLT' <'dflt' > 'grek' <'dflt' > 'latn' <'dflt' > ) ]
Lookup: 1 0 0 "alt a" { "alt a"  } ['ss01' ('DFLT' <'dflt' > 'latn' <'dflt' > ) ]
Lookup: 258 0 0 "Lets get our kern on" { "kernin like nobodys business" [150,0,4] } ['kern' ('DFLT' <'dflt' > 'latn' <'dflt' > ) ]
MarkAttachClasses: 1
DEI: 91125
KernClass2: 16 14 "kernin like nobodys business"
 15 slash seven V W
 175 quotedbl quotesingle asterisk grave dieresis ordfeminine macron degree acute ordmasculine circumflex breve dotaccent ring tilde quoteleft quoteright quotedblleft quotedblright
 17 nine question F P
 107 A L backslash Agrave Aacute Acircumflex Atilde Adieresis Aring Amacron Abreve Aogonek Lacute uni013B Lslash
 26 three eight B C germandbls
 5 K X Z
 125 at D G O Ograve Oacute Ocircumflex Otilde Odieresis Oslash Dcaron Dcroat Gcircumflex Gbreve Gdotaccent uni0122 Omacron Obreve
 158 a h m n s agrave aacute acircumflex atilde adieresis aring egrave eacute ecircumflex edieresis ntilde amacron abreve aogonek hcircumflex nacute uni0146 ncaron

StartChar: H
Encoding: 72 72 0
Width: 764
VWidth: 0
Flags: HMW
LayerCount: 2
Fore
SplineSet
122 307 m 1
 122 438 l 1
 637 438 l 1
 637 307 l 1
 122 307 l 1
546 700 m 1
 690 700 l 1
 690 0 l 1
 546 0 l 1
 546 700 l 1
76 700 m 1
 220 700 l 1
 220 0 l 1
 76 0 l 1
 76 700 l 1
EndSplineSet
EndChar

StartChar: O
Encoding: 79 79 1
Width: 811
VWidth: 0
Flags: HMW
LayerCount: 2
Fore
SplineSet
188 350 m 0
 188 216 278 120 406 120 c 0
 534 120 624 216 624 350 c 0
 624 484 537 580 406 580 c 0
 278 580 188 484 188 350 c 0
36 350 m 0
 36 562 195 714 406 714 c 0
 618 714 776 562 776 350 c 0
 776 138 621 -18 406 -18 c 0
 191 -18 36 138 36 350 c 0
EndSplineSet
EndChar

StartChar: I
Encoding: 73 73 2
Width: 297
VWidth: 0
Flags: HMW
LayerCount: 2
Fore
SplineSet
76 700 m 1
 222 700 l 1
 222 0 l 1
 76 0 l 1
 76 700 l 1
EndSplineSet
EndChar

StartChar: C
Encoding: 67 67 3
Width: 695
VWidth: 0
Flags: HMW
LayerCount: 2
Fore
SplineSet
192 350 m 0
 192 212 296 124 416 124 c 0
 515 124 583 166 630 220 c 1
 630 58 l 1
 573 12 512 -14 410 -14 c 0
 194 -14 36 134 36 350 c 0
 36 566 194 714 410 714 c 0
 512 714 573 688 630 642 c 1
 630 480 l 1
 583 534 515 576 416 576 c 0
 296 576 192 488 192 350 c 0
EndSplineSet
EndChar

StartChar: E
Encoding: 69 69 4
Width: 587
VWidth: 0
Flags: HMW
LayerCount: 2
Fore
SplineSet
168 0 m 1
 168 122 l 1
 522 122 l 1
 522 0 l 1
 168 0 l 1
168 578 m 1
 168 700 l 1
 522 700 l 1
 522 578 l 1
 168 578 l 1
168 312 m 1
 168 431 l 1
 502 431 l 1
 502 312 l 1
 168 312 l 1
76 700 m 1
 216 700 l 1
 216 0 l 1
 76 0 l 1
 76 700 l 1
EndSplineSet
EndChar

StartChar: F
Encoding: 70 70 6
Width: 537
VWidth: 0
Flags: HMW
LayerCount: 2
Fore
SplineSet
168 574 m 1
 168 700 l 1
 482 700 l 1
 482 574 l 1
 168 574 l 1
168 298 m 1
 168 418 l 1
 472 418 l 1
 472 298 l 1
 168 298 l 1
76 700 m 1
 216 700 l 1
 216 0 l 1
 76 0 l 1
 76 700 l 1
EndSplineSet
EndChar

StartChar: G
Encoding: 71 71 7
Width: 802
VWidth: 0
Flags: HMW
LayerCount: 2
Fore
SplineSet
416 260 m 1
 416 374 l 1
 762 374 l 1
 682 260 l 1
 416 260 l 1
762 374 m 1
 770 160 642 -18 410 -18 c 0
 192 -18 36 132 36 350 c 0
 36 568 196 714 414 714 c 0
 556 714 659 651 723 554 c 1
 600 482 l 1
 564 542 504 585 414 585 c 0
 288 585 186 496 186 350 c 0
 186 204 284 110 414 110 c 0
 574 110 630 234 630 370 c 1
 762 374 l 1
EndSplineSet
EndChar

StartChar: T
Encoding: 84 84 8
Width: 532
VWidth: 0
Flags: HMW
LayerCount: 2
Fore
SplineSet
6 570 m 1
 6 700 l 1
 527 700 l 1
 527 570 l 1
 338 570 l 1
 338 0 l 1
 194 0 l 1
 194 570 l 1
 6 570 l 1
EndSplineSet
EndChar

StartChar: L
Encoding: 76 76 9
Width: 504
VWidth: 0
Flags: HMW
LayerCount: 2
Fore
SplineSet
168 0 m 1
 168 126 l 1
 499 126 l 1
 499 0 l 1
 168 0 l 1
76 700 m 1
 220 700 l 1
 220 0 l 1
 76 0 l 1
 76 700 l 1
EndSplineSet
EndChar

StartChar: D
Encoding: 68 68 10
Width: 717
VWidth: 0
Flags: HMW
LayerCount: 2
Fore
SplineSet
168 570 m 1
 168 700 l 1
 314 700 l 2
 536 700 682 564 682 350 c 1
 533 350 l 1
 533 504 433 570 310 570 c 2
 168 570 l 1
314 0 m 2
 168 0 l 1
 168 130 l 1
 310 130 l 2
 433 130 533 196 533 350 c 1
 682 350 l 1
 682 136 536 0 314 0 c 2
76 700 m 1
 223 700 l 1
 223 0 l 1
 76 0 l 1
 76 700 l 1
EndSplineSet
EndChar

StartChar: Q
Encoding: 81 81 11
Width: 841
VWidth: 0
Flags: HMW
LayerCount: 2
Fore
SplineSet
188 350 m 0
 188 208 289 112 417 112 c 0
 545 112 637 202 637 336 c 0
 637 470 548 580 408 580 c 0
 280 580 188 484 188 350 c 0
36 350 m 0
 36 562 197 714 408 714 c 0
 620 714 776 562 776 350 c 0
 776 138 623 -18 408 -18 c 0
 193 -18 36 138 36 350 c 0
363 300 m 1
 519 300 l 1
 846 -8 l 1
 685 -8 l 1
 363 300 l 1
EndSplineSet
EndChar

StartChar: A
Encoding: 65 65 12
Width: 712
VWidth: 0
Flags: HMW
LayerCount: 2
Fore
SplineSet
173 158 m 1
 190 272 l 1
 527 272 l 1
 543 158 l 1
 173 158 l 1
356 472 m 1
 252 231 l 1
 255 199 l 1
 163 0 l 1
 0 0 l 1
 356 742 l 1
 712 0 l 1
 549 0 l 1
 460 192 l 1
 461 229 l 1
 356 472 l 1
EndSplineSet
EndChar

StartChar: R
Encoding: 82 82 13
Width: 621
VWidth: 0
Flags: HMW
LayerCount: 2
Fore
SplineSet
235 326 m 1
 388 326 l 1
 616 0 l 1
 445 0 l 1
 235 326 l 1
76 700 m 1
 220 700 l 1
 220 0 l 1
 76 0 l 1
 76 700 l 1
164 577 m 1
 164 700 l 1
 312 700 l 2
 477 700 574 610 574 476 c 0
 574 342 477 254 312 254 c 2
 164 254 l 1
 164 368 l 1
 303 368 l 2
 377 368 425 406 425 472 c 0
 425 538 377 577 303 577 c 2
 164 577 l 1
EndSplineSet
EndChar

StartChar: V
Encoding: 86 86 14
Width: 712
VWidth: 0
Flags: HMW
LayerCount: 2
Fore
SplineSet
356 246 m 1
 544 700 l 1
 712 700 l 1
 356 -42 l 1
 0 700 l 1
 168 700 l 1
 356 246 l 1
EndSplineSet
EndChar

StartChar: M
Encoding: 77 77 15
Width: 866
VWidth: 0
Flags: HMW
LayerCount: 2
Fore
SplineSet
623 492 m 1
 726 735 l 1
 832 0 l 1
 680 0 l 1
 623 492 l 1
140 735 m 1
 243 492 l 1
 186 0 l 1
 36 0 l 1
 140 735 l 1
726 735 m 1
 726 530 l 1
 434 65 l 1
 140 530 l 1
 140 735 l 1
 434 284 l 1
 726 735 l 1
EndSplineSet
EndChar

StartChar: W
Encoding: 87 87 16
Width: 1042
VWidth: 0
Flags: HMW
LayerCount: 2
Fore
SplineSet
357 138 m 1
 300 -40 l 1
 6 700 l 1
 175 700 l 1
 357 138 l 1
742 -40 m 1
 686 138 l 1
 868 700 l 1
 1036 700 l 1
 742 -40 l 1
300 -40 m 1
 274 148 l 1
 521 735 l 1
 768 148 l 1
 742 -40 l 1
 521 419 l 1
 300 -40 l 1
EndSplineSet
EndChar

StartChar: N
Encoding: 78 78 17
Width: 787
VWidth: 0
Flags: HMW
LayerCount: 2
Fore
SplineSet
80 548 m 1
 76 735 l 1
 708 152 l 1
 712 -35 l 1
 80 548 l 1
573 700 m 1
 712 700 l 1
 712 -35 l 1
 573 128 l 1
 573 700 l 1
76 735 m 1
 216 572 l 1
 216 0 l 1
 76 0 l 1
 76 735 l 1
EndSplineSet
EndChar

StartChar: a
Encoding: 97 97 18
Width: 526
VWidth: 0
Flags: HMW
LayerCount: 2
Fore
SplineSet
156 137 m 0
 156 99 188 80 232 80 c 0
 294 80 345 106 345 184 c 1
 361 130 l 1
 361 41 285 -10 190 -10 c 0
 92 -10 26 40 26 129 c 0
 26 224 105 281 224 281 c 0
 298 281 360 248 378 228 c 1
 378 164 l 1
 340 192 304 206 250 206 c 0
 190 206 156 179 156 137 c 0
116 328 m 1
 68 418 l 1
 116 443 185 472 268 472 c 0
 386 472 470 420 470 326 c 2
 470 0 l 1
 345 0 l 1
 345 305 l 2
 345 346 309 370 259 370 c 0
 193 370 138 342 116 328 c 1
EndSplineSet
Substitution2: "alt a" a.alt
EndChar

StartChar: X
Encoding: 88 88 19
Width: 646
VWidth: 0
Flags: HMW
LayerCount: 2
Fore
SplineSet
450 700 m 1
 626 700 l 1
 410 362 l 1
 641 0 l 1
 464 0 l 1
 326 250 l 1
 182 0 l 1
 6 0 l 1
 242 362 l 1
 30 700 l 1
 207 700 l 1
 326 481 l 1
 450 700 l 1
EndSplineSet
EndChar

StartChar: K
Encoding: 75 75 20
Width: 659
VWidth: 0
Flags: HMW
LayerCount: 2
Fore
SplineSet
76 700 m 1
 224 700 l 1
 224 0 l 1
 76 0 l 1
 76 700 l 1
473 700 m 1
 644 700 l 1
 354 372 l 1
 658 0 l 1
 484 0 l 1
 182 368 l 1
 473 700 l 1
EndSplineSet
EndChar

StartChar: Y
Encoding: 89 89 21
Width: 630
VWidth: 0
Flags: HMW
LayerCount: 2
Fore
SplineSet
242 360 m 1
 388 360 l 1
 388 0 l 1
 242 0 l 1
 242 360 l 1
464 700 m 1
 630 700 l 1
 315 166 l 1
 0 700 l 1
 166 700 l 1
 315 418 l 1
 464 700 l 1
EndSplineSet
EndChar

StartChar: B
Encoding: 66 66 22
Width: 632
VWidth: 0
Flags: HMW
LayerCount: 2
Fore
SplineSet
172 394 m 1
 324 394 l 2
 459 394 586 338 586 200 c 0
 586 61 481 0 324 0 c 2
 172 0 l 1
 172 115 l 1
 312 115 l 2
 384 115 438 145 438 217 c 0
 438 285 384 316 312 316 c 2
 172 316 l 1
 172 394 l 1
172 354 m 1
 172 420 l 1
 297 420 l 2
 359 420 398 452 398 504 c 0
 398 556 359 585 297 585 c 2
 172 585 l 1
 172 700 l 1
 310 700 l 2
 448 700 546 642 546 523 c 0
 546 415 448 354 310 354 c 2
 172 354 l 1
76 700 m 1
 220 700 l 1
 220 0 l 1
 76 0 l 1
 76 700 l 1
EndSplineSet
EndChar

StartChar: Z
Encoding: 90 90 23
Width: 597
VWidth: 0
Flags: HMW
LayerCount: 2
Fore
SplineSet
50 570 m 1
 50 700 l 1
 582 700 l 1
 238 126 l 1
 550 126 l 1
 550 0 l 1
 10 0 l 1
 352 570 l 1
 50 570 l 1
EndSplineSet
EndChar

StartChar: o
Encoding: 111 111 24
Width: 576
VWidth: 0
Flags: HMW
LayerCount: 2
Fore
SplineSet
33 230 m 0
 33 374 142 470 288 470 c 0
 434 470 544 374 544 230 c 0
 544 86 434 -10 288 -10 c 0
 142 -10 33 86 33 230 c 0
166 230 m 0
 166 152 220 100 288 100 c 0
 356 100 410 152 410 230 c 0
 410 308 356 360 288 360 c 0
 220 360 166 308 166 230 c 0
EndSplineSet
EndChar

StartChar: J
Encoding: 74 74 25
Width: 303
VWidth: 0
Flags: HMW
LayerCount: 2
Fore
SplineSet
-70 -68 m 1
 -52 -88 -22 -102 10 -102 c 0
 40 -102 76 -80 76 -18 c 2
 76 700 l 1
 228 700 l 1
 228 -56 l 2
 228 -182 136 -234 20 -234 c 0
 -50 -234 -116 -202 -148 -178 c 1
 -70 -68 l 1
EndSplineSet
EndChar

StartChar: t
Encoding: 116 116 26
Width: 294
VWidth: 0
Flags: HMW
LayerCount: 2
Fore
SplineSet
5 460 m 1
 290 460 l 1
 290 350 l 1
 5 350 l 1
 5 460 l 1
84 620 m 1
 210 620 l 1
 210 0 l 1
 84 0 l 1
 84 620 l 1
EndSplineSet
EndChar

StartChar: d
Encoding: 100 100 27
Width: 602
VWidth: 0
Flags: HMW
LayerCount: 2
Fore
SplineSet
412 780 m 1
 542 780 l 1
 542 0 l 1
 412 0 l 1
 412 780 l 1
33 230 m 0
 33 384 138 470 254 470 c 0
 369 470 452 379 452 230 c 0
 452 81 369 -10 254 -10 c 0
 138 -10 33 76 33 230 c 0
168 230 m 0
 168 148 224 98 292 98 c 0
 348 98 412 146 412 230 c 0
 412 314 348 362 292 362 c 0
 224 362 168 312 168 230 c 0
EndSplineSet
EndChar

StartChar: l
Encoding: 108 108 28
Width: 258
VWidth: 0
Flags: HMW
LayerCount: 2
Fore
SplineSet
64 780 m 1
 195 780 l 1
 195 0 l 1
 64 0 l 1
 64 780 l 1
EndSplineSet
EndChar

StartChar: i
Encoding: 105 105 29
Width: 271
VWidth: 0
Flags: HMW
LayerCount: 2
Fore
SplineSet
58 638 m 0
 58 680 92 712 136 712 c 0
 180 712 214 680 214 638 c 0
 214 596 180 564 136 564 c 0
 92 564 58 596 58 638 c 0
72 460 m 1
 198 460 l 1
 198 0 l 1
 72 0 l 1
 72 460 l 1
EndSplineSet
EndChar

StartChar: r
Encoding: 114 114 30
Width: 390
VWidth: 0
Flags: HMW
LayerCount: 2
Fore
SplineSet
192 460 m 1
 192 0 l 1
 64 0 l 1
 64 460 l 1
 192 460 l 1
327 324 m 1
 309 340 293 350 267 350 c 0
 218 350 192 309 192 243 c 1
 156 280 l 1
 156 389 228 470 302 470 c 0
 335 470 368 458 386 434 c 1
 327 324 l 1
EndSplineSet
EndChar

StartChar: c
Encoding: 99 99 31
Width: 488
VWidth: 0
Flags: HMW
LayerCount: 2
Fore
SplineSet
164 230 m 0
 164 150 222 96 296 96 c 0
 356 96 413 126 439 170 c 1
 439 37 l 1
 407 7 356 -10 288 -10 c 0
 140 -10 30 86 30 230 c 0
 30 374 140 470 288 470 c 0
 356 470 407 450 439 424 c 1
 439 290 l 1
 413 334 352 364 296 364 c 0
 222 364 164 306 164 230 c 0
EndSplineSet
EndChar

StartChar: b
Encoding: 98 98 32
Width: 602
VWidth: 0
Flags: HMW
LayerCount: 2
Fore
SplineSet
192 780 m 1
 192 0 l 1
 62 0 l 1
 62 780 l 1
 192 780 l 1
570 230 m 0
 570 76 464 -10 348 -10 c 0
 233 -10 151 81 151 230 c 0
 151 379 233 470 348 470 c 0
 464 470 570 384 570 230 c 0
434 230 m 0
 434 312 378 362 310 362 c 0
 254 362 192 314 192 230 c 0
 192 146 254 98 310 98 c 0
 378 98 434 148 434 230 c 0
EndSplineSet
EndChar

StartChar: p
Encoding: 112 112 33
Width: 602
VWidth: 0
Flags: HMW
LayerCount: 2
Fore
SplineSet
192 -220 m 1
 62 -220 l 1
 62 460 l 1
 192 460 l 1
 192 -220 l 1
570 230 m 0
 570 72 464 -14 348 -14 c 0
 228 -14 156 81 156 230 c 0
 156 379 228 474 348 474 c 0
 464 474 570 388 570 230 c 0
434 230 m 0
 434 312 378 358 310 358 c 0
 254 358 192 314 192 230 c 0
 192 146 254 102 310 102 c 0
 378 102 434 148 434 230 c 0
EndSplineSet
EndChar

StartChar: q
Encoding: 113 113 34
Width: 602
VWidth: 0
Flags: HMW
LayerCount: 2
Fore
SplineSet
412 -220 m 1
 412 460 l 1
 542 460 l 1
 542 -220 l 1
 412 -220 l 1
33 230 m 0
 33 388 138 474 254 474 c 0
 374 474 448 379 448 230 c 0
 448 81 374 -14 254 -14 c 0
 138 -14 33 72 33 230 c 0
168 230 m 0
 168 148 224 102 292 102 c 0
 348 102 412 146 412 230 c 0
 412 314 348 358 292 358 c 0
 224 358 168 312 168 230 c 0
EndSplineSet
EndChar

StartChar: h
Encoding: 104 104 35
Width: 555
VWidth: 0
Flags: HMW
LayerCount: 2
Fore
SplineSet
195 780 m 1
 195 0 l 1
 64 0 l 1
 64 780 l 1
 195 780 l 1
362 280 m 2
 362 340 340 374 286 374 c 0
 232 374 195 338 195 280 c 1
 169 280 l 1
 169 389 226 475 334 475 c 0
 442 475 492 412 492 298 c 2
 492 0 l 1
 362 0 l 1
 362 280 l 2
EndSplineSet
EndChar

StartChar: n
Encoding: 110 110 36
Width: 560
VWidth: 0
Flags: HMW
LayerCount: 2
Fore
SplineSet
195 460 m 1
 195 0 l 1
 64 0 l 1
 64 460 l 1
 195 460 l 1
362 280 m 2
 362 340 340 374 286 374 c 0
 232 374 195 338 195 280 c 1
 169 276 l 1
 169 385 226 470 334 470 c 0
 442 470 496 408 496 294 c 2
 496 0 l 1
 362 0 l 1
 362 280 l 2
EndSplineSet
EndChar

StartChar: m
Encoding: 109 109 37
Width: 808
VWidth: 0
Flags: HMW
LayerCount: 2
Fore
SplineSet
336 280 m 2
 336 340 319 374 269 374 c 0
 219 374 190 338 190 280 c 1
 164 276 l 1
 164 385 217 470 321 470 c 0
 425 470 467 412 467 298 c 2
 467 0 l 1
 336 0 l 1
 336 280 l 2
190 460 m 1
 190 0 l 1
 64 0 l 1
 64 460 l 1
 190 460 l 1
745 294 m 2
 745 0 l 1
 614 0 l 1
 614 280 l 2
 614 340 596 374 546 374 c 0
 496 374 467 338 467 280 c 1
 419 276 l 1
 419 385 494 470 598 470 c 0
 702 470 745 408 745 294 c 2
EndSplineSet
EndChar

StartChar: k
Encoding: 107 107 38
Width: 536
VWidth: 0
Flags: HMW
LayerCount: 2
Fore
SplineSet
62 780 m 1
 187 780 l 1
 187 0 l 1
 62 0 l 1
 62 780 l 1
355 460 m 1
 512 460 l 1
 314 270 l 1
 532 0 l 1
 377 0 l 1
 158 270 l 1
 355 460 l 1
EndSplineSet
EndChar

StartChar: u
Encoding: 117 117 39
Width: 560
VWidth: 0
Flags: HMW
LayerCount: 2
Fore
SplineSet
366 0 m 1
 366 460 l 1
 496 460 l 1
 496 0 l 1
 366 0 l 1
199 180 m 2
 199 120 221 86 275 86 c 0
 329 86 366 122 366 180 c 1
 392 184 l 1
 392 75 334 -10 226 -10 c 0
 118 -10 64 52 64 166 c 2
 64 460 l 1
 199 460 l 1
 199 180 l 2
EndSplineSet
EndChar

StartChar: e
Encoding: 101 101 40
Width: 550
VWidth: 0
Flags: HMW
LayerCount: 2
Fore
SplineSet
96 202 m 1
 96 284 l 1
 496 284 l 1
 512 202 l 1
 96 202 l 1
390 246 m 2
 390 325 355 374 280 374 c 0
 211 374 162 330 162 256 c 1
 160 230 l 1
 160 138 218 92 292 92 c 0
 345 92 376 114 398 155 c 1
 508 115 l 1
 467 41 414 -10 286 -10 c 4
 141 -10 36 91 36 230 c 0
 36 247 37 264 40 280 c 0
 59 393 151 470 282 470 c 0
 418 470 514 381 514 236 c 0
 514 228 514 216 512 202 c 1
 390 222 l 1
 390 246 l 2
EndSplineSet
EndChar

StartChar: g
Encoding: 103 103 41
Width: 598
VWidth: 0
Flags: HMW
LayerCount: 2
Fore
SplineSet
42 -32 m 1
 169 -32 l 1
 173 -91 218 -129 286 -129 c 0
 352 -129 412 -84 412 10 c 2
 412 460 l 1
 537 460 l 1
 537 10 l 2
 537 -162 424 -237 292 -237 c 0
 131 -237 50 -153 42 -32 c 1
33 234 m 0
 33 388 138 470 254 470 c 0
 369 470 452 383 452 234 c 0
 452 85 369 -2 254 -2 c 0
 138 -2 33 80 33 234 c 0
168 234 m 0
 168 152 224 106 292 106 c 0
 348 106 412 150 412 234 c 0
 412 318 348 362 292 362 c 0
 224 362 168 316 168 234 c 0
EndSplineSet
EndChar

StartChar: f
Encoding: 102 102 42
Width: 326
VWidth: 0
Flags: HMW
LayerCount: 2
Fore
SplineSet
24 460 m 1
 314 460 l 1
 314 350 l 1
 24 350 l 1
 24 460 l 1
300 649 m 1
 286 669 271 675 253 675 c 0
 223 675 205 652 205 600 c 2
 205 0 l 1
 78 0 l 1
 78 630 l 2
 78 734 134 794 240 794 c 0
 300 794 335 767 355 747 c 1
 300 649 l 1
EndSplineSet
EndChar

StartChar: s
Encoding: 115 115 43
Width: 436
VWidth: 0
Flags: HMW
LayerCount: 2
Fore
SplineSet
85 170 m 1
 139 122 193 88 230 88 c 0
 264 88 284 100 284 126 c 0
 284 160 236 178 184 198 c 0
 120 222 54 256 54 342 c 0
 54 418 127 470 217 470 c 0
 294 470 362 438 402 394 c 1
 345 316 l 1
 307 350 263 372 226 372 c 0
 191 372 172 360 172 338 c 0
 172 305 229 294 284 272 c 0
 349 246 411 214 411 130 c 0
 411 34 344 -16 240 -16 c 0
 148 -16 69 29 21 92 c 1
 85 170 l 1
EndSplineSet
EndChar

StartChar: y
Encoding: 121 121 44
Width: 496
VWidth: 0
Flags: HMW
LayerCount: 2
Fore
SplineSet
503 460 m 1
 203 -220 l 1
 70 -220 l 1
 186 46 l 1
 -7 460 l 1
 139 460 l 1
 286 93 l 1
 222 96 l 1
 368 460 l 1
 503 460 l 1
EndSplineSet
EndChar

StartChar: w
Encoding: 119 119 45
Width: 736
VWidth: 0
Flags: HMW
LayerCount: 2
Fore
SplineSet
602 460 m 1
 740 460 l 1
 515 -30 l 1
 480 152 l 1
 602 460 l 1
335 322 m 1
 365 495 l 1
 530 143 l 1
 515 -30 l 1
 335 322 l 1
365 495 m 1
 395 322 l 1
 222 -30 l 1
 207 143 l 1
 365 495 l 1
-4 460 m 1
 135 460 l 1
 257 152 l 1
 222 -30 l 1
 -4 460 l 1
EndSplineSet
EndChar

StartChar: v
Encoding: 118 118 46
Width: 501
VWidth: 0
Flags: HMW
LayerCount: 2
Fore
SplineSet
-2 460 m 1
 138 460 l 1
 251 184 l 1
 364 460 l 1
 503 460 l 1
 251 -48 l 1
 -2 460 l 1
EndSplineSet
EndChar

StartChar: x
Encoding: 120 120 47
Width: 498
VWidth: 0
Flags: HMW
LayerCount: 2
Fore
SplineSet
344 460 m 1
 488 460 l 1
 318 236 l 1
 498 0 l 1
 354 0 l 1
 252 146 l 1
 149 0 l 1
 0 0 l 1
 182 236 l 1
 10 460 l 1
 159 460 l 1
 252 328 l 1
 344 460 l 1
EndSplineSet
EndChar

StartChar: z
Encoding: 122 122 48
Width: 503
VWidth: 0
Flags: HMW
LayerCount: 2
Fore
SplineSet
269 341 m 1
 54 341 l 1
 54 460 l 1
 489 460 l 1
 242 119 l 1
 460 119 l 1
 460 0 l 1
 15 0 l 1
 269 341 l 1
EndSplineSet
EndChar

StartChar: j
Encoding: 106 106 49
Width: 264
VWidth: 0
Flags: HMW
LayerCount: 2
Fore
SplineSet
52 638 m 0
 52 680 86 712 130 712 c 0
 174 712 208 680 208 638 c 0
 208 596 174 564 130 564 c 0
 86 564 52 596 52 638 c 0
-29 -88 m 1
 -15 -108 0 -114 18 -114 c 0
 48 -114 66 -91 66 -39 c 2
 66 460 l 1
 193 460 l 1
 193 -68 l 2
 193 -172 138 -234 32 -234 c 0
 -28 -234 -64 -206 -84 -186 c 1
 -29 -88 l 1
EndSplineSet
EndChar

StartChar: P
Encoding: 80 80 50
Width: 600
VWidth: 0
Flags: HMW
LayerCount: 2
Fore
SplineSet
76 700 m 1
 220 700 l 1
 220 0 l 1
 76 0 l 1
 76 700 l 1
164 578 m 1
 164 700 l 1
 303 700 l 2
 468 700 564 614 564 476 c 0
 564 338 468 254 303 254 c 2
 164 254 l 1
 164 376 l 1
 303 376 l 2
 377 376 425 410 425 476 c 0
 425 542 377 578 303 578 c 2
 164 578 l 1
EndSplineSet
EndChar

StartChar: U
Encoding: 85 85 51
Width: 678
VWidth: 0
Flags: HMW
LayerCount: 2
Fore
SplineSet
70 700 m 1
 214 700 l 1
 214 238 l 2
 214 160 257 107 339 107 c 0
 421 107 464 160 464 238 c 2
 464 700 l 1
 608 700 l 1
 608 230 l 2
 608 65 493 -24 339 -24 c 0
 185 -24 70 65 70 230 c 2
 70 700 l 1
EndSplineSet
EndChar

StartChar: S
Encoding: 83 83 52
Width: 602
VWidth: 0
Flags: HMW
LayerCount: 2
Fore
SplineSet
140 244 m 1
 186 156 236 108 314 108 c 0
 376 108 410 138 410 190 c 0
 410 258 340 282 260 313 c 0
 190 339 74 393 74 524 c 0
 74 638 172 714 308 714 c 0
 447 714 524 633 552 562 c 1
 442 496 l 1
 412 550 375 589 314 589 c 0
 258 589 223 562 223 518 c 0
 223 464 300 438 384 408 c 0
 474 376 561 316 561 194 c 0
 561 59 466 -18 310 -18 c 0
 186 -18 80 57 36 172 c 1
 140 244 l 1
EndSplineSet
EndChar

StartChar: at
Encoding: 64 64 53
Width: 770
VWidth: 0
Flags: HMW
LayerCount: 2
Fore
SplineSet
301 320 m 0
 301 272 321 246 357 246 c 0
 396 246 444 286 444 366 c 0
 444 415 419 445 385 445 c 0
 341 445 301 388 301 320 c 0
192 314 m 0
 192 453 288 530 368 530 c 0
 444 530 480 456 480 372 c 0
 480 233 414 156 328 156 c 0
 250 156 192 215 192 314 c 0
18 320 m 0
 18 544 187 722 415 722 c 0
 621 722 752 554 752 390 c 0
 752 212 642 132 554 132 c 0
 484 132 436 192 446 258 c 1
 442 288 l 1
 472 520 l 1
 580 520 l 1
 543 292 l 2
 542 285 541 274 541 266 c 0
 541 242 547 228 568 228 c 0
 594 228 648 272 648 390 c 0
 648 518 569 632 415 632 c 0
 235 632 122 498 122 320 c 0
 122 166 205 63 363 63 c 0
 433 63 506 70 566 108 c 1
 618 31 l 1
 558 -3 471 -24 365 -24 c 0
 143 -24 18 121 18 320 c 0
EndSplineSet
EndChar

StartChar: period
Encoding: 46 46 54
Width: 315
VWidth: 0
Flags: HMW
LayerCount: 2
Fore
SplineSet
76 60 m 0
 76 104 110 140 158 140 c 0
 206 140 240 104 240 60 c 0
 240 16 206 -22 158 -22 c 0
 110 -22 76 16 76 60 c 0
EndSplineSet
EndChar

StartChar: comma
Encoding: 44 44 55
Width: 318
VWidth: 0
Flags: HMW
LayerCount: 2
Fore
SplineSet
128 110 m 1
 259 78 l 1
 138 -172 l 1
 40 -149 l 1
 128 110 l 1
EndSplineSet
EndChar

StartChar: colon
Encoding: 58 58 56
Width: 315
VWidth: 0
Flags: HMW
LayerCount: 2
Fore
SplineSet
76 60 m 0
 76 104 110 140 158 140 c 0
 206 140 240 104 240 60 c 0
 240 16 206 -22 158 -22 c 0
 110 -22 76 16 76 60 c 0
76 436 m 0
 76 480 110 516 158 516 c 0
 206 516 240 480 240 436 c 0
 240 392 206 354 158 354 c 0
 110 354 76 392 76 436 c 0
EndSplineSet
EndChar

StartChar: semicolon
Encoding: 59 59 57
Width: 374
VWidth: 0
Flags: HMW
LayerCount: 2
Fore
SplineSet
120 431 m 0
 120 475 155 512 203 512 c 0
 251 512 286 475 286 431 c 0
 286 387 251 350 203 350 c 0
 155 350 120 387 120 431 c 0
144 110 m 1
 274 78 l 1
 153 -172 l 1
 56 -149 l 1
 144 110 l 1
EndSplineSet
EndChar

StartChar: quotedbl
Encoding: 34 34 58
Width: 502
VWidth: 0
Flags: HMW
LayerCount: 2
Fore
SplineSet
112 700 m 1
 254 700 l 1
 152 386 l 1
 66 386 l 1
 112 700 l 1
314 700 m 1
 456 700 l 1
 355 386 l 1
 268 386 l 1
 314 700 l 1
EndSplineSet
EndChar

StartChar: exclam
Encoding: 33 33 59
Width: 330
VWidth: 0
Flags: HMW
LayerCount: 2
Fore
SplineSet
84 700 m 1
 246 700 l 1
 217 222 l 1
 113 222 l 1
 84 700 l 1
83 56 m 0
 83 100 118 132 166 132 c 0
 214 132 248 100 248 56 c 0
 248 12 214 -22 166 -22 c 0
 118 -22 83 12 83 56 c 0
EndSplineSet
EndChar

StartChar: quotesingle
Encoding: 39 39 60
Width: 299
VWidth: 0
Flags: HMW
LayerCount: 2
Fore
SplineSet
112 700 m 1
 254 700 l 1
 152 386 l 1
 66 386 l 1
 112 700 l 1
EndSplineSet
EndChar

StartChar: numbersign
Encoding: 35 35 61
Width: 648
VWidth: 0
Flags: HMW
LayerCount: 2
Fore
SplineSet
75 420 m 1
 75 524 l 1
 614 524 l 1
 614 420 l 1
 464 420 l 0
 438 424 l 0
 238 424 l 0
 216 420 l 0
 75 420 l 1
35 180 m 1
 35 284 l 1
 173 284 l 0
 200 280 l 0
 421 280 l 0
 448 284 l 0
 574 284 l 1
 574 180 l 1
 35 180 l 1
468 700 m 1
 582 700 l 1
 412 0 l 1
 298 0 l 1
 352 225 l 0
 362 249 l 0
 413 458 l 0
 416 484 l 0
 468 700 l 1
236 700 m 1
 351 700 l 1
 298 486 l 0
 288 459 l 0
 236 250 l 0
 235 226 l 0
 181 0 l 1
 66 0 l 1
 236 700 l 1
EndSplineSet
EndChar

StartChar: hyphen
Encoding: 45 45 62
Width: 218
VWidth: 0
Flags: HMW
LayerCount: 2
Fore
SplineSet
5 180 m 1
 5 294 l 1
 214 294 l 1
 214 180 l 1
 5 180 l 1
EndSplineSet
EndChar

StartChar: dollar
Encoding: 36 36 63
Width: 608
VWidth: 0
Flags: HMW
LayerCount: 2
Fore
SplineSet
261 818 m 1
 370 818 l 1
 366 646 l 1
 266 646 l 1
 261 818 l 1
266 58 m 1
 366 58 l 1
 370 -112 l 1
 261 -112 l 1
 266 58 l 1
446 496 m 1
 416 554 376 599 316 599 c 0
 254 599 227 570 227 526 c 0
 227 462 303 440 388 408 c 0
 476 376 566 316 566 194 c 0
 566 66 470 -10 314 -10 c 0
 190 -10 84 70 40 172 c 1
 144 244 l 1
 190 156 240 108 318 108 c 0
 384 108 414 139 414 191 c 0
 414 257 346 282 264 313 c 0
 194 339 79 393 79 526 c 0
 79 626 176 710 312 710 c 0
 447 710 518 636 556 562 c 1
 446 496 l 1
EndSplineSet
EndChar

StartChar: bar
Encoding: 124 124 64
Width: 328
VWidth: 0
Flags: HMW
LayerCount: 2
Fore
SplineSet
100 785 m 1
 230 785 l 1
 230 -215 l 1
 100 -215 l 1
 100 785 l 1
EndSplineSet
EndChar

StartChar: zero
Encoding: 48 48 65
Width: 643
VWidth: 0
Flags: HMW
LayerCount: 2
Fore
SplineSet
180 350 m 0
 180 209 236 114 322 114 c 0
 408 114 464 209 464 350 c 0
 464 491 408 586 322 586 c 0
 236 586 180 491 180 350 c 0
40 350 m 0
 40 572 154 712 322 712 c 0
 494 712 604 572 604 350 c 0
 604 128 494 -12 322 -12 c 0
 154 -12 40 128 40 350 c 0
EndSplineSet
Substitution2: "Tabular Numbers lookup" uniFF10
EndChar

StartChar: one
Encoding: 49 49 66
Width: 491
VWidth: 0
Flags: HMW
LayerCount: 2
Fore
SplineSet
72 517 m 1
 72 646 l 1
 379 712 l 1
 379 0 l 1
 240 0 l 1
 240 560 l 1
 72 517 l 1
EndSplineSet
Substitution2: "Tabular Numbers lookup" uniFF11
EndChar

StartChar: two
Encoding: 50 50 67
Width: 630
VWidth: 0
Flags: HMW
LayerCount: 2
Fore
SplineSet
20 0 m 1
 338 332 l 2
 391 389 422 432 422 488 c 0
 422 537 390 587 320 587 c 0
 248 587 198 530 198 446 c 1
 56 446 l 1
 56 595 152 713 323 713 c 0
 491 713 572 596 572 491 c 0
 572 417 530 355 472 302 c 2
 292 132 l 1
 584 132 l 1
 584 0 l 1
 20 0 l 1
EndSplineSet
Substitution2: "Tabular Numbers lookup" uniFF12
EndChar

StartChar: four
Encoding: 52 52 68
Width: 663
VWidth: 0
Flags: HMW
LayerCount: 2
Fore
SplineSet
16 129 m 1
 134 237 l 1
 441 237 l 0
 458 252 l 0
 625 252 l 1
 625 129 l 1
 16 129 l 1
162 164 m 1
 16 129 l 1
 416 700 l 25
 515 700 l 1
 515 0 l 1
 366 0 l 1
 366 165 l 0
 380 176 l 0
 380 471 l 1
 162 164 l 1
EndSplineSet
Substitution2: "Tabular Numbers lookup" uniFF14
EndChar

StartChar: slash
Encoding: 47 47 69
Width: 580
VWidth: 0
Flags: HMW
LayerCount: 2
Fore
SplineSet
440 700 m 1
 566 700 l 1
 146 -150 l 1
 15 -150 l 1
 440 700 l 1
EndSplineSet
EndChar

StartChar: backslash
Encoding: 92 92 70
Width: 536
VWidth: 0
Flags: HMW
LayerCount: 2
Fore
SplineSet
15 700 m 1
 144 700 l 1
 522 0 l 1
 393 0 l 1
 15 700 l 1
EndSplineSet
EndChar

StartChar: eight
Encoding: 56 56 71
Width: 602
VWidth: 0
Flags: HMW
LayerCount: 2
Fore
SplineSet
78 531 m 0
 78 643 178 714 302 714 c 0
 426 714 525 643 525 531 c 0
 525 409 417 346 302 346 c 0
 187 346 78 409 78 531 c 0
214 516 m 0
 214 464 253 428 302 428 c 0
 351 428 390 464 390 516 c 0
 390 568 354 606 302 606 c 0
 250 606 214 568 214 516 c 0
53 190 m 0
 53 332 187 394 302 394 c 0
 417 394 550 332 550 190 c 0
 550 68 436 -14 302 -14 c 0
 168 -14 53 68 53 190 c 0
195 211 m 0
 195 143 246 105 302 105 c 0
 358 105 408 143 408 211 c 0
 408 269 358 316 302 316 c 0
 246 316 195 269 195 211 c 0
EndSplineSet
Substitution2: "Tabular Numbers lookup" uniFF18
EndChar

StartChar: nine
Encoding: 57 57 72
Width: 641
VWidth: 0
Flags: HMW
LayerCount: 2
Fore
SplineSet
450 459 m 0
 450 537 395 590 321 590 c 0
 247 590 192 537 192 459 c 0
 192 381 247 326 321 326 c 0
 395 326 450 381 450 459 c 0
309 2 m 1
 127 2 l 1
 351 266 l 1
 378 275 l 1
 344 240 312 231 264 231 c 0
 157 231 50 321 50 459 c 0
 50 623 171 714 321 714 c 0
 471 714 592 623 592 459 c 0
 592 389 561 330 521 280 c 2
 309 2 l 1
EndSplineSet
Substitution2: "Tabular Numbers lookup" uniFF19
EndChar

StartChar: three
Encoding: 51 51 73
Width: 598
VWidth: 0
Flags: HMW
LayerCount: 2
Fore
SplineSet
268 340 m 1
 268 410 l 1
 350 410 401 457 401 512 c 0
 401 560 372 594 314 594 c 0
 258 594 215 556 215 504 c 1
 82 504 l 1
 82 624 174 712 314 712 c 0
 460 712 544 626 544 520 c 0
 544 406 425 340 268 340 c 1
308 -14 m 0
 148 -14 52 91 52 211 c 1
 194 211 l 1
 194 143 248 105 312 105 c 0
 376 105 421 139 421 204 c 0
 421 270 366 312 268 312 c 1
 268 388 l 1
 438 388 564 331 564 190 c 0
 564 69 466 -14 308 -14 c 0
EndSplineSet
Substitution2: "Tabular Numbers lookup" uniFF13
EndChar

StartChar: five
Encoding: 53 53 74
Width: 620
VWidth: 0
Flags: HMW
LayerCount: 2
Fore
SplineSet
580 226 m 0
 580 62 444 -12 309 -12 c 0
 180 -12 98 38 38 96 c 1
 106 208 l 1
 154 156 224 120 284 120 c 0
 373 120 425 162 425 238 c 0
 425 314 358 355 284 355 c 0
 226 355 163 345 92 305 c 1
 189 394 l 5
 239 448 301 457 369 457 c 0
 482 457 580 370 580 226 c 0
290 574 m 1
 243 391 l 1
 92 305 l 1
 188 700 l 1
 570 700 l 1
 570 574 l 1
 290 574 l 1
EndSplineSet
Substitution2: "Tabular Numbers lookup" uniFF15
EndChar

StartChar: six
Encoding: 54 54 75
Width: 641
VWidth: 0
Flags: HMW
LayerCount: 2
Fore
SplineSet
192 241 m 0
 192 163 247 110 321 110 c 0
 395 110 450 163 450 241 c 0
 450 319 395 374 321 374 c 0
 247 374 192 319 192 241 c 0
332 698 m 1
 514 698 l 1
 290 434 l 1
 264 425 l 1
 298 460 330 469 378 469 c 0
 485 469 592 379 592 241 c 0
 592 77 471 -14 321 -14 c 0
 171 -14 50 77 50 241 c 0
 50 311 80 370 120 420 c 2
 332 698 l 1
EndSplineSet
Substitution2: "Tabular Numbers lookup" uniFF16
EndChar

StartChar: seven
Encoding: 55 55 76
Width: 579
VWidth: 0
Flags: HMW
LayerCount: 2
Fore
SplineSet
30 566 m 1
 30 700 l 1
 576 700 l 1
 240 0 l 1
 85 0 l 1
 365 566 l 1
 30 566 l 1
EndSplineSet
Substitution2: "Tabular Numbers lookup" uniFF17
EndChar

StartChar: plus
Encoding: 43 43 77
Width: 656
VWidth: 0
Flags: HMW
LayerCount: 2
Fore
SplineSet
65 202 m 1
 65 328 l 1
 592 328 l 1
 592 202 l 1
 65 202 l 1
260 528 m 1
 396 528 l 1
 396 2 l 1
 260 2 l 1
 260 528 l 1
EndSplineSet
EndChar

StartChar: equal
Encoding: 61 61 78
Width: 622
VWidth: 0
Flags: HMW
LayerCount: 2
Fore
SplineSet
58 101 m 1
 58 215 l 1
 564 215 l 1
 564 101 l 1
 58 101 l 1
58 290 m 1
 58 405 l 1
 564 405 l 1
 564 290 l 1
 58 290 l 1
EndSplineSet
EndChar

StartChar: percent
Encoding: 37 37 79
Width: 868
VWidth: 0
Flags: HMW
LayerCount: 2
Fore
SplineSet
26 539 m 0
 26 637 102 717 206 717 c 0
 310 717 386 637 386 539 c 0
 386 441 310 362 206 362 c 0
 102 362 26 441 26 539 c 0
134 539 m 0
 134 499 163 464 206 464 c 0
 249 464 277 499 277 539 c 0
 277 579 249 614 206 614 c 0
 163 614 134 579 134 539 c 0
484 161 m 0
 484 259 559 338 663 338 c 0
 767 338 842 259 842 161 c 0
 842 63 767 -16 663 -16 c 0
 559 -16 484 63 484 161 c 0
592 161 m 0
 592 121 620 86 663 86 c 0
 706 86 734 121 734 161 c 0
 734 201 706 236 663 236 c 0
 620 236 592 201 592 161 c 0
624 700 m 1
 756 700 l 1
 244 0 l 1
 113 0 l 1
 624 700 l 1
EndSplineSet
EndChar

StartChar: ampersand
Encoding: 38 38 80
Width: 729
VWidth: 0
Flags: HMW
LayerCount: 2
Fore
SplineSet
40 186 m 1
 176 197 l 1
 176 141 222 99 294 99 c 0
 412 99 522 208 606 334 c 1
 696 268 l 1
 604 136 470 -12 278 -12 c 0
 150 -12 40 62 40 186 c 1
124 548 m 1
 124 638 202 716 326 716 c 0
 448 716 518 634 518 550 c 1
 397 540 l 1
 397 578 368 609 324 609 c 0
 276 609 252 578 252 540 c 1
 124 548 l 1
223 376 m 2
 182 425 124 476 124 548 c 1
 252 540 l 1
 252 498 295 465 342 408 c 2
 712 0 l 1
 561 0 l 1
 223 376 l 2
518 550 m 1
 518 466 459 420 353 352 c 0
 281 307 176 283 176 197 c 1
 40 186 l 1
 40 342 210 385 280 419 c 0
 355 457 397 501 397 540 c 1
 518 550 l 1
EndSplineSet
EndChar

StartChar: question
Encoding: 63 63 81
Width: 606
VWidth: 0
Flags: HMW
LayerCount: 2
Fore
SplineSet
198 54 m 0
 198 94 233 128 281 128 c 0
 329 128 363 94 363 54 c 0
 363 14 329 -22 281 -22 c 0
 233 -22 198 14 198 54 c 0
208 370 m 1
 341 370 l 1
 331 192 l 1
 228 192 l 1
 208 370 l 1
419 500 m 0
 419 566 372 605 296 605 c 0
 234 605 178 572 142 518 c 1
 52 591 l 1
 116 669 187 717 306 717 c 0
 436 717 551 632 551 500 c 0
 551 359 403 282 288 282 c 1
 238 370 l 1
 358 370 419 442 419 500 c 0
EndSplineSet
EndChar

StartChar: parenleft
Encoding: 40 40 82
Width: 331
VWidth: 0
Flags: HMW
LayerCount: 2
Fore
SplineSet
194 780 m 1
 313 780 l 1
 243 630 206 460 206 290 c 0
 206 120 243 -50 313 -200 c 1
 194 -200 l 1
 114 -50 74 120 74 290 c 0
 74 460 114 630 194 780 c 1
EndSplineSet
EndChar

StartChar: parenright
Encoding: 41 41 83
Width: 331
VWidth: 0
Flags: HMW
LayerCount: 2
Fore
SplineSet
138 -200 m 1
 19 -200 l 1
 89 -50 126 120 126 290 c 0
 126 460 89 630 19 780 c 1
 138 780 l 1
 218 630 257 460 257 290 c 0
 257 120 218 -50 138 -200 c 1
EndSplineSet
EndChar

StartChar: asterisk
Encoding: 42 42 84
Width: 592
VWidth: 0
Flags: HMW
LayerCount: 2
Fore
SplineSet
490 602 m 1
 527 490 l 1
 307 444 l 1
 285 509 l 1
 490 602 l 1
476 331 m 1
 379 262 l 1
 269 456 l 1
 323 496 l 1
 476 331 l 1
213 262 m 1
 116 331 l 1
 269 496 l 1
 323 456 l 1
 213 262 l 1
65 490 m 1
 102 602 l 1
 307 509 l 1
 285 444 l 1
 65 490 l 1
236 700 m 1
 356 700 l 1
 330 476 l 1
 262 476 l 1
 236 700 l 1
EndSplineSet
EndChar

StartChar: less
Encoding: 60 60 85
Width: 640
VWidth: 0
Flags: HMW
LayerCount: 2
Fore
SplineSet
255 266 m 1
 575 132 l 1
 575 4 l 1
 65 220 l 1
 65 304 l 1
 575 520 l 1
 575 392 l 1
 255 266 l 1
EndSplineSet
EndChar

StartChar: greater
Encoding: 62 62 86
Width: 640
VWidth: 0
Flags: HMW
LayerCount: 2
Fore
SplineSet
385 258 m 1
 65 392 l 1
 65 520 l 1
 575 304 l 1
 575 220 l 1
 65 4 l 1
 65 132 l 1
 385 258 l 1
EndSplineSet
EndChar

StartChar: bracketleft
Encoding: 91 91 87
Width: 343
VWidth: 0
Flags: HMW
LayerCount: 2
Fore
SplineSet
223 665 m 1
 223 -105 l 1
 324 -105 l 1
 324 -220 l 1
 93 -220 l 1
 93 780 l 1
 324 780 l 1
 324 665 l 1
 223 665 l 1
EndSplineSet
EndChar

StartChar: bracketright
Encoding: 93 93 88
Width: 343
Flags: HMW
LayerCount: 2
Fore
SplineSet
121 -105 m 1
 121 665 l 1
 20 665 l 1
 20 780 l 1
 250 780 l 1
 250 -220 l 1
 20 -220 l 1
 20 -105 l 1
 121 -105 l 1
EndSplineSet
EndChar

StartChar: asciicircum
Encoding: 94 94 89
Width: 510
VWidth: 0
Flags: HMW
LayerCount: 2
Fore
SplineSet
255 592 m 1
 167 452 l 1
 48 452 l 1
 218 710 l 1
 292 710 l 1
 462 452 l 1
 343 452 l 1
 255 592 l 1
EndSplineSet
EndChar

StartChar: underscore
Encoding: 95 95 90
Width: 521
Flags: HMW
LayerCount: 2
Fore
SplineSet
0 -148 m 1
 0 -64 l 1
 522 -64 l 1
 522 -148 l 1
 0 -148 l 1
EndSplineSet
EndChar

StartChar: grave
Encoding: 96 96 91
Width: 375
VWidth: 0
Flags: HMW
LayerCount: 2
Fore
SplineSet
60 656 m 1
 164 704 l 1
 314 544 l 1
 240 506 l 1
 60 656 l 1
EndSplineSet
EndChar

StartChar: braceleft
Encoding: 123 123 92
Width: 372
VWidth: 0
Flags: HMW
LayerCount: 2
Fore
SplineSet
240 625 m 2
 240 490 l 2
 240 401 236 280 105 280 c 1
 105 300 l 1
 236 300 240 179 240 90 c 2
 240 -45 l 2
 240 -71 258 -95 288 -95 c 2
 322 -95 l 1
 322 -200 l 1
 241 -200 l 2
 171 -200 98 -159 98 -60 c 2
 98 132 l 2
 98 208 80 232 42 242 c 1
 42 338 l 1
 80 348 98 372 98 448 c 2
 98 640 l 2
 98 739 171 780 241 780 c 2
 322 780 l 1
 322 675 l 1
 288 675 l 2
 258 675 240 651 240 625 c 2
EndSplineSet
EndChar

StartChar: braceright
Encoding: 125 125 93
Width: 372
VWidth: 0
Flags: HMW
LayerCount: 2
Fore
SplineSet
138 -45 m 2
 138 90 l 2
 138 179 141 300 272 300 c 1
 272 280 l 1
 141 280 138 401 138 490 c 2
 138 625 l 2
 138 651 120 675 90 675 c 2
 56 675 l 1
 56 780 l 1
 136 780 l 2
 206 780 280 739 280 640 c 2
 280 448 l 2
 280 372 298 348 336 338 c 1
 336 242 l 1
 298 232 280 208 280 132 c 2
 280 -60 l 2
 280 -159 206 -200 136 -200 c 2
 56 -200 l 1
 56 -95 l 1
 90 -95 l 2
 120 -95 138 -71 138 -45 c 2
EndSplineSet
EndChar

StartChar: asciitilde
Encoding: 126 126 94
Width: 575
VWidth: 0
Flags: HMW
LayerCount: 2
Fore
SplineSet
152 168 m 1
 46 172 l 1
 44 179 43 187 43 196 c 0
 43 226 51 256 73 284 c 0
 99 318 134 340 194 340 c 0
 238 340 272 324 318 292 c 0
 348 270 372 258 390 258 c 0
 414 258 425 275 425 300 c 0
 425 310 423 322 419 332 c 1
 528 326 l 1
 530 318 532 308 532 298 c 0
 532 270 527 238 505 210 c 0
 479 176 448 158 398 158 c 0
 360 158 325 176 277 208 c 0
 247 230 218 242 193 242 c 0
 160 242 146 220 146 194 c 0
 146 182 149 176 152 168 c 1
EndSplineSet
EndChar

StartChar: exclamdown
Encoding: 161 161 95
Width: 330
VWidth: 0
Flags: HMW
LayerCount: 2
Fore
SplineSet
246 -234 m 1
 84 -234 l 1
 113 244 l 1
 217 244 l 1
 246 -234 l 1
248 410 m 0
 248 366 214 334 166 334 c 0
 118 334 83 366 83 410 c 0
 83 454 118 488 166 488 c 0
 214 488 248 454 248 410 c 0
EndSplineSet
EndChar

StartChar: cent
Encoding: 162 162 96
Width: 580
VWidth: 0
Flags: HMW
LayerCount: 2
Fore
SplineSet
249 38 m 1
 346 38 l 1
 352 -112 l 1
 243 -112 l 1
 249 38 l 1
192 230 m 0
 192 148 254 96 326 96 c 0
 392 96 442 131 468 171 c 1
 468 36 l 1
 436 6 380 -10 317 -10 c 0
 169 -10 59 86 59 230 c 0
 59 374 169 470 317 470 c 0
 380 470 436 452 468 424 c 1
 468 289 l 1
 442 329 392 364 326 364 c 0
 254 364 192 308 192 230 c 0
243 578 m 1
 352 578 l 1
 346 428 l 1
 249 428 l 1
 243 578 l 1
EndSplineSet
EndChar

StartChar: sterling
Encoding: 163 163 97
Width: 601
VWidth: 0
Flags: HMW
LayerCount: 2
Fore
SplineSet
67 370 m 1
 440 370 l 1
 440 278 l 1
 67 278 l 1
 67 370 l 1
439 470 m 1
 435 530 408 591 330 591 c 0
 278 591 232 564 232 502 c 0
 232 408 324 380 324 268 c 0
 324 162 218 70 144 50 c 1
 180 122 l 1
 532 122 l 1
 532 0 l 1
 56 0 l 1
 154 102 198 179 198 275 c 0
 198 369 94 398 94 520 c 0
 94 639 198 710 326 710 c 0
 472 710 551 599 556 515 c 1
 439 470 l 1
EndSplineSet
EndChar

StartChar: currency
Encoding: 164 164 98
Width: 577
VWidth: 0
Flags: HMW
LayerCount: 2
Fore
SplineSet
28 503 m 1
 86 562 l 1
 184 464 l 1
 126 406 l 1
 28 503 l 1
86 38 m 1
 28 97 l 1
 126 194 l 1
 184 136 l 1
 86 38 l 1
452 406 m 1
 394 464 l 1
 492 562 l 1
 550 503 l 1
 452 406 l 1
394 136 m 1
 452 194 l 1
 550 97 l 1
 492 38 l 1
 394 136 l 1
52 300 m 0
 52 439 155 540 290 540 c 0
 425 540 528 439 528 300 c 0
 528 161 425 60 290 60 c 0
 155 60 52 161 52 300 c 0
172 300 m 0
 172 228 222 179 290 179 c 0
 358 179 407 228 407 300 c 0
 407 372 358 421 290 421 c 0
 222 421 172 372 172 300 c 0
EndSplineSet
EndChar

StartChar: yen
Encoding: 165 165 99
Width: 642
VWidth: 0
Flags: HMW
LayerCount: 2
Fore
SplineSet
248 360 m 1
 396 360 l 1
 396 0 l 1
 248 0 l 1
 248 360 l 1
472 700 m 1
 636 700 l 1
 321 166 l 1
 7 700 l 1
 172 700 l 1
 321 418 l 1
 472 700 l 1
45 122 m 1
 45 215 l 1
 593 215 l 1
 593 122 l 1
 45 122 l 1
45 272 m 1
 45 365 l 1
 593 365 l 1
 593 272 l 1
 45 272 l 1
EndSplineSet
EndChar

StartChar: brokenbar
Encoding: 166 166 100
Width: 328
VWidth: 0
Flags: HMW
LayerCount: 2
Fore
SplineSet
100 695 m 1
 230 695 l 1
 230 438 l 1
 100 438 l 1
 100 695 l 1
230 262 m 1
 230 5 l 1
 100 5 l 1
 100 262 l 1
 230 262 l 1
EndSplineSet
EndChar

StartChar: section
Encoding: 167 167 101
Width: 526
VWidth: 0
Flags: HMW
LayerCount: 2
Fore
SplineSet
373 558 m 1
 347 590 300 609 268 609 c 0
 232 609 212 597 212 575 c 0
 212 546 263 533 316 515 c 0
 389 491 450 448 450 376 c 0
 450 274 356 232 250 232 c 1
 250 272 l 1
 292 276 328 310 328 350 c 0
 328 403 264 422 212 442 c 0
 152 465 87 500 87 582 c 0
 87 672 177 720 262 720 c 0
 340 720 417 684 442 640 c 1
 373 558 l 1
118 170 m 1
 156 118 215 91 259 91 c 0
 301 91 322 106 322 132 c 0
 322 168 276 182 222 200 c 0
 150 222 76 265 76 342 c 0
 76 432 167 480 281 480 c 1
 281 446 l 1
 235 430 200 410 200 369 c 0
 200 307 275 295 326 274 c 0
 391 247 453 206 453 130 c 0
 453 26 362 -18 263 -18 c 0
 161 -18 84 28 48 90 c 1
 118 170 l 1
EndSplineSet
EndChar

StartChar: dieresis
Encoding: 168 168 102
Width: 498
VWidth: 0
Flags: HMW
LayerCount: 2
Fore
SplineSet
282 640 m 0
 282 684 317 722 365 722 c 0
 413 722 448 684 448 640 c 0
 448 596 413 560 365 560 c 0
 317 560 282 596 282 640 c 0
52 640 m 0
 52 684 86 722 134 722 c 0
 182 722 216 684 216 640 c 0
 216 596 182 560 134 560 c 0
 86 560 52 596 52 640 c 0
EndSplineSet
EndChar

StartChar: copyright
Encoding: 169 169 103
Width: 800
VWidth: 0
Flags: HMW
LayerCount: 2
Fore
SplineSet
274 350 m 0
 274 266 333 214 409 214 c 0
 468 214 509 240 537 272 c 1
 537 174 l 1
 503 146 465 131 404 131 c 0
 274 131 180 222 180 350 c 0
 180 478 274 569 404 569 c 0
 465 569 503 554 537 526 c 1
 537 428 l 1
 509 460 468 486 409 486 c 0
 333 486 274 434 274 350 c 0
95 350 m 0
 95 172 227 40 400 40 c 0
 573 40 705 172 705 350 c 0
 705 528 573 660 400 660 c 0
 227 660 95 528 95 350 c 0
40 350 m 0
 40 559 196 710 400 710 c 0
 604 710 760 559 760 350 c 0
 760 141 604 -10 400 -10 c 0
 196 -10 40 141 40 350 c 0
EndSplineSet
EndChar

StartChar: registered
Encoding: 174 174 104
Width: 800
VWidth: 0
Flags: HMW
LayerCount: 2
Fore
SplineSet
368 336 m 1
 451 336 l 1
 579 150 l 1
 477 150 l 1
 368 336 l 1
260 570 m 1
 346 570 l 1
 346 150 l 1
 260 150 l 1
 260 570 l 1
312 496 m 1
 312 570 l 1
 402 570 l 2
 502 570 558 515 558 440 c 0
 558 361 502 307 402 307 c 2
 312 307 l 1
 312 375 l 1
 396 375 l 2
 441 375 470 396 470 436 c 0
 470 476 441 496 396 496 c 2
 312 496 l 1
95 350 m 0
 95 172 227 40 400 40 c 0
 573 40 705 172 705 350 c 0
 705 528 573 660 400 660 c 0
 227 660 95 528 95 350 c 0
40 350 m 0
 40 559 196 710 400 710 c 0
 604 710 760 559 760 350 c 0
 760 141 604 -10 400 -10 c 0
 196 -10 40 141 40 350 c 0
EndSplineSet
EndChar

StartChar: ordfeminine
Encoding: 170 170 105
Width: 260
VWidth: 0
Flags: HMW
LayerCount: 2
Fore
SplineSet
84 530 m 0
 84 512 96 500 122 500 c 0
 150 500 178 514 178 552 c 1
 186 525 l 1
 186 481 148 455 100 455 c 0
 54 455 18 482 18 529 c 0
 18 575 64 606 118 606 c 0
 155 606 185 591 194 581 c 1
 194 547 l 1
 176 561 157 568 130 568 c 0
 102 568 84 551 84 530 c 0
63 632 m 1
 39 678 l 1
 63 690 98 705 140 705 c 0
 199 705 240 679 240 632 c 2
 240 460 l 1
 178 460 l 1
 178 618 l 2
 178 639 161 652 136 652 c 0
 103 652 74 640 63 632 c 1
EndSplineSet
EndChar

StartChar: ordmasculine
Encoding: 186 186 106
Width: 278
VWidth: 0
Flags: HMW
LayerCount: 2
Fore
SplineSet
20 580 m 0
 20 652 72 700 146 700 c 0
 220 700 275 652 275 580 c 0
 275 508 220 460 146 460 c 0
 72 460 20 508 20 580 c 0
85 580 m 0
 85 540 112 516 146 516 c 0
 180 516 208 540 208 580 c 0
 208 620 180 645 146 645 c 0
 112 645 85 620 85 580 c 0
EndSplineSet
EndChar

StartChar: guillemotleft
Encoding: 171 171 107
Width: 531
VWidth: 0
Flags: HMW
LayerCount: 2
Fore
SplineSet
124 235 m 1
 32 255 l 1
 212 504 l 1
 294 445 l 1
 124 235 l 1
32 255 m 1
 124 285 l 1
 294 65 l 1
 212 6 l 1
 32 255 l 1
314 235 m 1
 222 255 l 1
 404 504 l 1
 484 445 l 1
 314 235 l 1
222 255 m 1
 314 285 l 1
 484 65 l 1
 404 6 l 1
 222 255 l 1
EndSplineSet
EndChar

StartChar: guillemotright
Encoding: 187 187 108
Width: 531
VWidth: 0
Flags: HMW
LayerCount: 2
Fore
SplineSet
408 275 m 1
 501 255 l 1
 319 6 l 1
 238 65 l 1
 408 275 l 1
501 255 m 1
 408 225 l 1
 238 445 l 1
 319 504 l 1
 501 255 l 1
218 275 m 1
 310 255 l 1
 128 6 l 1
 48 65 l 1
 218 275 l 1
310 255 m 1
 218 225 l 1
 48 445 l 1
 128 504 l 1
 310 255 l 1
EndSplineSet
EndChar

StartChar: uni00AD
Encoding: 173 173 109
Width: 210
VWidth: 0
Flags: HMW
LayerCount: 2
Fore
SplineSet
5 200 m 1
 5 275 l 1
 205 275 l 1
 205 200 l 1
 5 200 l 1
EndSplineSet
EndChar

StartChar: logicalnot
Encoding: 172 172 110
Width: 641
VWidth: 0
Flags: HMW
LayerCount: 2
Fore
SplineSet
65 280 m 1
 65 394 l 1
 576 394 l 1
 576 280 l 1
 65 280 l 1
480 375 m 1
 576 375 l 1
 576 175 l 1
 480 175 l 1
 480 375 l 1
EndSplineSet
EndChar

StartChar: macron
Encoding: 175 175 111
Width: 524
VWidth: 0
Flags: HMW
LayerCount: 2
Fore
SplineSet
80 580 m 1
 80 694 l 1
 446 694 l 1
 446 580 l 1
 80 580 l 1
EndSplineSet
EndChar

StartChar: degree
Encoding: 176 176 112
Width: 290
VWidth: 0
Flags: HMW
LayerCount: 2
Fore
SplineSet
18 598 m 0
 18 670 71 720 145 720 c 0
 219 720 274 670 274 598 c 0
 274 526 219 476 145 476 c 0
 71 476 18 526 18 598 c 0
82 598 m 0
 82 558 109 532 145 532 c 0
 181 532 209 558 209 598 c 0
 209 638 181 664 145 664 c 0
 109 664 82 638 82 598 c 0
EndSplineSet
EndChar

StartChar: plusminus
Encoding: 177 177 113
Width: 627
VWidth: 0
Flags: HMW
LayerCount: 2
Fore
SplineSet
65 4 m 1
 65 119 l 1
 564 119 l 1
 564 4 l 1
 65 4 l 1
65 336 m 1
 65 455 l 1
 564 455 l 1
 564 336 l 1
 65 336 l 1
248 620 m 1
 381 620 l 1
 381 172 l 1
 248 172 l 1
 248 620 l 1
EndSplineSet
EndChar

StartChar: uni00B2
Encoding: 178 178 114
Width: 389
VWidth: 0
Flags: HMW
LayerCount: 2
Fore
SplineSet
25 282 m 1
 216 482 l 2
 248 516 266 541 266 575 c 0
 266 605 246 635 204 635 c 0
 160 635 132 600 132 550 c 1
 47 550 l 1
 47 639 104 710 207 710 c 0
 307 710 356 640 356 577 c 0
 356 533 331 495 296 463 c 2
 188 362 l 1
 363 362 l 1
 363 282 l 1
 25 282 l 1
EndSplineSet
EndChar

StartChar: uni00B3
Encoding: 179 179 115
Width: 349
VWidth: 0
Flags: HMW
LayerCount: 2
Fore
SplineSet
150 485 m 1
 150 526 l 1
 198 526 230 555 230 588 c 0
 230 618 213 637 178 637 c 0
 144 637 118 614 118 582 c 1
 38 582 l 1
 38 654 94 708 178 708 c 0
 266 708 316 654 316 592 c 0
 316 524 244 485 150 485 c 1
174 271 m 0
 78 271 20 335 20 407 c 1
 106 407 l 1
 106 365 137 343 176 343 c 0
 215 343 242 363 242 402 c 0
 242 442 210 467 150 467 c 1
 150 513 l 1
 252 513 328 477 328 393 c 0
 328 321 268 271 174 271 c 0
EndSplineSet
EndChar

StartChar: acute
Encoding: 180 180 116
Width: 375
VWidth: 0
Flags: HMW
LayerCount: 2
Fore
SplineSet
314 656 m 1
 134 506 l 1
 60 544 l 1
 210 704 l 1
 314 656 l 1
EndSplineSet
EndChar

StartChar: mu
Encoding: 181 181 117
Width: 560
VWidth: 0
Flags: HMW
LayerCount: 2
Fore
SplineSet
366 0 m 1
 366 460 l 1
 496 460 l 1
 496 0 l 1
 366 0 l 1
199 180 m 2
 199 120 221 86 275 86 c 0
 329 86 366 122 366 180 c 1
 398 184 l 1
 398 75 334 -10 226 -10 c 0
 118 -10 64 52 64 166 c 2
 64 460 l 1
 199 460 l 1
 199 180 l 2
64 460 m 1
 190 460 l 1
 190 -320 l 1
 64 -320 l 1
 64 460 l 1
EndSplineSet
EndChar

StartChar: paragraph
Encoding: 182 182 118
Width: 643
VWidth: 0
Flags: HMW
LayerCount: 2
Fore
SplineSet
288 616 m 1
 288 700 l 1
 510 700 l 1
 510 616 l 1
 288 616 l 1
470 700 m 1
 584 700 l 1
 584 -220 l 1
 470 -220 l 1
 470 700 l 1
288 700 m 1
 402 700 l 1
 402 -220 l 1
 288 -220 l 1
 288 700 l 1
288 270 m 1
 163 270 60 346 60 485 c 0
 60 624 163 700 288 700 c 1
 288 270 l 1
EndSplineSet
EndChar

StartChar: periodcentered
Encoding: 183 183 119
Width: 315
VWidth: 0
Flags: HMW
LayerCount: 2
Fore
SplineSet
76 260 m 0
 76 304 110 340 158 340 c 0
 206 340 240 304 240 260 c 0
 240 216 206 178 158 178 c 0
 110 178 76 216 76 260 c 0
EndSplineSet
EndChar

StartChar: uni00B9
Encoding: 185 185 120
Width: 478
VWidth: 0
Flags: HMW
LayerCount: 2
Fore
SplineSet
138 584 m 1
 138 662 l 1
 324 702 l 1
 324 274 l 1
 240 274 l 1
 240 610 l 1
 138 584 l 1
EndSplineSet
EndChar

StartChar: cedilla
Encoding: 184 184 121
Width: 380
Flags: HMW
LayerCount: 2
Fore
SplineSet
188 68 m 1
 283 66 l 1
 189 -72 l 1
 100 -119 l 1
 188 68 l 1
318 -142 m 1
 232 -136 l 1
 232 -110 207 -102 175 -102 c 0
 165 -102 132 -103 100 -119 c 1
 158 -76 l 1
 184 -54 206 -52 232 -52 c 0
 270 -52 318 -81 318 -142 c 1
318 -142 m 1
 318 -211 253 -246 193 -246 c 0
 143 -246 108 -237 66 -207 c 1
 108 -148 l 1
 132 -166 157 -172 179 -172 c 0
 213 -172 232 -160 232 -136 c 1
 318 -142 l 1
EndSplineSet
EndChar

StartChar: questiondown
Encoding: 191 191 122
Width: 606
VWidth: 0
Flags: HMW
LayerCount: 2
Fore
SplineSet
408 646 m 0
 408 606 374 572 326 572 c 0
 278 572 243 606 243 646 c 0
 243 686 278 722 326 722 c 0
 374 722 408 686 408 646 c 0
399 330 m 1
 264 330 l 1
 274 508 l 1
 379 508 l 1
 399 330 l 1
186 200 m 0
 186 134 234 95 310 95 c 0
 372 95 428 128 464 182 c 1
 555 109 l 1
 491 31 419 -17 300 -17 c 0
 170 -17 56 68 56 200 c 0
 56 341 203 418 318 418 c 1
 368 330 l 1
 248 330 186 258 186 200 c 0
EndSplineSet
EndChar

StartChar: multiply
Encoding: 215 215 123
Width: 596
VWidth: 0
Flags: HMW
LayerCount: 2
Fore
SplineSet
134 8 m 1
 52 92 l 1
 220 255 l 1
 52 418 l 1
 134 502 l 1
 298 332 l 1
 462 502 l 1
 544 418 l 1
 376 255 l 1
 544 92 l 1
 462 8 l 1
 298 178 l 1
 134 8 l 1
EndSplineSet
EndChar

StartChar: Oslash
Encoding: 216 216 124
Width: 790
VWidth: 0
Flags: HMW
LayerCount: 2
Fore
SplineSet
188 350 m 0
 188 214 278 120 406 120 c 0
 534 120 624 214 624 350 c 0
 624 486 534 580 406 580 c 0
 278 580 188 486 188 350 c 0
36 350 m 0
 36 562 194 714 406 714 c 0
 618 714 776 562 776 350 c 0
 776 138 618 -18 406 -18 c 0
 194 -18 36 138 36 350 c 0
695 754 m 1
 762 706 l 1
 114 -54 l 1
 47 -6 l 1
 695 754 l 1
EndSplineSet
EndChar

StartChar: Thorn
Encoding: 222 222 125
Width: 593
VWidth: 0
Flags: HMW
LayerCount: 2
Fore
SplineSet
298 132 m 1
 298 248 l 1
 379 248 430 280 430 352 c 0
 430 424 379 456 298 456 c 1
 298 574 l 1
 463 574 560 490 560 352 c 0
 560 214 463 132 298 132 c 1
160 132 m 1
 160 248 l 1
 298 248 l 1
 298 132 l 1
 160 132 l 1
160 456 m 1
 160 574 l 1
 298 574 l 1
 298 456 l 1
 160 456 l 1
80 700 m 1
 209 700 l 1
 209 0 l 1
 80 0 l 1
 80 700 l 1
EndSplineSet
EndChar

StartChar: divide
Encoding: 247 247 126
Width: 634
Flags: HMW
LayerCount: 2
Fore
SplineSet
234 522 m 0
 234 566 269 604 317 604 c 0
 365 604 399 566 399 522 c 0
 399 478 365 440 317 440 c 0
 269 440 234 478 234 522 c 0
234 90 m 0
 234 134 269 170 317 170 c 0
 365 170 399 134 399 90 c 0
 399 46 365 8 317 8 c 0
 269 8 234 46 234 90 c 0
36 250 m 1
 36 368 l 1
 597 368 l 1
 597 250 l 1
 36 250 l 1
EndSplineSet
EndChar

StartChar: oslash
Encoding: 248 248 127
Width: 546
VWidth: 0
Flags: HMW
LayerCount: 2
Fore
SplineSet
33 230 m 0
 33 378 144 470 288 470 c 0
 432 470 544 378 544 230 c 0
 544 82 432 -10 288 -10 c 0
 144 -10 33 82 33 230 c 0
158 230 m 0
 158 148 216 95 288 95 c 0
 360 95 419 148 419 230 c 0
 419 308 360 365 288 365 c 0
 216 365 158 308 158 230 c 0
451 504 m 1
 504 476 l 1
 114 -48 l 1
 61 -20 l 1
 451 504 l 1
EndSplineSet
EndChar

StartChar: circumflex
Encoding: 710 710 128
Width: 480
VWidth: 0
Flags: HMW
LayerCount: 2
Fore
SplineSet
240 634 m 1
 144 546 l 1
 54 608 l 1
 240 748 l 1
 426 608 l 1
 336 546 l 1
 240 634 l 1
EndSplineSet
EndChar

StartChar: ogonek
Encoding: 731 731 129
Width: 260
VWidth: 0
Flags: HMW
LayerCount: 2
Fore
SplineSet
194 -116 m 1
 227 -180 l 1
 212 -200 182 -220 130 -220 c 0
 60 -220 12 -184 12 -120 c 1
 104 -96 l 1
 104 -124 118 -136 144 -136 c 0
 166 -136 180 -129 194 -116 c 1
104 -96 m 1
 12 -120 l 1
 12 -56 78 -11 148 25 c 1
 189 0 l 1
 137 -26 104 -64 104 -96 c 1
EndSplineSet
EndChar

StartChar: tilde
Encoding: 732 732 130
Width: 530
VWidth: 0
Flags: HMW
LayerCount: 2
Fore
SplineSet
82 634 m 1
 92 683 139 724 197 724 c 0
 263 724 274 674 330 674 c 0
 354 674 372 694 392 726 c 1
 456 660 l 1
 440 623 389 578 331 578 c 0
 276 578 244 630 196 630 c 0
 157 630 148 595 148 580 c 1
 82 634 l 1
EndSplineSet
EndChar

StartChar: ring
Encoding: 730 730 131
Width: 313
VWidth: 0
Flags: HMW
LayerCount: 2
Fore
SplineSet
38 774 m 0
 38 840 92 885 156 885 c 0
 220 885 274 840 274 774 c 0
 274 708 220 663 156 663 c 0
 92 663 38 708 38 774 c 0
109 774 m 0
 109 743 131 725 156 725 c 0
 181 725 204 743 204 774 c 0
 204 805 181 824 156 824 c 0
 131 824 109 805 109 774 c 0
EndSplineSet
EndChar

StartChar: dotaccent
Encoding: 729 729 132
Width: 300
VWidth: 0
Flags: HMW
LayerCount: 2
Fore
SplineSet
72 808 m 0
 72 850 106 882 150 882 c 0
 194 882 228 850 228 808 c 0
 228 766 194 734 150 734 c 0
 106 734 72 766 72 808 c 0
EndSplineSet
EndChar

StartChar: uni2010
Encoding: 8208 8208 133
Width: 218
VWidth: 0
Flags: HMW
LayerCount: 2
Fore
SplineSet
5 180 m 1
 5 294 l 1
 214 294 l 1
 214 180 l 1
 5 180 l 1
EndSplineSet
EndChar

StartChar: endash
Encoding: 8211 8211 134
Width: 770
VWidth: 0
Flags: HMW
LayerCount: 2
Fore
SplineSet
70 180 m 1
 70 294 l 1
 696 294 l 1
 696 180 l 1
 70 180 l 1
EndSplineSet
EndChar

StartChar: figuredash
Encoding: 8210 8210 135
Width: 616
VWidth: 0
Flags: HMW
LayerCount: 2
Fore
SplineSet
70 180 m 1
 70 294 l 1
 540 294 l 1
 540 180 l 1
 70 180 l 1
EndSplineSet
EndChar

StartChar: emdash
Encoding: 8212 8212 136
Width: 925
VWidth: 0
Flags: HMW
LayerCount: 2
Fore
SplineSet
70 180 m 1
 70 294 l 1
 853 294 l 1
 853 180 l 1
 70 180 l 1
EndSplineSet
EndChar

StartChar: minus
Encoding: 8722 8722 137
Width: 592
VWidth: 0
Flags: HMW
LayerCount: 2
Fore
SplineSet
62 180 m 1
 62 294 l 1
 531 294 l 1
 531 180 l 1
 62 180 l 1
EndSplineSet
EndChar

StartChar: quoteright
Encoding: 8217 8217 138
Width: 314
VWidth: 0
Flags: HMW
LayerCount: 2
Fore
SplineSet
106 700 m 1
 245 700 l 1
 142 452 l 1
 50 452 l 1
 106 700 l 1
EndSplineSet
EndChar

StartChar: quoteleft
Encoding: 8216 8216 139
Width: 314
VWidth: 0
Flags: HMW
LayerCount: 2
Fore
SplineSet
209 452 m 1
 70 452 l 1
 172 700 l 1
 265 700 l 1
 209 452 l 1
EndSplineSet
EndChar

StartChar: quotesinglbase
Encoding: 8218 8218 140
Width: 314
VWidth: 0
Flags: HMW
LayerCount: 2
Fore
SplineSet
116 80 m 1
 255 80 l 1
 152 -168 l 1
 60 -168 l 1
 116 80 l 1
EndSplineSet
EndChar

StartChar: quotedblleft
Encoding: 8220 8220 141
Width: 536
VWidth: 0
Flags: HMW
LayerCount: 2
Fore
SplineSet
209 452 m 1
 70 452 l 1
 172 700 l 1
 265 700 l 1
 209 452 l 1
430 452 m 1
 292 452 l 1
 394 700 l 1
 486 700 l 1
 430 452 l 1
EndSplineSet
EndChar

StartChar: quotedblright
Encoding: 8221 8221 142
Width: 536
VWidth: 0
Flags: HMW
LayerCount: 2
Fore
SplineSet
106 700 m 1
 245 700 l 1
 142 452 l 1
 50 452 l 1
 106 700 l 1
328 700 m 1
 466 700 l 1
 364 452 l 1
 272 452 l 1
 328 700 l 1
EndSplineSet
EndChar

StartChar: perthousand
Encoding: 8240 8240 143
Width: 1301
VWidth: 0
Flags: HMW
LayerCount: 2
Fore
SplineSet
916 161 m 0
 916 259 992 338 1096 338 c 0
 1200 338 1275 259 1275 161 c 0
 1275 63 1200 -16 1096 -16 c 0
 992 -16 916 63 916 161 c 0
1024 161 m 0
 1024 121 1053 86 1096 86 c 0
 1139 86 1167 121 1167 161 c 0
 1167 201 1139 236 1096 236 c 0
 1053 236 1024 201 1024 161 c 0
26 539 m 0
 26 637 102 717 206 717 c 0
 310 717 386 637 386 539 c 0
 386 441 310 362 206 362 c 0
 102 362 26 441 26 539 c 0
134 539 m 0
 134 499 163 464 206 464 c 0
 249 464 277 499 277 539 c 0
 277 579 249 614 206 614 c 0
 163 614 134 579 134 539 c 0
484 161 m 0
 484 259 559 338 663 338 c 0
 767 338 842 259 842 161 c 0
 842 63 767 -16 663 -16 c 0
 559 -16 484 63 484 161 c 0
592 161 m 0
 592 121 620 86 663 86 c 0
 706 86 734 121 734 161 c 0
 734 201 706 236 663 236 c 0
 620 236 592 201 592 161 c 0
624 700 m 1
 756 700 l 1
 244 0 l 1
 113 0 l 1
 624 700 l 1
EndSplineSet
EndChar

StartChar: guilsinglleft
Encoding: 8249 8249 144
Width: 350
VWidth: 0
Flags: HMW
LayerCount: 2
Fore
SplineSet
124 235 m 1
 32 255 l 1
 212 504 l 1
 294 445 l 1
 124 235 l 1
32 255 m 1
 124 285 l 1
 294 65 l 1
 212 6 l 1
 32 255 l 1
EndSplineSet
EndChar

StartChar: guilsinglright
Encoding: 8250 8250 145
Width: 350
VWidth: 0
Flags: HMW
LayerCount: 2
Fore
SplineSet
226 275 m 1
 318 255 l 1
 138 6 l 1
 56 65 l 1
 226 275 l 1
318 255 m 1
 226 225 l 1
 56 445 l 1
 138 504 l 1
 318 255 l 1
EndSplineSet
EndChar

StartChar: uni2031
Encoding: 8241 8241 146
Width: 1733
VWidth: 0
Flags: HMW
LayerCount: 2
Fore
SplineSet
1348 161 m 0
 1348 259 1424 338 1528 338 c 0
 1632 338 1708 259 1708 161 c 0
 1708 63 1632 -16 1528 -16 c 0
 1424 -16 1348 63 1348 161 c 0
1457 161 m 0
 1457 121 1485 86 1528 86 c 0
 1571 86 1599 121 1599 161 c 0
 1599 201 1571 236 1528 236 c 0
 1485 236 1457 201 1457 161 c 0
916 161 m 0
 916 259 992 338 1096 338 c 0
 1200 338 1275 259 1275 161 c 0
 1275 63 1200 -16 1096 -16 c 0
 992 -16 916 63 916 161 c 0
1024 161 m 0
 1024 121 1053 86 1096 86 c 0
 1139 86 1167 121 1167 161 c 0
 1167 201 1139 236 1096 236 c 0
 1053 236 1024 201 1024 161 c 0
26 539 m 0
 26 637 102 717 206 717 c 0
 310 717 386 637 386 539 c 0
 386 441 310 362 206 362 c 0
 102 362 26 441 26 539 c 0
134 539 m 0
 134 499 163 464 206 464 c 0
 249 464 277 499 277 539 c 0
 277 579 249 614 206 614 c 0
 163 614 134 579 134 539 c 0
484 161 m 0
 484 259 559 338 663 338 c 0
 767 338 842 259 842 161 c 0
 842 63 767 -16 663 -16 c 0
 559 -16 484 63 484 161 c 0
592 161 m 0
 592 121 620 86 663 86 c 0
 706 86 734 121 734 161 c 0
 734 201 706 236 663 236 c 0
 620 236 592 201 592 161 c 0
624 700 m 1
 756 700 l 1
 244 0 l 1
 113 0 l 1
 624 700 l 1
EndSplineSet
EndChar

StartChar: uni203D
Encoding: 8253 8253 147
Width: 606
VWidth: 0
Flags: HMW
LayerCount: 2
Fore
SplineSet
428 486 m 0
 428 564 374 605 291 605 c 0
 229 605 173 576 142 518 c 1
 52 591 l 1
 98 661 181 716 305 716 c 0
 435 716 551 632 551 500 c 0
 551 359 403 282 288 282 c 1
 260 347 l 1
 354 347 428 410 428 486 c 0
211 506 m 1
 342 506 l 1
 317 192 l 1
 236 192 l 1
 211 506 l 1
197 56 m 0
 197 100 233 132 281 132 c 0
 329 132 364 100 364 56 c 0
 364 12 329 -22 281 -22 c 0
 233 -22 197 12 197 56 c 0
EndSplineSet
EndChar

StartChar: Euro
Encoding: 8364 8364 148
Width: 632
VWidth: 0
Flags: HMW
LayerCount: 2
Fore
SplineSet
42 390 m 1
 42 462 l 1
 537 462 l 1
 537 390 l 1
 42 390 l 1
32 261 m 1
 32 334 l 1
 515 334 l 1
 515 261 l 1
 32 261 l 1
220 350 m 0
 220 196 295 105 401 105 c 0
 458 105 510 127 551 167 c 1
 551 24 l 1
 506 -2 455 -17 401 -17 c 0
 213 -17 92 141 92 350 c 0
 92 559 213 717 401 717 c 0
 455 717 506 702 551 676 c 1
 551 533 l 1
 510 573 458 595 401 595 c 0
 295 595 220 504 220 350 c 0
EndSplineSet
EndChar

StartChar: fraction
Encoding: 8260 8260 149
Width: 722
VWidth: 0
Flags: HMW
LayerCount: 2
Fore
SplineSet
580 700 m 1
 685 700 l 1
 165 0 l 1
 60 0 l 1
 580 700 l 1
EndSplineSet
EndChar

StartChar: onequarter
Encoding: 188 188 150
Width: 801
VWidth: 0
Flags: HMW
LayerCount: 2
Fore
SplineSet
626 700 m 1
 713 700 l 1
 193 0 l 1
 106 0 l 1
 626 700 l 1
26 584 m 1
 26 662 l 1
 210 702 l 1
 210 274 l 1
 126 274 l 1
 126 610 l 1
 26 584 l 1
404 77 m 1
 475 142 l 1
 660 142 l 0
 670 152 l 0
 770 152 l 1
 770 77 l 1
 404 77 l 1
492 98 m 1
 404 77 l 1
 645 420 l 25
 704 420 l 1
 704 0 l 1
 615 0 l 1
 615 99 l 0
 623 105 l 0
 623 284 l 1
 492 98 l 1
EndSplineSet
EndChar

StartChar: onehalf
Encoding: 189 189 151
Width: 871
VWidth: 0
Flags: HMW
LayerCount: 2
Fore
SplineSet
626 700 m 1
 713 700 l 1
 193 0 l 1
 106 0 l 1
 626 700 l 1
26 584 m 1
 26 662 l 1
 210 702 l 1
 210 274 l 1
 126 274 l 1
 126 610 l 1
 26 584 l 1
502 2 m 1
 692 202 l 2
 724 236 744 261 744 295 c 0
 744 325 724 355 682 355 c 0
 638 355 608 320 608 270 c 1
 523 270 l 1
 523 359 581 430 684 430 c 0
 784 430 832 360 832 297 c 0
 832 253 808 215 773 183 c 2
 665 82 l 1
 840 82 l 1
 840 2 l 1
 502 2 l 1
EndSplineSet
EndChar

StartChar: threequarters
Encoding: 190 190 152
Width: 861
VWidth: 0
Flags: HMW
LayerCount: 2
Fore
SplineSet
692 700 m 1
 778 700 l 1
 258 0 l 1
 172 0 l 1
 692 700 l 1
157 485 m 1
 157 526 l 1
 205 526 237 555 237 588 c 0
 237 618 219 637 184 637 c 0
 150 637 126 614 126 582 c 1
 45 582 l 1
 45 654 100 708 184 708 c 0
 272 708 323 654 323 592 c 0
 323 524 251 485 157 485 c 1
181 271 m 0
 85 271 27 335 27 407 c 1
 113 407 l 1
 113 365 145 343 184 343 c 0
 223 343 249 363 249 402 c 0
 249 442 217 467 157 467 c 1
 157 513 l 1
 259 513 335 477 335 393 c 0
 335 321 275 271 181 271 c 0
464 77 m 1
 536 142 l 1
 720 142 l 0
 730 152 l 0
 830 152 l 1
 830 77 l 1
 464 77 l 1
552 98 m 1
 464 77 l 1
 705 420 l 25
 764 420 l 1
 764 0 l 1
 675 0 l 1
 675 99 l 0
 684 105 l 0
 684 284 l 1
 552 98 l 1
EndSplineSet
EndChar

StartChar: uni2150
Encoding: 8528 8528 153
Width: 912
VWidth: 0
Flags: HMW
LayerCount: 2
Fore
SplineSet
594 700 m 1
 698 700 l 1
 178 0 l 1
 74 0 l 1
 594 700 l 1
26 584 m 1
 26 662 l 1
 210 702 l 1
 210 274 l 1
 126 274 l 1
 126 610 l 1
 26 584 l 1
560 339 m 1
 560 420 l 1
 888 420 l 1
 686 0 l 1
 593 0 l 1
 760 339 l 1
 560 339 l 1
EndSplineSet
EndChar

StartChar: uni2151
Encoding: 8529 8529 154
Width: 854
VWidth: 0
Flags: HMW
LayerCount: 2
Fore
SplineSet
590 700 m 1
 694 700 l 1
 174 0 l 1
 70 0 l 1
 590 700 l 1
26 584 m 1
 26 662 l 1
 210 702 l 1
 210 274 l 1
 126 274 l 1
 126 610 l 1
 26 584 l 1
747 277 m 0
 747 325 714 356 670 356 c 0
 626 356 592 325 592 277 c 0
 592 229 626 198 670 198 c 0
 714 198 747 229 747 277 c 0
664 4 m 1
 554 4 l 1
 688 162 l 1
 704 166 l 1
 684 144 665 141 636 141 c 0
 572 141 508 195 508 277 c 0
 508 375 580 431 670 431 c 0
 760 431 833 375 833 277 c 0
 833 235 814 200 790 170 c 2
 664 4 l 1
EndSplineSet
EndChar

StartChar: uni2152
Encoding: 8530 8530 155
Width: 1171
VWidth: 0
Flags: HMW
LayerCount: 2
Fore
SplineSet
590 700 m 1
 694 700 l 1
 174 0 l 1
 70 0 l 1
 590 700 l 1
26 584 m 1
 26 662 l 1
 210 702 l 1
 210 274 l 1
 126 274 l 1
 126 610 l 1
 26 584 l 1
532 310 m 1
 532 389 l 1
 716 428 l 1
 716 1 l 1
 632 1 l 1
 632 338 l 1
 532 310 l 1
885 210 m 0
 885 126 919 68 971 68 c 0
 1023 68 1056 126 1056 210 c 0
 1056 294 1023 352 971 352 c 0
 919 352 885 294 885 210 c 0
801 210 m 0
 801 343 871 428 971 428 c 0
 1073 428 1140 343 1140 210 c 0
 1140 77 1073 -8 971 -8 c 0
 871 -8 801 77 801 210 c 0
EndSplineSet
EndChar

StartChar: onethird
Encoding: 8531 8531 156
Width: 837
VWidth: 0
Flags: HMW
LayerCount: 2
Fore
SplineSet
589 700 m 1
 694 700 l 1
 174 0 l 1
 69 0 l 1
 589 700 l 1
26 584 m 1
 26 662 l 1
 210 702 l 1
 210 274 l 1
 126 274 l 1
 126 610 l 1
 26 584 l 1
635 205 m 1
 635 246 l 1
 683 246 714 275 714 308 c 0
 714 338 697 357 662 357 c 0
 628 357 603 334 603 302 c 1
 522 302 l 1
 522 374 579 428 663 428 c 0
 751 428 800 374 800 312 c 0
 800 244 729 205 635 205 c 1
658 -9 m 0
 562 -9 504 55 504 127 c 1
 590 127 l 1
 590 85 622 63 661 63 c 0
 700 63 726 83 726 122 c 0
 726 162 695 187 635 187 c 1
 635 233 l 1
 737 233 812 197 812 113 c 0
 812 41 752 -9 658 -9 c 0
EndSplineSet
EndChar

StartChar: twothirds
Encoding: 8532 8532 157
Width: 969
VWidth: 0
Flags: HMW
LayerCount: 2
Fore
SplineSet
730 700 m 1
 834 700 l 1
 314 0 l 1
 210 0 l 1
 730 700 l 1
30 282 m 1
 221 482 l 2
 253 516 272 541 272 575 c 0
 272 605 252 635 210 635 c 0
 166 635 136 600 136 550 c 1
 51 550 l 1
 51 639 109 710 212 710 c 0
 312 710 360 640 360 577 c 0
 360 533 337 495 302 463 c 2
 193 362 l 1
 368 362 l 1
 368 282 l 1
 30 282 l 1
766 205 m 1
 766 246 l 1
 814 246 846 275 846 308 c 0
 846 338 829 357 794 357 c 0
 760 357 734 334 734 302 c 1
 654 302 l 1
 654 374 710 428 794 428 c 0
 882 428 932 374 932 312 c 0
 932 244 860 205 766 205 c 1
790 -9 m 0
 694 -9 636 55 636 127 c 1
 722 127 l 1
 722 85 753 63 792 63 c 0
 831 63 858 83 858 122 c 0
 858 162 826 187 766 187 c 1
 766 233 l 1
 868 233 944 197 944 113 c 0
 944 41 884 -9 790 -9 c 0
EndSplineSet
EndChar

StartChar: uni2155
Encoding: 8533 8533 158
Width: 826
VWidth: 0
Flags: HMW
LayerCount: 2
Fore
SplineSet
590 700 m 1
 694 700 l 1
 174 0 l 1
 70 0 l 1
 590 700 l 1
26 584 m 1
 26 662 l 1
 210 702 l 1
 210 274 l 1
 126 274 l 1
 126 610 l 1
 26 584 l 1
802 133 m 0
 802 36 720 -10 639 -10 c 0
 562 -10 513 21 477 55 c 1
 518 124 l 1
 548 94 588 70 624 70 c 0
 677 70 708 96 708 142 c 0
 708 188 669 211 624 211 c 0
 590 211 552 204 509 180 c 1
 567 228 l 1
 598 261 635 272 675 272 c 0
 743 272 802 218 802 133 c 0
630 343 m 1
 596 232 l 1
 509 180 l 1
 566 418 l 1
 796 418 l 1
 796 343 l 1
 630 343 l 1
EndSplineSet
EndChar

StartChar: uni2156
Encoding: 8534 8534 159
Width: 964
VWidth: 0
Flags: HMW
LayerCount: 2
Fore
SplineSet
730 700 m 1
 834 700 l 1
 314 0 l 1
 210 0 l 1
 730 700 l 1
30 282 m 1
 221 482 l 2
 253 516 272 541 272 575 c 0
 272 605 252 635 210 635 c 0
 166 635 136 600 136 550 c 1
 51 550 l 1
 51 639 109 710 212 710 c 0
 312 710 360 640 360 577 c 0
 360 533 337 495 302 463 c 2
 193 362 l 1
 368 362 l 1
 368 282 l 1
 30 282 l 1
934 133 m 0
 934 36 852 -10 771 -10 c 0
 694 -10 644 21 608 55 c 1
 649 124 l 1
 679 94 719 70 755 70 c 0
 808 70 840 96 840 142 c 0
 840 188 800 211 755 211 c 0
 721 211 684 204 641 180 c 1
 699 228 l 1
 730 261 767 272 807 272 c 0
 875 272 934 218 934 133 c 0
762 343 m 1
 728 232 l 1
 641 180 l 1
 698 418 l 1
 927 418 l 1
 927 343 l 1
 762 343 l 1
EndSplineSet
EndChar

StartChar: uni2157
Encoding: 8535 8535 160
Width: 901
VWidth: 0
Flags: HMW
LayerCount: 2
Fore
SplineSet
668 700 m 1
 772 700 l 1
 252 0 l 1
 148 0 l 1
 668 700 l 1
155 485 m 1
 155 526 l 1
 203 526 234 555 234 588 c 0
 234 618 217 637 182 637 c 0
 148 637 123 614 123 582 c 1
 42 582 l 1
 42 654 99 708 183 708 c 0
 271 708 322 654 322 592 c 0
 322 524 249 485 155 485 c 1
178 271 m 0
 82 271 24 335 24 407 c 1
 110 407 l 1
 110 365 142 343 181 343 c 0
 220 343 246 363 246 402 c 0
 246 442 215 467 155 467 c 1
 155 513 l 1
 257 513 334 477 334 393 c 0
 334 321 272 271 178 271 c 0
868 133 m 0
 868 36 785 -10 704 -10 c 0
 627 -10 578 21 542 55 c 1
 583 124 l 1
 613 94 653 70 689 70 c 0
 742 70 774 96 774 142 c 0
 774 188 734 211 689 211 c 0
 655 211 617 204 574 180 c 1
 632 228 l 1
 663 261 700 272 740 272 c 0
 808 272 868 218 868 133 c 0
695 343 m 1
 662 232 l 1
 574 180 l 1
 632 418 l 1
 861 418 l 1
 861 343 l 1
 695 343 l 1
EndSplineSet
EndChar

StartChar: uni2158
Encoding: 8536 8536 161
Width: 971
VWidth: 0
Flags: HMW
LayerCount: 2
Fore
SplineSet
721 700 m 1
 825 700 l 1
 305 0 l 1
 201 0 l 1
 721 700 l 1
24 357 m 1
 95 422 l 1
 280 422 l 0
 290 432 l 0
 390 432 l 1
 390 357 l 1
 24 357 l 1
112 378 m 1
 24 357 l 1
 265 700 l 25
 324 700 l 1
 324 280 l 1
 235 280 l 1
 235 379 l 0
 244 385 l 0
 244 564 l 1
 112 378 l 1
941 133 m 0
 941 36 859 -10 778 -10 c 0
 701 -10 653 21 617 55 c 1
 656 122 l 1
 686 92 726 70 762 70 c 0
 815 70 848 95 848 141 c 0
 848 187 807 211 762 211 c 0
 728 211 691 204 648 180 c 1
 707 228 l 1
 738 261 774 272 814 272 c 0
 882 272 941 218 941 133 c 0
770 343 m 1
 736 232 l 1
 648 180 l 1
 706 418 l 1
 935 418 l 1
 935 343 l 1
 770 343 l 1
EndSplineSet
EndChar

StartChar: uni2159
Encoding: 8537 8537 162
Width: 830
VWidth: 0
Flags: HMW
LayerCount: 2
Fore
SplineSet
603 700 m 1
 708 700 l 1
 188 0 l 1
 83 0 l 1
 603 700 l 1
26 584 m 1
 26 662 l 1
 210 702 l 1
 210 274 l 1
 126 274 l 1
 126 610 l 1
 26 584 l 1
563 143 m 0
 563 95 596 64 640 64 c 0
 684 64 718 95 718 143 c 0
 718 191 684 222 640 222 c 0
 596 222 563 191 563 143 c 0
648 416 m 1
 757 416 l 1
 622 258 l 1
 608 254 l 1
 628 276 647 279 676 279 c 0
 740 279 804 225 804 143 c 0
 804 45 730 -11 640 -11 c 0
 550 -11 478 45 478 143 c 0
 478 185 496 220 520 250 c 2
 648 416 l 1
EndSplineSet
EndChar

StartChar: uni215A
Encoding: 8538 8538 163
Width: 908
VWidth: 0
Flags: HMW
LayerCount: 2
Fore
SplineSet
694 700 m 1
 799 700 l 1
 279 0 l 1
 174 0 l 1
 694 700 l 1
354 413 m 0
 354 316 273 270 192 270 c 0
 115 270 66 301 30 335 c 1
 71 404 l 1
 101 374 141 350 177 350 c 0
 230 350 261 376 261 422 c 0
 261 468 222 491 177 491 c 0
 143 491 105 484 62 460 c 1
 120 508 l 1
 151 541 188 552 228 552 c 0
 296 552 354 498 354 413 c 0
183 623 m 1
 150 512 l 1
 62 460 l 1
 119 698 l 1
 348 698 l 1
 348 623 l 1
 183 623 l 1
642 143 m 0
 642 95 675 64 719 64 c 0
 763 64 796 95 796 143 c 0
 796 191 763 222 719 222 c 0
 675 222 642 191 642 143 c 0
726 416 m 1
 836 416 l 1
 701 258 l 1
 686 254 l 1
 706 276 725 279 754 279 c 0
 818 279 882 225 882 143 c 0
 882 45 809 -11 719 -11 c 0
 629 -11 556 45 556 143 c 0
 556 185 575 220 599 250 c 2
 726 416 l 1
EndSplineSet
EndChar

StartChar: oneeighth
Encoding: 8539 8539 164
Width: 851
VWidth: 0
Flags: HMW
LayerCount: 2
Fore
SplineSet
603 700 m 1
 708 700 l 1
 188 0 l 1
 83 0 l 1
 603 700 l 1
26 584 m 1
 26 662 l 1
 210 702 l 1
 210 274 l 1
 126 274 l 1
 126 610 l 1
 26 584 l 1
538 319 m 0
 538 386 598 429 672 429 c 0
 746 429 806 386 806 319 c 0
 806 246 741 208 672 208 c 0
 603 208 538 246 538 319 c 0
620 311 m 0
 620 279 643 256 672 256 c 0
 701 256 725 279 725 311 c 0
 725 343 703 364 672 364 c 0
 641 364 620 343 620 311 c 0
522 114 m 0
 522 199 603 237 672 237 c 0
 741 237 821 199 821 114 c 0
 821 41 752 -9 672 -9 c 0
 592 -9 522 41 522 114 c 0
608 127 m 0
 608 85 638 62 672 62 c 0
 706 62 736 85 736 127 c 0
 736 163 706 189 672 189 c 0
 638 189 608 163 608 127 c 0
EndSplineSet
EndChar

StartChar: threeeighths
Encoding: 8540 8540 165
Width: 921
VWidth: 0
Flags: HMW
LayerCount: 2
Fore
SplineSet
672 700 m 1
 776 700 l 1
 256 0 l 1
 152 0 l 1
 672 700 l 1
155 485 m 1
 155 526 l 1
 203 526 234 555 234 588 c 0
 234 618 217 637 182 637 c 0
 148 637 123 614 123 582 c 1
 42 582 l 1
 42 654 99 708 183 708 c 0
 271 708 322 654 322 592 c 0
 322 524 249 485 155 485 c 1
178 271 m 0
 82 271 24 335 24 407 c 1
 110 407 l 1
 110 365 142 343 181 343 c 0
 220 343 246 363 246 402 c 0
 246 442 215 467 155 467 c 1
 155 513 l 1
 257 513 334 477 334 393 c 0
 334 321 272 271 178 271 c 0
607 319 m 0
 607 386 668 429 742 429 c 0
 816 429 876 386 876 319 c 0
 876 246 811 208 742 208 c 0
 673 208 607 246 607 319 c 0
689 311 m 0
 689 279 713 256 742 256 c 0
 771 256 794 279 794 311 c 0
 794 343 773 364 742 364 c 0
 711 364 689 343 689 311 c 0
592 114 m 0
 592 199 673 237 742 237 c 0
 811 237 890 199 890 114 c 0
 890 41 822 -9 742 -9 c 0
 662 -9 592 41 592 114 c 0
678 127 m 0
 678 85 708 62 742 62 c 0
 776 62 805 85 805 127 c 0
 805 163 776 189 742 189 c 0
 708 189 678 163 678 127 c 0
EndSplineSet
EndChar

StartChar: fiveeighths
Encoding: 8541 8541 166
Width: 943
VWidth: 0
Flags: HMW
LayerCount: 2
Fore
SplineSet
694 700 m 1
 799 700 l 1
 279 0 l 1
 174 0 l 1
 694 700 l 1
350 413 m 0
 350 316 269 270 188 270 c 0
 111 270 62 301 26 335 c 1
 66 404 l 1
 96 374 136 350 172 350 c 0
 225 350 257 376 257 422 c 0
 257 468 217 491 172 491 c 0
 138 491 101 484 58 460 c 1
 116 508 l 1
 147 541 184 552 224 552 c 0
 292 552 350 498 350 413 c 0
178 623 m 1
 146 512 l 1
 58 460 l 1
 115 698 l 1
 344 698 l 1
 344 623 l 1
 178 623 l 1
630 319 m 0
 630 386 690 429 764 429 c 0
 838 429 898 386 898 319 c 0
 898 246 833 208 764 208 c 0
 695 208 630 246 630 319 c 0
710 311 m 0
 710 279 735 256 764 256 c 0
 793 256 816 279 816 311 c 0
 816 343 795 364 764 364 c 0
 733 364 710 343 710 311 c 0
614 114 m 0
 614 199 695 237 764 237 c 0
 833 237 913 199 913 114 c 0
 913 41 844 -9 764 -9 c 0
 684 -9 614 41 614 114 c 0
700 127 m 0
 700 85 730 62 764 62 c 0
 798 62 828 85 828 127 c 0
 828 163 798 189 764 189 c 0
 730 189 700 163 700 127 c 0
EndSplineSet
EndChar

StartChar: seveneighths
Encoding: 8542 8542 167
Width: 833
VWidth: 0
Flags: HMW
LayerCount: 2
Fore
SplineSet
580 700 m 1
 685 700 l 1
 165 0 l 1
 60 0 l 1
 580 700 l 1
25 619 m 1
 25 700 l 1
 354 700 l 1
 151 280 l 1
 59 280 l 1
 226 619 l 1
 25 619 l 1
520 319 m 0
 520 386 580 429 654 429 c 0
 728 429 788 386 788 319 c 0
 788 246 723 208 654 208 c 0
 585 208 520 246 520 319 c 0
600 311 m 0
 600 279 625 256 654 256 c 0
 683 256 706 279 706 311 c 0
 706 343 685 364 654 364 c 0
 623 364 600 343 600 311 c 0
504 114 m 0
 504 199 585 237 654 237 c 0
 723 237 803 199 803 114 c 0
 803 41 734 -9 654 -9 c 0
 574 -9 504 41 504 114 c 0
590 127 m 0
 590 85 620 62 654 62 c 0
 688 62 718 85 718 127 c 0
 718 163 688 189 654 189 c 0
 620 189 590 163 590 127 c 0
EndSplineSet
EndChar

StartChar: uni2074
Encoding: 8308 8308 168
Width: 414
VWidth: 0
Flags: HMW
LayerCount: 2
Fore
SplineSet
20 357 m 1
 91 422 l 1
 275 422 l 0
 285 432 l 0
 386 432 l 1
 386 357 l 1
 20 357 l 1
108 378 m 1
 20 357 l 1
 261 700 l 25
 320 700 l 1
 320 280 l 1
 231 280 l 1
 231 379 l 0
 238 385 l 0
 238 564 l 1
 108 378 l 1
EndSplineSet
EndChar

StartChar: uni2075
Encoding: 8309 8309 169
Width: 377
VWidth: 0
Flags: HMW
LayerCount: 2
Fore
SplineSet
350 413 m 0
 350 316 269 270 188 270 c 0
 111 270 62 301 26 335 c 1
 66 404 l 1
 96 374 136 350 172 350 c 0
 225 350 257 376 257 422 c 0
 257 468 217 491 172 491 c 0
 138 491 101 484 58 460 c 1
 116 508 l 1
 147 541 184 552 224 552 c 0
 292 552 350 498 350 413 c 0
178 623 m 1
 146 512 l 1
 58 460 l 1
 115 698 l 1
 344 698 l 1
 344 623 l 1
 178 623 l 1
EndSplineSet
EndChar

StartChar: uni2076
Encoding: 8310 8310 170
Width: 372
VWidth: 0
Flags: HMW
LayerCount: 2
Fore
SplineSet
111 423 m 0
 111 375 146 344 190 344 c 0
 234 344 266 375 266 423 c 0
 266 471 234 502 190 502 c 0
 146 502 111 471 111 423 c 0
196 696 m 1
 306 696 l 1
 170 538 l 1
 155 534 l 1
 175 556 194 559 223 559 c 0
 287 559 352 505 352 423 c 0
 352 325 280 269 190 269 c 0
 100 269 26 325 26 423 c 0
 26 465 44 500 68 530 c 2
 196 696 l 1
EndSplineSet
EndChar

StartChar: uni2077
Encoding: 8311 8311 171
Width: 371
VWidth: 0
Flags: HMW
LayerCount: 2
Fore
SplineSet
25 619 m 1
 25 700 l 1
 354 700 l 1
 151 280 l 1
 59 280 l 1
 226 619 l 1
 25 619 l 1
EndSplineSet
EndChar

StartChar: uni2078
Encoding: 8312 8312 172
Width: 350
VWidth: 0
Flags: HMW
LayerCount: 2
Fore
SplineSet
40 599 m 0
 40 666 100 709 174 709 c 0
 248 709 308 666 308 599 c 0
 308 526 243 488 174 488 c 0
 105 488 40 526 40 599 c 0
122 591 m 0
 122 559 145 536 174 536 c 0
 203 536 226 559 226 591 c 0
 226 623 205 644 174 644 c 0
 143 644 122 623 122 591 c 0
24 394 m 0
 24 479 105 517 174 517 c 0
 243 517 324 479 324 394 c 0
 324 321 254 271 174 271 c 0
 94 271 24 321 24 394 c 0
110 407 m 0
 110 365 140 342 174 342 c 0
 208 342 238 365 238 407 c 0
 238 443 208 469 174 469 c 0
 140 469 110 443 110 407 c 0
EndSplineSet
EndChar

StartChar: uni2079
Encoding: 8313 8313 173
Width: 369
VWidth: 0
Flags: HMW
LayerCount: 2
Fore
SplineSet
268 557 m 0
 268 605 236 636 192 636 c 0
 148 636 114 605 114 557 c 0
 114 509 148 478 192 478 c 0
 236 478 268 509 268 557 c 0
185 284 m 1
 75 284 l 1
 210 442 l 1
 225 446 l 1
 205 424 186 421 157 421 c 0
 93 421 28 475 28 557 c 0
 28 655 102 711 192 711 c 0
 282 711 354 655 354 557 c 0
 354 515 336 480 312 450 c 2
 185 284 l 1
EndSplineSet
EndChar

StartChar: uni2070
Encoding: 8304 8304 174
Width: 384
VWidth: 0
Flags: HMW
LayerCount: 2
Fore
SplineSet
107 490 m 0
 107 406 141 348 193 348 c 0
 245 348 278 406 278 490 c 0
 278 574 245 632 193 632 c 0
 141 632 107 574 107 490 c 0
23 490 m 0
 23 623 93 708 193 708 c 0
 295 708 362 623 362 490 c 0
 362 357 295 272 193 272 c 0
 93 272 23 357 23 490 c 0
EndSplineSet
EndChar

StartChar: uni2080
Encoding: 8320 8320 175
Width: 384
VWidth: 0
Flags: HMW
LayerCount: 2
Fore
SplineSet
107 210 m 0
 107 126 141 68 193 68 c 0
 245 68 278 126 278 210 c 0
 278 294 245 352 193 352 c 0
 141 352 107 294 107 210 c 0
23 210 m 0
 23 343 93 428 193 428 c 0
 295 428 362 343 362 210 c 0
 362 77 295 -8 193 -8 c 0
 93 -8 23 77 23 210 c 0
EndSplineSet
EndChar

StartChar: uni2084
Encoding: 8324 8324 176
Width: 417
VWidth: 0
Flags: HMW
LayerCount: 2
Fore
SplineSet
19 77 m 1
 90 142 l 1
 275 142 l 0
 285 152 l 0
 385 152 l 1
 385 77 l 1
 19 77 l 1
107 98 m 1
 19 77 l 1
 260 420 l 25
 319 420 l 1
 319 0 l 1
 230 0 l 1
 230 99 l 0
 238 105 l 0
 238 284 l 1
 107 98 l 1
EndSplineSet
EndChar

StartChar: uni2085
Encoding: 8325 8325 177
Width: 384
VWidth: 0
Flags: HMW
LayerCount: 2
Fore
SplineSet
352 133 m 0
 352 36 271 -10 190 -10 c 0
 113 -10 64 21 28 55 c 1
 68 124 l 1
 98 94 138 70 174 70 c 0
 227 70 260 96 260 142 c 0
 260 188 219 211 174 211 c 0
 140 211 103 204 60 180 c 1
 118 228 l 1
 149 261 186 272 226 272 c 0
 294 272 352 218 352 133 c 0
180 343 m 1
 147 232 l 1
 60 180 l 1
 116 418 l 1
 346 418 l 1
 346 343 l 1
 180 343 l 1
EndSplineSet
EndChar

StartChar: uni2086
Encoding: 8326 8326 178
Width: 379
VWidth: 0
Flags: HMW
LayerCount: 2
Fore
SplineSet
114 143 m 0
 114 95 148 64 192 64 c 0
 236 64 268 95 268 143 c 0
 268 191 236 222 192 222 c 0
 148 222 114 191 114 143 c 0
198 416 m 1
 307 416 l 1
 172 258 l 1
 158 254 l 1
 178 276 197 279 226 279 c 0
 290 279 354 225 354 143 c 0
 354 45 282 -11 192 -11 c 0
 102 -11 28 45 28 143 c 0
 28 185 46 220 70 250 c 2
 198 416 l 1
EndSplineSet
EndChar

StartChar: uni2087
Encoding: 8327 8327 179
Width: 375
VWidth: 0
Flags: HMW
LayerCount: 2
Fore
SplineSet
28 339 m 1
 28 420 l 1
 356 420 l 1
 153 0 l 1
 62 0 l 1
 228 339 l 1
 28 339 l 1
EndSplineSet
EndChar

StartChar: uni2088
Encoding: 8328 8328 180
Width: 354
VWidth: 0
Flags: HMW
LayerCount: 2
Fore
SplineSet
43 319 m 0
 43 386 103 429 177 429 c 0
 251 429 312 386 312 319 c 0
 312 246 246 208 177 208 c 0
 108 208 43 246 43 319 c 0
125 311 m 0
 125 279 148 256 177 256 c 0
 206 256 230 279 230 311 c 0
 230 343 208 364 177 364 c 0
 146 364 125 343 125 311 c 0
28 114 m 0
 28 199 108 237 177 237 c 0
 246 237 327 199 327 114 c 0
 327 41 257 -9 177 -9 c 0
 97 -9 28 41 28 114 c 0
114 127 m 0
 114 85 143 62 177 62 c 0
 211 62 241 85 241 127 c 0
 241 163 211 189 177 189 c 0
 143 189 114 163 114 127 c 0
EndSplineSet
EndChar

StartChar: uni2089
Encoding: 8329 8329 181
Width: 382
VWidth: 0
Flags: HMW
LayerCount: 2
Fore
SplineSet
265 277 m 0
 265 325 232 356 188 356 c 0
 144 356 110 325 110 277 c 0
 110 229 144 198 188 198 c 0
 232 198 265 229 265 277 c 0
182 4 m 1
 71 4 l 1
 206 162 l 1
 222 166 l 1
 202 144 181 141 152 141 c 0
 88 141 25 195 25 277 c 0
 25 375 98 431 188 431 c 0
 278 431 351 375 351 277 c 0
 351 235 332 200 308 170 c 2
 182 4 l 1
EndSplineSet
EndChar

StartChar: uni2081
Encoding: 8321 8321 182
Width: 346
VWidth: 0
Flags: HMW
LayerCount: 2
Fore
SplineSet
90 310 m 1
 90 389 l 1
 274 428 l 1
 274 1 l 1
 191 1 l 1
 191 338 l 1
 90 310 l 1
EndSplineSet
EndChar

StartChar: uni2082
Encoding: 8322 8322 183
Width: 391
VWidth: 0
Flags: HMW
LayerCount: 2
Fore
SplineSet
27 2 m 1
 218 202 l 2
 250 236 269 261 269 295 c 0
 269 325 249 355 207 355 c 0
 163 355 134 320 134 270 c 1
 48 270 l 1
 48 359 105 430 208 430 c 0
 308 430 358 360 358 297 c 0
 358 253 333 215 298 183 c 2
 190 82 l 1
 365 82 l 1
 365 2 l 1
 27 2 l 1
EndSplineSet
EndChar

StartChar: uni2083
Encoding: 8323 8323 184
Width: 354
VWidth: 0
Flags: HMW
LayerCount: 2
Fore
SplineSet
153 205 m 1
 153 246 l 1
 201 246 233 275 233 308 c 0
 233 338 215 357 180 357 c 0
 146 357 122 334 122 302 c 1
 41 302 l 1
 41 374 97 428 181 428 c 0
 269 428 320 374 320 312 c 0
 320 244 247 205 153 205 c 1
176 -9 m 0
 80 -9 23 55 23 127 c 1
 108 127 l 1
 108 85 140 63 179 63 c 0
 218 63 245 83 245 122 c 0
 245 162 213 187 153 187 c 1
 153 233 l 1
 255 233 332 197 332 113 c 0
 332 41 270 -9 176 -9 c 0
EndSplineSet
EndChar

StartChar: Agrave
Encoding: 192 192 185
Width: 712
VWidth: 0
Flags: HMW
LayerCount: 2
Fore
SplineSet
173 158 m 1
 190 272 l 1
 527 272 l 1
 543 158 l 1
 173 158 l 1
356 472 m 1
 252 231 l 1
 255 199 l 1
 163 0 l 1
 0 0 l 1
 356 742 l 1
 712 0 l 1
 549 0 l 1
 460 192 l 1
 461 229 l 1
 356 472 l 1
204 952 m 1
 308 1000 l 1
 458 840 l 1
 384 802 l 1
 204 952 l 1
EndSplineSet
EndChar

StartChar: Aacute
Encoding: 193 193 186
Width: 712
VWidth: 0
Flags: HMW
LayerCount: 2
Fore
SplineSet
173 158 m 1
 190 272 l 1
 527 272 l 1
 543 158 l 1
 173 158 l 1
356 472 m 1
 252 231 l 1
 255 199 l 1
 163 0 l 1
 0 0 l 1
 356 742 l 1
 712 0 l 1
 549 0 l 1
 460 192 l 1
 461 229 l 1
 356 472 l 1
506 952 m 1
 326 802 l 1
 252 840 l 1
 402 1000 l 1
 506 952 l 1
EndSplineSet
EndChar

StartChar: Acircumflex
Encoding: 194 194 187
Width: 712
VWidth: 0
Flags: HMW
LayerCount: 2
Fore
SplineSet
173 158 m 1
 190 272 l 1
 527 272 l 1
 543 158 l 1
 173 158 l 1
356 472 m 1
 252 231 l 1
 255 199 l 1
 163 0 l 1
 0 0 l 1
 356 742 l 1
 712 0 l 1
 549 0 l 1
 460 192 l 1
 461 229 l 1
 356 472 l 1
356 868 m 1
 259 780 l 1
 170 840 l 1
 356 980 l 1
 542 840 l 1
 454 780 l 1
 356 868 l 1
EndSplineSet
EndChar

StartChar: Atilde
Encoding: 195 195 188
Width: 712
VWidth: 0
Flags: HMW
LayerCount: 2
Fore
SplineSet
173 158 m 1
 190 272 l 1
 527 272 l 1
 543 158 l 1
 173 158 l 1
356 472 m 1
 252 231 l 1
 255 199 l 1
 163 0 l 1
 0 0 l 1
 356 742 l 1
 712 0 l 1
 549 0 l 1
 460 192 l 1
 461 229 l 1
 356 472 l 1
170 847 m 1
 180 896 226 938 284 938 c 0
 350 938 362 888 418 888 c 0
 442 888 459 907 479 939 c 1
 543 874 l 1
 527 837 476 792 418 792 c 0
 363 792 332 844 284 844 c 0
 245 844 236 807 236 792 c 1
 170 847 l 1
EndSplineSet
EndChar

StartChar: Adieresis
Encoding: 196 196 189
Width: 712
VWidth: 0
Flags: HMW
LayerCount: 2
Fore
SplineSet
173 158 m 1
 190 272 l 1
 527 272 l 1
 543 158 l 1
 173 158 l 1
356 472 m 1
 252 231 l 1
 255 199 l 1
 163 0 l 1
 0 0 l 1
 356 742 l 1
 712 0 l 1
 549 0 l 1
 460 192 l 1
 461 229 l 1
 356 472 l 1
409 838 m 0
 409 881 444 914 488 914 c 0
 532 914 568 881 568 838 c 0
 568 795 532 762 488 762 c 0
 444 762 409 795 409 838 c 0
146 838 m 0
 146 881 181 914 225 914 c 0
 269 914 304 881 304 838 c 0
 304 795 269 762 225 762 c 0
 181 762 146 795 146 838 c 0
EndSplineSet
EndChar

StartChar: Aring
Encoding: 197 197 190
Width: 712
VWidth: 0
Flags: HMW
LayerCount: 2
Fore
SplineSet
173 158 m 1
 190 272 l 1
 527 272 l 1
 543 158 l 1
 173 158 l 1
356 472 m 1
 252 231 l 1
 255 199 l 1
 163 0 l 1
 0 0 l 1
 356 742 l 1
 712 0 l 1
 549 0 l 1
 460 192 l 1
 461 229 l 1
 356 472 l 1
238 800 m 0
 238 866 292 910 356 910 c 0
 420 910 474 866 474 800 c 0
 474 734 420 689 356 689 c 0
 292 689 238 734 238 800 c 0
308 800 m 0
 308 769 331 750 356 750 c 0
 381 750 404 769 404 800 c 0
 404 831 381 849 356 849 c 0
 331 849 308 831 308 800 c 0
EndSplineSet
EndChar

StartChar: AE
Encoding: 198 198 191
Width: 1047
VWidth: 0
Flags: HMW
LayerCount: 2
Fore
SplineSet
254 168 m 1
 258 301 l 1
 558 301 l 1
 558 168 l 1
 254 168 l 1
437 700 m 1
 572 660 l 1
 190 0 l 1
 12 0 l 1
 437 700 l 1
602 0 m 1
 602 122 l 1
 978 122 l 1
 978 0 l 1
 602 0 l 1
610 578 m 1
 437 700 l 1
 978 700 l 1
 978 578 l 1
 610 578 l 1
602 312 m 1
 602 431 l 1
 958 431 l 1
 958 312 l 1
 602 312 l 1
532 700 m 1
 685 700 l 1
 685 0 l 1
 532 0 l 1
 532 700 l 1
EndSplineSet
EndChar

StartChar: Ccedilla
Encoding: 199 199 192
Width: 695
VWidth: 0
Flags: HMW
LayerCount: 2
Fore
SplineSet
192 350 m 0
 192 212 296 124 416 124 c 0
 515 124 583 166 630 220 c 1
 630 58 l 1
 573 12 512 -14 410 -14 c 0
 194 -14 36 134 36 350 c 0
 36 566 194 714 410 714 c 0
 512 714 573 688 630 642 c 1
 630 480 l 1
 583 534 515 576 416 576 c 0
 296 576 192 488 192 350 c 0
376 59 m 1
 472 56 l 1
 378 -80 l 1
 289 -127 l 1
 376 59 l 1
506 -150 m 1
 422 -144 l 1
 422 -118 396 -110 364 -110 c 0
 354 -110 321 -111 289 -127 c 1
 346 -84 l 1
 372 -62 394 -60 420 -60 c 0
 458 -60 506 -89 506 -150 c 1
506 -150 m 1
 506 -219 442 -254 382 -254 c 0
 332 -254 296 -246 254 -216 c 1
 296 -156 l 1
 320 -174 346 -181 368 -181 c 0
 402 -181 422 -168 422 -144 c 1
 506 -150 l 1
EndSplineSet
EndChar

StartChar: Egrave
Encoding: 200 200 193
Width: 587
VWidth: 0
Flags: HMW
LayerCount: 2
Fore
SplineSet
168 0 m 1
 168 122 l 1
 522 122 l 1
 522 0 l 1
 168 0 l 1
168 578 m 1
 168 700 l 1
 522 700 l 1
 522 578 l 1
 168 578 l 1
168 312 m 1
 168 431 l 1
 502 431 l 1
 502 312 l 1
 168 312 l 1
76 700 m 1
 216 700 l 1
 216 0 l 1
 76 0 l 1
 76 700 l 1
146 928 m 1
 250 978 l 1
 400 818 l 1
 326 778 l 1
 146 928 l 1
EndSplineSet
EndChar

StartChar: Eacute
Encoding: 201 201 194
Width: 587
VWidth: 0
Flags: HMW
LayerCount: 2
Fore
SplineSet
168 0 m 1
 168 122 l 1
 522 122 l 1
 522 0 l 1
 168 0 l 1
168 578 m 1
 168 700 l 1
 522 700 l 1
 522 578 l 1
 168 578 l 1
168 312 m 1
 168 431 l 1
 502 431 l 1
 502 312 l 1
 168 312 l 1
76 700 m 1
 216 700 l 1
 216 0 l 1
 76 0 l 1
 76 700 l 1
448 928 m 1
 268 778 l 1
 196 818 l 1
 346 978 l 1
 448 928 l 1
EndSplineSet
EndChar

StartChar: Ecircumflex
Encoding: 202 202 195
Width: 587
VWidth: 0
Flags: HMW
LayerCount: 2
Fore
SplineSet
168 0 m 1
 168 122 l 1
 522 122 l 1
 522 0 l 1
 168 0 l 1
168 578 m 1
 168 700 l 1
 522 700 l 1
 522 578 l 1
 168 578 l 1
168 312 m 1
 168 431 l 1
 502 431 l 1
 502 312 l 1
 168 312 l 1
76 700 m 1
 216 700 l 1
 216 0 l 1
 76 0 l 1
 76 700 l 1
304 878 m 1
 194 784 l 1
 144 824 l 1
 304 964 l 1
 464 824 l 1
 414 784 l 1
 304 878 l 1
EndSplineSet
EndChar

StartChar: Edieresis
Encoding: 203 203 196
Width: 587
VWidth: 0
Flags: HMW
LayerCount: 2
Fore
SplineSet
168 0 m 1
 168 122 l 1
 522 122 l 1
 522 0 l 1
 168 0 l 1
168 578 m 1
 168 700 l 1
 522 700 l 1
 522 578 l 1
 168 578 l 1
168 312 m 1
 168 431 l 1
 502 431 l 1
 502 312 l 1
 168 312 l 1
76 700 m 1
 216 700 l 1
 216 0 l 1
 76 0 l 1
 76 700 l 1
338 858 m 0
 338 901 374 934 418 934 c 0
 462 934 498 901 498 858 c 0
 498 815 462 782 418 782 c 0
 374 782 338 815 338 858 c 0
108 858 m 0
 108 901 144 934 188 934 c 0
 232 934 266 901 266 858 c 0
 266 815 232 782 188 782 c 0
 144 782 108 815 108 858 c 0
EndSplineSet
EndChar

StartChar: Igrave
Encoding: 204 204 197
Width: 297
VWidth: 0
Flags: HMW
LayerCount: 2
Fore
SplineSet
76 700 m 1
 222 700 l 1
 222 0 l 1
 76 0 l 1
 76 700 l 1
-8 928 m 1
 96 978 l 1
 246 818 l 1
 172 778 l 1
 -8 928 l 1
EndSplineSet
EndChar

StartChar: Iacute
Encoding: 205 205 198
Width: 297
VWidth: 0
Flags: HMW
LayerCount: 2
Fore
SplineSet
76 700 m 1
 222 700 l 1
 222 0 l 1
 76 0 l 1
 76 700 l 1
294 928 m 1
 114 778 l 1
 42 818 l 1
 192 978 l 1
 294 928 l 1
EndSplineSet
EndChar

StartChar: Icircumflex
Encoding: 206 206 199
Width: 297
VWidth: 0
Flags: HMW
LayerCount: 2
Fore
SplineSet
76 700 m 1
 222 700 l 1
 222 0 l 1
 76 0 l 1
 76 700 l 1
144 878 m 1
 34 784 l 1
 -16 824 l 1
 144 964 l 1
 304 824 l 1
 254 784 l 1
 144 878 l 1
EndSplineSet
EndChar

StartChar: Idieresis
Encoding: 207 207 200
Width: 297
VWidth: 0
Flags: HMW
LayerCount: 2
Fore
SplineSet
76 700 m 1
 222 700 l 1
 222 0 l 1
 76 0 l 1
 76 700 l 1
185 850 m 0
 185 893 220 926 264 926 c 0
 308 926 344 893 344 850 c 0
 344 807 308 774 264 774 c 0
 220 774 185 807 185 850 c 0
-46 850 m 0
 -46 893 -11 926 33 926 c 0
 77 926 113 893 113 850 c 0
 113 807 77 774 33 774 c 0
 -11 774 -46 807 -46 850 c 0
EndSplineSet
EndChar

StartChar: Ntilde
Encoding: 209 209 201
Width: 787
VWidth: 0
Flags: HMW
LayerCount: 2
Fore
SplineSet
80 548 m 1
 76 735 l 1
 708 152 l 1
 712 -35 l 1
 80 548 l 1
573 700 m 1
 712 700 l 1
 712 -35 l 1
 573 128 l 1
 573 700 l 1
76 735 m 1
 216 572 l 1
 216 0 l 1
 76 0 l 1
 76 735 l 1
225 826 m 1
 235 875 284 908 329 908 c 0
 394 908 399 860 453 860 c 0
 472 860 489 876 509 908 c 1
 555 866 l 1
 539 829 499 792 449 792 c 0
 394 792 373 840 328 840 c 0
 287 840 278 803 278 788 c 1
 225 826 l 1
EndSplineSet
EndChar

StartChar: Eth
Encoding: 208 208 202
Width: 717
VWidth: 0
Flags: HMW
LayerCount: 2
Fore
SplineSet
168 570 m 1
 168 700 l 1
 314 700 l 2
 536 700 682 564 682 350 c 1
 533 350 l 1
 533 504 433 570 310 570 c 2
 168 570 l 1
314 0 m 2
 168 0 l 1
 168 130 l 1
 310 130 l 2
 433 130 533 196 533 350 c 1
 682 350 l 1
 682 136 536 0 314 0 c 2
76 700 m 1
 223 700 l 1
 223 0 l 1
 76 0 l 1
 76 700 l 1
6 304 m 1
 6 397 l 1
 340 397 l 1
 340 304 l 1
 6 304 l 1
EndSplineSet
EndChar

StartChar: Ograve
Encoding: 210 210 203
Width: 811
VWidth: 0
Flags: HMW
LayerCount: 2
Fore
SplineSet
188 350 m 0
 188 216 278 120 406 120 c 0
 534 120 624 216 624 350 c 0
 624 484 537 580 406 580 c 0
 278 580 188 484 188 350 c 0
36 350 m 0
 36 562 195 714 406 714 c 0
 618 714 776 562 776 350 c 0
 776 138 621 -18 406 -18 c 0
 191 -18 36 138 36 350 c 0
266 928 m 1
 370 978 l 1
 520 818 l 1
 446 778 l 1
 266 928 l 1
EndSplineSet
EndChar

StartChar: Oacute
Encoding: 211 211 204
Width: 811
VWidth: 0
Flags: HMW
LayerCount: 2
Fore
SplineSet
188 350 m 0
 188 216 278 120 406 120 c 0
 534 120 624 216 624 350 c 0
 624 484 537 580 406 580 c 0
 278 580 188 484 188 350 c 0
36 350 m 0
 36 562 195 714 406 714 c 0
 618 714 776 562 776 350 c 0
 776 138 621 -18 406 -18 c 0
 191 -18 36 138 36 350 c 0
556 928 m 1
 376 778 l 1
 304 818 l 1
 454 978 l 1
 556 928 l 1
EndSplineSet
EndChar

StartChar: Ocircumflex
Encoding: 212 212 205
Width: 811
VWidth: 0
Flags: HMW
LayerCount: 2
Fore
SplineSet
188 350 m 0
 188 216 278 120 406 120 c 0
 534 120 624 216 624 350 c 0
 624 484 537 580 406 580 c 0
 278 580 188 484 188 350 c 0
36 350 m 0
 36 562 195 714 406 714 c 0
 618 714 776 562 776 350 c 0
 776 138 621 -18 406 -18 c 0
 191 -18 36 138 36 350 c 0
412 878 m 1
 302 784 l 1
 252 824 l 1
 412 964 l 1
 572 824 l 1
 522 784 l 1
 412 878 l 1
EndSplineSet
EndChar

StartChar: Otilde
Encoding: 213 213 206
Width: 811
VWidth: 0
Flags: HMW
LayerCount: 2
Fore
SplineSet
188 350 m 0
 188 216 278 120 406 120 c 0
 534 120 624 216 624 350 c 0
 624 484 537 580 406 580 c 0
 278 580 188 484 188 350 c 0
36 350 m 0
 36 562 195 714 406 714 c 0
 618 714 776 562 776 350 c 0
 776 138 621 -18 406 -18 c 0
 191 -18 36 138 36 350 c 0
244 832 m 1
 254 881 303 914 348 914 c 0
 413 914 418 866 472 866 c 0
 491 866 508 882 528 914 c 1
 574 872 l 1
 558 835 518 798 468 798 c 0
 413 798 391 846 346 846 c 0
 305 846 296 809 296 794 c 1
 244 832 l 1
EndSplineSet
EndChar

StartChar: Odieresis
Encoding: 214 214 207
Width: 811
VWidth: 0
Flags: HMW
LayerCount: 2
Fore
SplineSet
188 350 m 0
 188 216 278 120 406 120 c 0
 534 120 624 216 624 350 c 0
 624 484 537 580 406 580 c 0
 278 580 188 484 188 350 c 0
36 350 m 0
 36 562 195 714 406 714 c 0
 618 714 776 562 776 350 c 0
 776 138 621 -18 406 -18 c 0
 191 -18 36 138 36 350 c 0
444 840 m 0
 444 883 479 916 523 916 c 0
 567 916 602 883 602 840 c 0
 602 797 567 764 523 764 c 0
 479 764 444 797 444 840 c 0
213 840 m 0
 213 883 248 916 292 916 c 0
 336 916 372 883 372 840 c 0
 372 797 336 764 292 764 c 0
 248 764 213 797 213 840 c 0
EndSplineSet
EndChar

StartChar: Ugrave
Encoding: 217 217 208
Width: 678
VWidth: 0
Flags: HMW
LayerCount: 2
Fore
SplineSet
70 700 m 1
 214 700 l 1
 214 238 l 2
 214 160 257 107 339 107 c 0
 421 107 464 160 464 238 c 2
 464 700 l 1
 608 700 l 1
 608 230 l 2
 608 65 493 -24 339 -24 c 0
 185 -24 70 65 70 230 c 2
 70 700 l 1
188 924 m 1
 291 974 l 1
 441 814 l 1
 368 774 l 1
 188 924 l 1
EndSplineSet
EndChar

StartChar: Uacute
Encoding: 218 218 209
Width: 678
VWidth: 0
Flags: HMW
LayerCount: 2
Fore
SplineSet
70 700 m 1
 214 700 l 1
 214 238 l 2
 214 160 257 107 339 107 c 0
 421 107 464 160 464 238 c 2
 464 700 l 1
 608 700 l 1
 608 230 l 2
 608 65 493 -24 339 -24 c 0
 185 -24 70 65 70 230 c 2
 70 700 l 1
491 924 m 1
 311 774 l 1
 238 814 l 1
 388 974 l 1
 491 924 l 1
EndSplineSet
EndChar

StartChar: Ucircumflex
Encoding: 219 219 210
Width: 678
VWidth: 0
Flags: HMW
LayerCount: 2
Fore
SplineSet
70 700 m 1
 214 700 l 1
 214 238 l 2
 214 160 257 107 339 107 c 0
 421 107 464 160 464 238 c 2
 464 700 l 1
 608 700 l 1
 608 230 l 2
 608 65 493 -24 339 -24 c 0
 185 -24 70 65 70 230 c 2
 70 700 l 1
339 863 m 1
 243 774 l 1
 153 836 l 1
 339 976 l 1
 526 836 l 1
 436 774 l 1
 339 863 l 1
EndSplineSet
EndChar

StartChar: Udieresis
Encoding: 220 220 211
Width: 678
VWidth: 0
Flags: HMW
LayerCount: 2
Fore
SplineSet
70 700 m 1
 214 700 l 1
 214 238 l 2
 214 160 257 107 339 107 c 0
 421 107 464 160 464 238 c 2
 464 700 l 1
 608 700 l 1
 608 230 l 2
 608 65 493 -24 339 -24 c 0
 185 -24 70 65 70 230 c 2
 70 700 l 1
388 850 m 0
 388 893 423 926 467 926 c 0
 511 926 546 893 546 850 c 0
 546 807 511 774 467 774 c 0
 423 774 388 807 388 850 c 0
132 850 m 0
 132 893 167 926 211 926 c 0
 255 926 290 893 290 850 c 0
 290 807 255 774 211 774 c 0
 167 774 132 807 132 850 c 0
EndSplineSet
EndChar

StartChar: Yacute
Encoding: 221 221 212
Width: 630
VWidth: 0
Flags: HMW
LayerCount: 2
Fore
SplineSet
242 360 m 1
 388 360 l 1
 388 0 l 1
 242 0 l 1
 242 360 l 1
464 700 m 1
 630 700 l 1
 315 166 l 1
 0 700 l 1
 166 700 l 1
 315 418 l 1
 464 700 l 1
466 924 m 1
 286 774 l 1
 214 814 l 1
 364 974 l 1
 466 924 l 1
EndSplineSet
EndChar

StartChar: agrave
Encoding: 224 224 213
Width: 526
VWidth: 0
Flags: HMW
LayerCount: 2
Fore
SplineSet
156 137 m 0
 156 99 185 80 232 80 c 0
 294 80 345 106 345 184 c 1
 361 130 l 1
 361 41 285 -10 190 -10 c 0
 90 -10 26 41 26 127 c 0
 26 225 108 281 224 281 c 0
 298 281 360 248 378 228 c 1
 378 164 l 1
 340 192 304 206 250 206 c 0
 190 206 156 179 156 137 c 0
116 328 m 1
 68 418 l 1
 116 443 185 472 268 472 c 0
 386 472 470 420 470 326 c 2
 470 0 l 1
 345 0 l 1
 345 305 l 2
 345 346 309 370 259 370 c 0
 193 370 138 342 116 328 c 1
99 682 m 1
 203 731 l 1
 353 571 l 1
 279 532 l 1
 99 682 l 1
EndSplineSet
Substitution2: "alt a" agrave.alt
EndChar

StartChar: aacute
Encoding: 225 225 214
Width: 526
VWidth: 0
Flags: HMW
LayerCount: 2
Fore
SplineSet
156 137 m 0
 156 99 185 80 232 80 c 0
 294 80 345 106 345 184 c 1
 361 130 l 1
 361 41 285 -10 190 -10 c 0
 90 -10 26 41 26 127 c 0
 26 225 108 281 224 281 c 0
 298 281 360 248 378 228 c 1
 378 164 l 1
 340 192 304 206 250 206 c 0
 190 206 156 179 156 137 c 0
116 328 m 1
 68 418 l 1
 116 443 185 472 268 472 c 0
 386 472 470 420 470 326 c 2
 470 0 l 1
 345 0 l 1
 345 305 l 2
 345 346 309 370 259 370 c 0
 193 370 138 342 116 328 c 1
436 682 m 1
 256 532 l 1
 183 571 l 1
 333 731 l 1
 436 682 l 1
EndSplineSet
Substitution2: "alt a" aacute.alt
EndChar

StartChar: acircumflex
Encoding: 226 226 215
Width: 526
VWidth: 0
Flags: HMW
LayerCount: 2
Fore
SplineSet
156 137 m 0
 156 99 185 80 232 80 c 0
 294 80 345 106 345 184 c 1
 361 130 l 1
 361 41 285 -10 190 -10 c 0
 90 -10 26 41 26 127 c 0
 26 225 108 281 224 281 c 0
 298 281 360 248 378 228 c 1
 378 164 l 1
 340 192 304 206 250 206 c 0
 190 206 156 179 156 137 c 0
116 328 m 1
 68 418 l 1
 116 443 185 472 268 472 c 0
 386 472 470 420 470 326 c 2
 470 0 l 1
 345 0 l 1
 345 305 l 2
 345 346 309 370 259 370 c 0
 193 370 138 342 116 328 c 1
268 620 m 1
 171 532 l 1
 81 594 l 1
 268 734 l 1
 454 594 l 1
 365 532 l 1
 268 620 l 1
EndSplineSet
Substitution2: "alt a" acircumflex.alt
EndChar

StartChar: atilde
Encoding: 227 227 216
Width: 526
VWidth: 0
Flags: HMW
LayerCount: 2
Fore
SplineSet
156 137 m 0
 156 99 185 80 232 80 c 0
 294 80 345 106 345 184 c 1
 361 130 l 1
 361 41 285 -10 190 -10 c 0
 90 -10 26 41 26 127 c 0
 26 225 108 281 224 281 c 0
 298 281 360 248 378 228 c 1
 378 164 l 1
 340 192 304 206 250 206 c 0
 190 206 156 179 156 137 c 0
116 328 m 1
 68 418 l 1
 116 443 185 472 268 472 c 0
 386 472 470 420 470 326 c 2
 470 0 l 1
 345 0 l 1
 345 305 l 2
 345 346 309 370 259 370 c 0
 193 370 138 342 116 328 c 1
81 590 m 1
 91 639 138 680 196 680 c 0
 262 680 272 630 328 630 c 0
 352 630 372 649 392 681 c 1
 454 616 l 1
 438 579 387 534 329 534 c 0
 274 534 242 586 194 586 c 0
 155 586 147 550 147 535 c 1
 81 590 l 1
EndSplineSet
Substitution2: "alt a" atilde.alt
EndChar

StartChar: adieresis
Encoding: 228 228 217
Width: 526
VWidth: 0
Flags: HMW
LayerCount: 2
Fore
SplineSet
156 137 m 0
 156 99 185 80 232 80 c 0
 294 80 345 106 345 184 c 1
 361 130 l 1
 361 41 285 -10 190 -10 c 0
 90 -10 26 41 26 127 c 0
 26 225 108 281 224 281 c 0
 298 281 360 248 378 228 c 1
 378 164 l 1
 340 192 304 206 250 206 c 0
 190 206 156 179 156 137 c 0
116 328 m 1
 68 418 l 1
 116 443 185 472 268 472 c 0
 386 472 470 420 470 326 c 2
 470 0 l 1
 345 0 l 1
 345 305 l 2
 345 346 309 370 259 370 c 0
 193 370 138 342 116 328 c 1
305 606 m 0
 305 648 339 680 383 680 c 0
 427 680 461 648 461 606 c 0
 461 564 427 532 383 532 c 0
 339 532 305 564 305 606 c 0
74 606 m 0
 74 648 108 680 152 680 c 0
 196 680 230 648 230 606 c 0
 230 564 196 532 152 532 c 0
 108 532 74 564 74 606 c 0
EndSplineSet
Substitution2: "alt a" adieresis.alt
EndChar

StartChar: aring
Encoding: 229 229 218
Width: 526
VWidth: 0
Flags: HMW
LayerCount: 2
Fore
SplineSet
156 137 m 0
 156 99 185 80 232 80 c 0
 294 80 345 106 345 184 c 1
 361 130 l 1
 361 41 285 -10 190 -10 c 0
 90 -10 26 41 26 127 c 0
 26 225 108 281 224 281 c 0
 298 281 360 248 378 228 c 1
 378 164 l 1
 340 192 304 206 250 206 c 0
 190 206 156 179 156 137 c 0
116 328 m 1
 68 418 l 1
 116 443 185 472 268 472 c 0
 386 472 470 420 470 326 c 2
 470 0 l 1
 345 0 l 1
 345 305 l 2
 345 346 309 370 259 370 c 0
 193 370 138 342 116 328 c 1
150 644 m 0
 150 710 204 754 268 754 c 0
 332 754 386 710 386 644 c 0
 386 578 332 532 268 532 c 0
 204 532 150 578 150 644 c 0
220 644 m 0
 220 613 243 594 268 594 c 0
 293 594 315 613 315 644 c 0
 315 675 293 692 268 692 c 0
 243 692 220 675 220 644 c 0
EndSplineSet
Substitution2: "alt a" aring.alt
EndChar

StartChar: germandbls
Encoding: 223 223 219
Width: 584
VWidth: 0
Flags: HMW
LayerCount: 2
Fore
SplineSet
62 606 m 1
 188 592 l 1
 188 0 l 1
 62 0 l 1
 62 606 l 1
263 416 m 1
 263 498 l 1
 355 498 384 540 384 588 c 0
 384 640 352 675 284 675 c 0
 228 675 188 646 188 592 c 1
 62 606 l 1
 62 724 166 794 284 794 c 0
 432 794 511 715 511 606 c 0
 511 487 427 416 263 416 c 1
279 109 m 1
 359 109 424 164 424 248 c 0
 424 316 373 379 263 379 c 1
 263 468 l 1
 427 468 555 373 555 225 c 0
 555 77 440 -10 279 -10 c 1
 279 109 l 1
EndSplineSet
EndChar

StartChar: ae
Encoding: 230 230 220
Width: 874
VWidth: 0
Flags: HMW
LayerCount: 2
Fore
SplineSet
156 137 m 0
 156 99 185 80 232 80 c 0
 294 80 345 106 345 184 c 1
 408 130 l 1
 408 41 332 -10 215 -10 c 0
 95 -10 26 41 26 127 c 0
 26 225 108 281 224 281 c 0
 298 281 360 248 378 228 c 1
 378 164 l 1
 340 192 304 206 250 206 c 0
 190 206 156 179 156 137 c 0
116 328 m 1
 68 418 l 1
 116 443 185 472 268 472 c 0
 386 472 430 420 430 326 c 2
 430 130 l 1
 345 130 l 1
 345 299 l 2
 345 340 309 370 259 370 c 0
 193 370 138 342 116 328 c 1
414 202 m 1
 414 281 l 1
 822 281 l 1
 839 202 l 1
 414 202 l 1
703 246 m 2
 703 328 671 378 599 378 c 0
 533 378 484 334 484 256 c 1
 482 230 l 1
 482 132 534 90 602 90 c 0
 660 90 700 113 724 155 c 1
 838 120 l 1
 792 42 728 -10 600 -10 c 0
 445 -10 380 91 380 230 c 0
 380 247 385 263 388 279 c 0
 407 392 488 470 620 470 c 0
 748 470 840 381 840 236 c 0
 840 228 841 216 839 202 c 1
 703 222 l 1
 703 246 l 2
EndSplineSet
EndChar

StartChar: ccedilla
Encoding: 231 231 221
Width: 488
VWidth: 0
Flags: HMW
LayerCount: 2
Fore
SplineSet
164 230 m 0
 164 150 222 96 296 96 c 0
 356 96 413 126 439 170 c 1
 439 37 l 1
 407 7 356 -10 288 -10 c 0
 140 -10 30 86 30 230 c 0
 30 374 140 470 288 470 c 0
 356 470 407 450 439 424 c 1
 439 290 l 1
 413 334 352 364 296 364 c 0
 222 364 164 306 164 230 c 0
245 76 m 1
 340 74 l 1
 248 -62 l 1
 158 -110 l 1
 245 76 l 1
375 -132 m 1
 290 -127 l 1
 290 -101 265 -94 233 -94 c 0
 223 -94 190 -94 158 -110 c 1
 215 -68 l 1
 241 -46 264 -42 290 -42 c 0
 328 -42 375 -71 375 -132 c 1
375 -132 m 1
 375 -201 312 -238 252 -238 c 0
 202 -238 166 -228 124 -198 c 1
 166 -138 l 1
 190 -156 216 -164 238 -164 c 0
 272 -164 290 -151 290 -127 c 1
 375 -132 l 1
EndSplineSet
EndChar

StartChar: egrave
Encoding: 232 232 222
Width: 555
VWidth: 0
Flags: HMW
LayerCount: 2
Fore
SplineSet
96 202 m 1
 96 281 l 1
 503 281 l 1
 520 202 l 1
 96 202 l 1
384 246 m 2
 384 328 352 378 280 378 c 0
 214 378 166 334 166 256 c 1
 164 230 l 1
 164 132 214 90 282 90 c 0
 340 90 382 113 406 155 c 1
 520 120 l 1
 474 42 410 -10 282 -10 c 0
 127 -10 33 91 33 230 c 0
 33 247 34 263 37 279 c 0
 56 392 141 470 282 470 c 0
 434 470 522 381 522 236 c 0
 522 228 522 216 520 202 c 1
 384 222 l 1
 384 246 l 2
122 692 m 1
 226 740 l 1
 376 580 l 1
 302 542 l 1
 122 692 l 1
EndSplineSet
EndChar

StartChar: eacute
Encoding: 233 233 223
Width: 555
VWidth: 0
Flags: HMW
LayerCount: 2
Fore
SplineSet
96 202 m 1
 96 281 l 1
 503 281 l 1
 520 202 l 1
 96 202 l 1
384 246 m 2
 384 328 352 378 280 378 c 0
 214 378 166 334 166 256 c 1
 164 230 l 1
 164 132 214 90 282 90 c 0
 340 90 382 113 406 155 c 1
 520 120 l 1
 474 42 410 -10 282 -10 c 0
 127 -10 33 91 33 230 c 0
 33 247 34 263 37 279 c 0
 56 392 141 470 282 470 c 0
 434 470 522 381 522 236 c 0
 522 228 522 216 520 202 c 1
 384 222 l 1
 384 246 l 2
442 692 m 1
 262 542 l 1
 190 580 l 1
 340 740 l 1
 442 692 l 1
EndSplineSet
EndChar

StartChar: ecircumflex
Encoding: 234 234 224
Width: 555
VWidth: 0
Flags: HMW
LayerCount: 2
Fore
SplineSet
96 202 m 1
 96 281 l 1
 503 281 l 1
 520 202 l 1
 96 202 l 1
384 246 m 2
 384 328 352 378 280 378 c 0
 214 378 166 334 166 256 c 1
 164 230 l 1
 164 132 214 90 282 90 c 0
 340 90 382 113 406 155 c 1
 520 120 l 1
 474 42 410 -10 282 -10 c 0
 127 -10 33 91 33 230 c 0
 33 247 34 263 37 279 c 0
 56 392 141 470 282 470 c 0
 434 470 522 381 522 236 c 0
 522 228 522 216 520 202 c 1
 384 222 l 1
 384 246 l 2
282 619 m 1
 186 530 l 1
 96 592 l 1
 282 732 l 1
 468 592 l 1
 380 530 l 1
 282 619 l 1
EndSplineSet
EndChar

StartChar: edieresis
Encoding: 235 235 225
Width: 548
VWidth: 0
Flags: HMW
LayerCount: 2
Fore
SplineSet
96 202 m 1
 96 284 l 1
 492 284 l 1
 510 202 l 1
 96 202 l 1
392 246 m 2
 392 324 356 372 280 372 c 0
 210 372 160 330 160 256 c 1
 158 230 l 1
 158 140 214 93 290 93 c 0
 341 93 374 114 395 155 c 1
 503 114 l 1
 464 42 403 -10 282 -10 c 0
 141 -10 36 91 36 230 c 0
 36 247 38 264 41 280 c 0
 60 393 156 470 282 470 c 0
 412 470 512 381 512 236 c 0
 512 228 512 216 510 202 c 1
 392 222 l 1
 392 246 l 2
320 604 m 0
 320 646 354 678 398 678 c 0
 442 678 476 646 476 604 c 0
 476 562 442 530 398 530 c 0
 354 530 320 562 320 604 c 0
89 604 m 0
 89 646 123 678 167 678 c 0
 211 678 246 646 246 604 c 0
 246 562 211 530 167 530 c 0
 123 530 89 562 89 604 c 0
EndSplineSet
EndChar

StartChar: igrave
Encoding: 236 236 226
Width: 271
VWidth: 0
Flags: HM
LayerCount: 2
Fore
SplineSet
72 460 m 1
 198 460 l 1
 198 0 l 1
 72 0 l 1
 72 460 l 1
-38 692 m 1
 64 740 l 1
 214 580 l 1
 142 542 l 1
 -38 692 l 1
EndSplineSet
EndChar

StartChar: dotlessi
Encoding: 305 305 227
Width: 271
VWidth: 0
Flags: HMW
LayerCount: 2
Fore
SplineSet
72 460 m 1
 198 460 l 1
 198 0 l 1
 72 0 l 1
 72 460 l 1
EndSplineSet
EndChar

StartChar: kgreenlandic
Encoding: 312 312 228
Width: 536
VWidth: 0
Flags: HMW
LayerCount: 2
Fore
SplineSet
62 460 m 1
 187 460 l 1
 187 0 l 1
 62 0 l 1
 62 460 l 1
355 460 m 1
 512 460 l 1
 314 270 l 1
 532 0 l 1
 377 0 l 1
 158 270 l 1
 355 460 l 1
EndSplineSet
EndChar

StartChar: iacute
Encoding: 237 237 229
Width: 271
VWidth: 0
Flags: HM
LayerCount: 2
Fore
SplineSet
72 460 m 1
 198 460 l 1
 198 0 l 1
 72 0 l 1
 72 460 l 1
304 692 m 1
 124 542 l 1
 50 580 l 1
 200 740 l 1
 304 692 l 1
EndSplineSet
EndChar

StartChar: icircumflex
Encoding: 238 238 230
Width: 271
VWidth: 0
Flags: HM
LayerCount: 2
Fore
SplineSet
72 460 m 1
 198 460 l 1
 198 0 l 1
 72 0 l 1
 72 460 l 1
136 624 m 1
 38 536 l 1
 -51 598 l 1
 136 738 l 1
 322 598 l 1
 232 536 l 1
 136 624 l 1
EndSplineSet
EndChar

StartChar: idieresis
Encoding: 239 239 231
Width: 271
VWidth: 0
Flags: HMW
LayerCount: 2
Fore
SplineSet
72 460 m 1
 198 460 l 1
 198 0 l 1
 72 0 l 1
 72 460 l 1
172 613 m 0
 172 655 206 687 250 687 c 0
 294 687 328 655 328 613 c 0
 328 571 294 539 250 539 c 0
 206 539 172 571 172 613 c 0
-58 613 m 0
 -58 655 -24 687 20 687 c 0
 64 687 98 655 98 613 c 0
 98 571 64 539 20 539 c 0
 -24 539 -58 571 -58 613 c 0
EndSplineSet
EndChar

StartChar: ntilde
Encoding: 241 241 232
Width: 560
VWidth: 0
Flags: HM
LayerCount: 2
Fore
SplineSet
195 460 m 1
 195 0 l 1
 64 0 l 1
 64 460 l 1
 195 460 l 1
362 280 m 2
 362 340 340 374 286 374 c 0
 232 374 195 338 195 280 c 1
 163 276 l 1
 163 385 226 470 334 470 c 0
 442 470 496 408 496 294 c 2
 496 0 l 1
 362 0 l 1
 362 280 l 2
94 588 m 1
 104 637 150 678 208 678 c 0
 274 678 284 628 340 628 c 0
 364 628 384 648 404 680 c 1
 467 614 l 1
 451 577 400 532 342 532 c 0
 287 532 256 584 208 584 c 0
 169 584 160 548 160 533 c 1
 94 588 l 1
EndSplineSet
EndChar

StartChar: ograve
Encoding: 242 242 233
Width: 576
VWidth: 0
Flags: HM
LayerCount: 2
Fore
SplineSet
33 230 m 0
 33 374 142 470 288 470 c 0
 434 470 544 374 544 230 c 0
 544 86 434 -10 288 -10 c 0
 142 -10 33 86 33 230 c 0
166 230 m 0
 166 152 220 100 288 100 c 0
 356 100 410 152 410 230 c 0
 410 308 356 360 288 360 c 0
 220 360 166 308 166 230 c 0
128 692 m 1
 232 740 l 1
 382 580 l 1
 308 542 l 1
 128 692 l 1
EndSplineSet
EndChar

StartChar: oacute
Encoding: 243 243 234
Width: 576
VWidth: 0
Flags: HM
LayerCount: 2
Fore
SplineSet
33 230 m 0
 33 374 142 470 288 470 c 0
 434 470 544 374 544 230 c 0
 544 86 434 -10 288 -10 c 0
 142 -10 33 86 33 230 c 0
166 230 m 0
 166 152 220 100 288 100 c 0
 356 100 410 152 410 230 c 0
 410 308 356 360 288 360 c 0
 220 360 166 308 166 230 c 0
448 692 m 1
 268 542 l 1
 194 580 l 1
 344 740 l 1
 448 692 l 1
EndSplineSet
EndChar

StartChar: ocircumflex
Encoding: 244 244 235
Width: 576
VWidth: 0
Flags: HM
LayerCount: 2
Fore
SplineSet
33 230 m 0
 33 374 142 470 288 470 c 0
 434 470 544 374 544 230 c 0
 544 86 434 -10 288 -10 c 0
 142 -10 33 86 33 230 c 0
166 230 m 0
 166 152 220 100 288 100 c 0
 356 100 410 152 410 230 c 0
 410 308 356 360 288 360 c 0
 220 360 166 308 166 230 c 0
288 630 m 1
 192 542 l 1
 102 604 l 1
 288 744 l 1
 474 604 l 1
 385 542 l 1
 288 630 l 1
EndSplineSet
EndChar

StartChar: otilde
Encoding: 245 245 236
Width: 576
VWidth: 0
Flags: HM
LayerCount: 2
Fore
SplineSet
33 230 m 0
 33 374 142 470 288 470 c 0
 434 470 544 374 544 230 c 0
 544 86 434 -10 288 -10 c 0
 142 -10 33 86 33 230 c 0
166 230 m 0
 166 152 220 100 288 100 c 0
 356 100 410 152 410 230 c 0
 410 308 356 360 288 360 c 0
 220 360 166 308 166 230 c 0
101 588 m 1
 111 637 158 678 216 678 c 0
 282 678 294 628 350 628 c 0
 374 628 392 648 412 680 c 1
 475 614 l 1
 459 577 408 532 350 532 c 0
 295 532 264 584 216 584 c 0
 177 584 168 548 168 533 c 1
 101 588 l 1
EndSplineSet
EndChar

StartChar: odieresis
Encoding: 246 246 237
Width: 576
VWidth: 0
Flags: HMW
LayerCount: 2
Fore
SplineSet
33 230 m 0
 33 374 142 470 288 470 c 0
 434 470 544 374 544 230 c 0
 544 86 434 -10 288 -10 c 0
 142 -10 33 86 33 230 c 0
166 230 m 0
 166 152 220 100 288 100 c 0
 356 100 410 152 410 230 c 0
 410 308 356 360 288 360 c 0
 220 360 166 308 166 230 c 0
326 613 m 0
 326 655 360 687 404 687 c 0
 448 687 482 655 482 613 c 0
 482 571 448 539 404 539 c 0
 360 539 326 571 326 613 c 0
95 613 m 0
 95 655 129 687 173 687 c 0
 217 687 251 655 251 613 c 0
 251 571 217 539 173 539 c 0
 129 539 95 571 95 613 c 0
EndSplineSet
EndChar

StartChar: ugrave
Encoding: 249 249 238
Width: 560
VWidth: 0
Flags: HM
LayerCount: 2
Fore
SplineSet
366 0 m 1
 366 460 l 1
 496 460 l 1
 496 0 l 1
 366 0 l 1
199 180 m 2
 199 120 221 86 275 86 c 0
 329 86 366 122 366 180 c 1
 398 184 l 1
 398 75 334 -10 226 -10 c 0
 118 -10 64 52 64 166 c 2
 64 460 l 1
 199 460 l 1
 199 180 l 2
142 692 m 1
 246 740 l 1
 396 580 l 1
 322 542 l 1
 142 692 l 1
EndSplineSet
EndChar

StartChar: uacute
Encoding: 250 250 239
Width: 560
VWidth: 0
Flags: HM
LayerCount: 2
Fore
SplineSet
366 0 m 1
 366 460 l 1
 496 460 l 1
 496 0 l 1
 366 0 l 1
199 180 m 2
 199 120 221 86 275 86 c 0
 329 86 366 122 366 180 c 1
 398 184 l 1
 398 75 334 -10 226 -10 c 0
 118 -10 64 52 64 166 c 2
 64 460 l 1
 199 460 l 1
 199 180 l 2
417 692 m 1
 237 542 l 1
 164 580 l 1
 314 740 l 1
 417 692 l 1
EndSplineSet
EndChar

StartChar: ucircumflex
Encoding: 251 251 240
Width: 560
VWidth: 0
Flags: HM
LayerCount: 2
Fore
SplineSet
366 0 m 1
 366 460 l 1
 496 460 l 1
 496 0 l 1
 366 0 l 1
199 180 m 2
 199 120 221 86 275 86 c 0
 329 86 366 122 366 180 c 1
 398 184 l 1
 398 75 334 -10 226 -10 c 0
 118 -10 64 52 64 166 c 2
 64 460 l 1
 199 460 l 1
 199 180 l 2
280 630 m 1
 183 542 l 1
 94 604 l 1
 280 744 l 1
 466 604 l 1
 376 542 l 1
 280 630 l 1
EndSplineSet
EndChar

StartChar: udieresis
Encoding: 252 252 241
Width: 560
VWidth: 0
Flags: HMW
LayerCount: 2
Fore
SplineSet
366 0 m 1
 366 460 l 1
 496 460 l 1
 496 0 l 1
 366 0 l 1
199 180 m 2
 199 120 220 86 274 86 c 0
 328 86 366 122 366 180 c 1
 395 184 l 1
 395 75 334 -10 226 -10 c 0
 118 -10 64 52 64 166 c 2
 64 460 l 1
 199 460 l 1
 199 180 l 2
318 610 m 0
 318 652 352 684 396 684 c 0
 440 684 474 652 474 610 c 0
 474 568 440 536 396 536 c 0
 352 536 318 568 318 610 c 0
87 610 m 0
 87 652 121 684 165 684 c 0
 209 684 243 652 243 610 c 0
 243 568 209 536 165 536 c 0
 121 536 87 568 87 610 c 0
EndSplineSet
EndChar

StartChar: yacute
Encoding: 253 253 242
Width: 496
VWidth: 0
Flags: HMW
LayerCount: 2
Fore
SplineSet
503 460 m 1
 203 -220 l 1
 70 -220 l 1
 186 46 l 1
 -7 460 l 1
 139 460 l 1
 286 93 l 1
 222 96 l 1
 368 460 l 1
 503 460 l 1
400 692 m 1
 220 542 l 1
 147 580 l 1
 297 740 l 1
 400 692 l 1
EndSplineSet
EndChar

StartChar: thorn
Encoding: 254 254 243
Width: 599
VWidth: 0
Flags: HMW
LayerCount: 2
Fore
SplineSet
188 -220 m 1
 62 -220 l 1
 62 780 l 1
 188 780 l 1
 188 -220 l 1
566 230 m 0
 566 77 463 -10 345 -10 c 0
 230 -10 148 81 148 230 c 0
 148 379 230 470 345 470 c 0
 463 470 566 383 566 230 c 0
436 230 m 0
 436 314 378 365 309 365 c 0
 251 365 188 316 188 230 c 0
 188 144 251 95 309 95 c 0
 378 95 436 146 436 230 c 0
EndSplineSet
EndChar

StartChar: ydieresis
Encoding: 255 255 244
Width: 496
VWidth: 0
Flags: HMW
LayerCount: 2
Fore
SplineSet
503 460 m 1
 203 -220 l 1
 70 -220 l 1
 186 46 l 1
 -7 460 l 1
 139 460 l 1
 286 93 l 1
 222 96 l 1
 368 460 l 1
 503 460 l 1
286 604 m 0
 286 646 320 678 364 678 c 0
 408 678 442 646 442 604 c 0
 442 562 408 530 364 530 c 0
 320 530 286 562 286 604 c 0
54 604 m 0
 54 646 88 678 132 678 c 0
 176 678 210 646 210 604 c 0
 210 562 176 530 132 530 c 0
 88 530 54 562 54 604 c 0
EndSplineSet
EndChar

StartChar: Amacron
Encoding: 256 256 245
Width: 712
VWidth: 0
Flags: HM
LayerCount: 2
Fore
SplineSet
173 158 m 1
 190 272 l 1
 527 272 l 1
 543 158 l 1
 173 158 l 1
356 472 m 1
 252 231 l 1
 255 199 l 1
 163 0 l 1
 0 0 l 1
 356 742 l 1
 712 0 l 1
 549 0 l 1
 460 192 l 1
 461 229 l 1
 356 472 l 1
174 802 m 1
 174 916 l 1
 538 916 l 1
 538 802 l 1
 174 802 l 1
EndSplineSet
EndChar

StartChar: amacron
Encoding: 257 257 246
Width: 526
VWidth: 0
Flags: HM
LayerCount: 2
Fore
SplineSet
156 137 m 0
 156 99 185 80 232 80 c 0
 294 80 345 106 345 184 c 1
 361 130 l 1
 361 41 285 -10 190 -10 c 0
 90 -10 26 41 26 127 c 0
 26 225 108 281 224 281 c 0
 298 281 360 248 378 228 c 1
 378 164 l 1
 340 192 304 206 250 206 c 0
 190 206 156 179 156 137 c 0
116 328 m 1
 68 418 l 1
 116 443 185 472 268 472 c 0
 386 472 470 420 470 326 c 2
 470 0 l 1
 345 0 l 1
 345 305 l 2
 345 346 309 370 259 370 c 0
 193 370 138 342 116 328 c 1
85 543 m 1
 85 658 l 1
 450 658 l 1
 450 543 l 1
 85 543 l 1
EndSplineSet
Substitution2: "alt a" amacron.alt
EndChar

StartChar: breve
Encoding: 728 728 247
Width: 546
VWidth: 0
Flags: HMW
LayerCount: 2
Fore
SplineSet
110 850 m 1
 202 850 l 1
 202 817 225 786 273 786 c 0
 321 786 344 817 344 850 c 1
 436 850 l 1
 436 772 378 706 273 706 c 0
 168 706 110 772 110 850 c 1
EndSplineSet
EndChar

StartChar: Abreve
Encoding: 258 258 248
Width: 712
VWidth: 0
Flags: HM
LayerCount: 2
Fore
SplineSet
173 158 m 1
 190 272 l 1
 527 272 l 1
 543 158 l 1
 173 158 l 1
356 472 m 1
 252 231 l 1
 255 199 l 1
 163 0 l 1
 0 0 l 1
 356 742 l 1
 712 0 l 1
 549 0 l 1
 460 192 l 1
 461 229 l 1
 356 472 l 1
194 946 m 1
 284 946 l 1
 284 913 308 882 356 882 c 0
 404 882 428 913 428 946 c 1
 519 946 l 1
 519 868 461 802 356 802 c 0
 251 802 194 868 194 946 c 1
EndSplineSet
EndChar

StartChar: abreve
Encoding: 259 259 249
Width: 526
VWidth: 0
Flags: HM
LayerCount: 2
Fore
SplineSet
156 137 m 0
 156 99 185 80 232 80 c 0
 294 80 345 106 345 184 c 1
 361 130 l 1
 361 41 285 -10 190 -10 c 0
 90 -10 26 41 26 127 c 0
 26 225 108 281 224 281 c 0
 298 281 360 248 378 228 c 1
 378 164 l 1
 340 192 304 206 250 206 c 0
 190 206 156 179 156 137 c 0
116 328 m 1
 68 418 l 1
 116 443 185 472 268 472 c 0
 386 472 470 420 470 326 c 2
 470 0 l 1
 345 0 l 1
 345 305 l 2
 345 346 309 370 259 370 c 0
 193 370 138 342 116 328 c 1
106 677 m 1
 196 677 l 1
 196 644 220 612 268 612 c 0
 316 612 340 644 340 677 c 1
 430 677 l 1
 430 599 373 532 268 532 c 0
 163 532 106 599 106 677 c 1
EndSplineSet
Substitution2: "alt a" abreve.alt
EndChar

StartChar: Aogonek
Encoding: 260 260 250
Width: 712
VWidth: 0
Flags: HM
LayerCount: 2
Fore
SplineSet
173 158 m 1
 190 272 l 1
 527 272 l 1
 543 158 l 1
 173 158 l 1
356 472 m 1
 252 231 l 1
 255 199 l 1
 163 0 l 1
 0 0 l 1
 356 742 l 1
 712 0 l 1
 549 0 l 1
 460 192 l 1
 461 229 l 1
 356 472 l 1
688 -111 m 1
 720 -174 l 1
 705 -194 676 -214 624 -214 c 0
 554 -214 506 -178 506 -114 c 1
 598 -90 l 1
 598 -118 612 -131 638 -131 c 0
 660 -131 674 -124 688 -111 c 1
598 -90 m 1
 506 -114 l 1
 506 -50 572 -6 642 30 c 1
 682 6 l 1
 630 -20 598 -58 598 -90 c 1
EndSplineSet
EndChar

StartChar: aogonek
Encoding: 261 261 251
Width: 526
VWidth: 0
Flags: HM
LayerCount: 2
Fore
SplineSet
156 137 m 0
 156 99 185 80 232 80 c 0
 294 80 345 106 345 184 c 1
 361 130 l 1
 361 41 285 -10 190 -10 c 0
 90 -10 26 41 26 127 c 0
 26 225 108 281 224 281 c 0
 298 281 360 248 378 228 c 1
 378 164 l 1
 340 192 304 206 250 206 c 0
 190 206 156 179 156 137 c 0
116 328 m 1
 68 418 l 1
 116 443 185 472 268 472 c 0
 386 472 470 420 470 326 c 2
 470 0 l 1
 345 0 l 1
 345 305 l 2
 345 346 309 370 259 370 c 0
 193 370 138 342 116 328 c 1
460 -116 m 1
 493 -178 l 1
 478 -198 448 -218 396 -218 c 0
 326 -218 278 -182 278 -118 c 1
 371 -94 l 1
 371 -122 384 -136 410 -136 c 0
 432 -136 446 -129 460 -116 c 1
371 -94 m 1
 278 -118 l 1
 278 -54 344 -10 414 26 c 1
 455 2 l 1
 403 -24 371 -62 371 -94 c 1
EndSplineSet
Substitution2: "alt a" aogonek.alt
EndChar

StartChar: Cacute
Encoding: 262 262 252
Width: 695
VWidth: 0
Flags: HM
LayerCount: 2
Fore
SplineSet
192 350 m 0
 192 212 296 124 416 124 c 0
 515 124 583 166 630 220 c 1
 630 58 l 1
 573 12 512 -14 410 -14 c 0
 194 -14 36 134 36 350 c 0
 36 566 194 714 410 714 c 0
 512 714 573 688 630 642 c 1
 630 480 l 1
 583 534 515 576 416 576 c 0
 296 576 192 488 192 350 c 0
540 924 m 1
 360 774 l 1
 286 814 l 1
 436 974 l 1
 540 924 l 1
EndSplineSet
EndChar

StartChar: cacute
Encoding: 263 263 253
Width: 488
VWidth: 0
Flags: HM
LayerCount: 2
Fore
SplineSet
164 230 m 0
 164 150 222 96 296 96 c 0
 356 96 413 126 439 170 c 1
 439 37 l 1
 407 7 356 -10 288 -10 c 0
 140 -10 30 86 30 230 c 0
 30 374 140 470 288 470 c 0
 356 470 407 450 439 424 c 1
 439 290 l 1
 413 334 352 364 296 364 c 0
 222 364 164 306 164 230 c 0
418 680 m 1
 238 530 l 1
 164 569 l 1
 314 729 l 1
 418 680 l 1
EndSplineSet
EndChar

StartChar: Ccircumflex
Encoding: 264 264 254
Width: 695
VWidth: 0
Flags: HM
LayerCount: 2
Fore
SplineSet
192 350 m 0
 192 212 296 124 416 124 c 0
 515 124 583 166 630 220 c 1
 630 58 l 1
 573 12 512 -14 410 -14 c 0
 194 -14 36 134 36 350 c 0
 36 566 194 714 410 714 c 0
 512 714 573 688 630 642 c 1
 630 480 l 1
 583 534 515 576 416 576 c 0
 296 576 192 488 192 350 c 0
410 863 m 1
 313 774 l 1
 223 836 l 1
 410 976 l 1
 596 836 l 1
 507 774 l 1
 410 863 l 1
EndSplineSet
EndChar

StartChar: ccircumflex
Encoding: 265 265 255
Width: 488
VWidth: 0
Flags: HM
LayerCount: 2
Fore
SplineSet
164 230 m 0
 164 150 222 96 296 96 c 0
 356 96 413 126 439 170 c 1
 439 37 l 1
 407 7 356 -10 288 -10 c 0
 140 -10 30 86 30 230 c 0
 30 374 140 470 288 470 c 0
 356 470 407 450 439 424 c 1
 439 290 l 1
 413 334 352 364 296 364 c 0
 222 364 164 306 164 230 c 0
266 619 m 1
 169 530 l 1
 80 592 l 1
 266 732 l 1
 452 592 l 1
 362 530 l 1
 266 619 l 1
EndSplineSet
EndChar

StartChar: Cdotaccent
Encoding: 266 266 256
Width: 695
VWidth: 0
Flags: HMW
LayerCount: 2
Fore
SplineSet
192 350 m 0
 192 212 296 124 416 124 c 0
 515 124 583 166 630 220 c 1
 630 58 l 1
 573 12 512 -14 410 -14 c 0
 194 -14 36 134 36 350 c 0
 36 566 194 714 410 714 c 0
 512 714 573 688 630 642 c 1
 630 480 l 1
 583 534 515 576 416 576 c 0
 296 576 192 488 192 350 c 0
310 848 m 0
 310 890 344 922 388 922 c 0
 432 922 466 890 466 848 c 0
 466 806 432 774 388 774 c 0
 344 774 310 806 310 848 c 0
EndSplineSet
EndChar

StartChar: cdotaccent
Encoding: 267 267 257
Width: 488
VWidth: 0
Flags: HMW
LayerCount: 2
Fore
SplineSet
164 230 m 0
 164 150 222 96 296 96 c 0
 356 96 413 126 439 170 c 1
 439 37 l 1
 407 7 356 -10 288 -10 c 0
 140 -10 30 86 30 230 c 0
 30 374 140 470 288 470 c 0
 356 470 407 450 439 424 c 1
 439 290 l 1
 413 334 352 364 296 364 c 0
 222 364 164 306 164 230 c 0
188 604 m 0
 188 646 222 678 266 678 c 0
 310 678 344 646 344 604 c 0
 344 562 310 530 266 530 c 0
 222 530 188 562 188 604 c 0
EndSplineSet
EndChar

StartChar: Ccaron
Encoding: 268 268 258
Width: 695
VWidth: 0
Flags: HM
LayerCount: 2
Fore
SplineSet
192 350 m 0
 192 212 296 124 416 124 c 0
 515 124 583 166 630 220 c 1
 630 58 l 1
 573 12 512 -14 410 -14 c 0
 194 -14 36 134 36 350 c 0
 36 566 194 714 410 714 c 0
 512 714 573 688 630 642 c 1
 630 480 l 1
 583 534 515 576 416 576 c 0
 296 576 192 488 192 350 c 0
410 888 m 1
 507 976 l 1
 596 914 l 1
 410 774 l 1
 223 914 l 1
 313 976 l 1
 410 888 l 1
EndSplineSet
EndChar

StartChar: ccaron
Encoding: 269 269 259
Width: 488
VWidth: 0
Flags: HM
LayerCount: 2
Fore
SplineSet
164 230 m 0
 164 150 222 96 296 96 c 0
 356 96 413 126 439 170 c 1
 439 37 l 1
 407 7 356 -10 288 -10 c 0
 140 -10 30 86 30 230 c 0
 30 374 140 470 288 470 c 0
 356 470 407 450 439 424 c 1
 439 290 l 1
 413 334 352 364 296 364 c 0
 222 364 164 306 164 230 c 0
266 644 m 1
 362 732 l 1
 452 670 l 1
 266 530 l 1
 80 670 l 1
 169 732 l 1
 266 644 l 1
EndSplineSet
EndChar

StartChar: Dcaron
Encoding: 270 270 260
Width: 717
VWidth: 0
Flags: HM
LayerCount: 2
Fore
SplineSet
168 570 m 1
 168 700 l 1
 314 700 l 2
 536 700 682 564 682 350 c 1
 533 350 l 1
 533 504 433 570 310 570 c 2
 168 570 l 1
314 0 m 2
 168 0 l 1
 168 130 l 1
 310 130 l 2
 433 130 533 196 533 350 c 1
 682 350 l 1
 682 136 536 0 314 0 c 2
76 700 m 1
 223 700 l 1
 223 0 l 1
 76 0 l 1
 76 700 l 1
345 888 m 1
 442 976 l 1
 530 914 l 1
 345 774 l 1
 158 914 l 1
 248 976 l 1
 345 888 l 1
EndSplineSet
EndChar

StartChar: dcaron
Encoding: 271 271 261
Width: 602
VWidth: 0
Flags: HMW
LayerCount: 2
Fore
SplineSet
412 780 m 1
 542 780 l 1
 542 0 l 1
 412 0 l 1
 412 780 l 1
33 230 m 0
 33 384 138 470 254 470 c 0
 369 470 452 379 452 230 c 0
 452 81 369 -10 254 -10 c 0
 138 -10 33 76 33 230 c 0
168 230 m 0
 168 148 224 98 292 98 c 0
 348 98 412 146 412 230 c 0
 412 314 348 362 292 362 c 0
 224 362 168 312 168 230 c 0
660 780 m 1
 790 748 l 1
 669 498 l 1
 572 521 l 1
 660 780 l 1
EndSplineSet
EndChar

StartChar: Dcroat
Encoding: 272 272 262
Width: 717
VWidth: 0
Flags: HMW
LayerCount: 2
Fore
SplineSet
168 570 m 1
 168 700 l 1
 314 700 l 2
 536 700 682 564 682 350 c 1
 533 350 l 1
 533 504 433 570 310 570 c 2
 168 570 l 1
314 0 m 2
 168 0 l 1
 168 130 l 1
 310 130 l 2
 433 130 533 196 533 350 c 1
 682 350 l 1
 682 136 536 0 314 0 c 2
76 700 m 1
 223 700 l 1
 223 0 l 1
 76 0 l 1
 76 700 l 1
5 302 m 1
 5 394 l 1
 335 394 l 1
 335 302 l 1
 5 302 l 1
EndSplineSet
EndChar

StartChar: dcroat
Encoding: 273 273 263
Width: 602
VWidth: 0
Flags: HMW
LayerCount: 2
Fore
SplineSet
295 572 m 1
 295 665 l 1
 635 665 l 1
 635 572 l 1
 295 572 l 1
412 780 m 1
 542 780 l 1
 542 0 l 1
 412 0 l 1
 412 780 l 1
33 230 m 0
 33 384 138 470 254 470 c 0
 369 470 452 379 452 230 c 0
 452 81 369 -10 254 -10 c 0
 138 -10 33 76 33 230 c 0
168 230 m 0
 168 148 224 98 292 98 c 0
 348 98 412 146 412 230 c 0
 412 314 348 362 292 362 c 0
 224 362 168 312 168 230 c 0
EndSplineSet
EndChar

StartChar: Emacron
Encoding: 274 274 264
Width: 587
VWidth: 0
Flags: HM
LayerCount: 2
Fore
SplineSet
168 0 m 1
 168 122 l 1
 522 122 l 1
 522 0 l 1
 168 0 l 1
168 578 m 1
 168 700 l 1
 522 700 l 1
 522 578 l 1
 168 578 l 1
168 312 m 1
 168 431 l 1
 502 431 l 1
 502 312 l 1
 168 312 l 1
76 700 m 1
 216 700 l 1
 216 0 l 1
 76 0 l 1
 76 700 l 1
116 774 m 1
 116 889 l 1
 481 889 l 1
 481 774 l 1
 116 774 l 1
EndSplineSet
EndChar

StartChar: emacron
Encoding: 275 275 265
Width: 555
VWidth: 0
Flags: HMW
LayerCount: 2
Fore
SplineSet
96 202 m 1
 96 281 l 1
 503 281 l 1
 520 202 l 1
 96 202 l 1
384 246 m 2
 384 328 352 378 280 378 c 0
 214 378 166 334 166 256 c 1
 164 230 l 1
 164 132 214 90 282 90 c 0
 340 90 382 113 406 155 c 1
 520 120 l 1
 474 42 410 -10 282 -10 c 0
 127 -10 33 91 33 230 c 0
 33 247 34 263 37 279 c 0
 56 392 141 470 282 470 c 0
 434 470 522 381 522 236 c 0
 522 228 522 216 520 202 c 1
 384 222 l 1
 384 246 l 2
100 530 m 1
 100 645 l 1
 466 645 l 1
 466 530 l 1
 100 530 l 1
EndSplineSet
EndChar

StartChar: Ebreve
Encoding: 276 276 266
Width: 587
VWidth: 0
Flags: HM
LayerCount: 2
Fore
SplineSet
168 0 m 1
 168 122 l 1
 522 122 l 1
 522 0 l 1
 168 0 l 1
168 578 m 1
 168 700 l 1
 522 700 l 1
 522 578 l 1
 168 578 l 1
168 312 m 1
 168 431 l 1
 502 431 l 1
 502 312 l 1
 168 312 l 1
76 700 m 1
 216 700 l 1
 216 0 l 1
 76 0 l 1
 76 700 l 1
136 918 m 1
 226 918 l 1
 226 885 250 854 298 854 c 0
 346 854 370 885 370 918 c 1
 460 918 l 1
 460 840 403 774 298 774 c 0
 193 774 136 840 136 918 c 1
EndSplineSet
EndChar

StartChar: ebreve
Encoding: 277 277 267
Width: 555
VWidth: 0
Flags: HMW
LayerCount: 2
Fore
SplineSet
96 202 m 1
 96 281 l 1
 503 281 l 1
 520 202 l 1
 96 202 l 1
384 246 m 2
 384 328 352 378 280 378 c 0
 214 378 166 334 166 256 c 1
 164 230 l 1
 164 132 214 90 282 90 c 0
 340 90 382 113 406 155 c 1
 520 120 l 1
 474 42 410 -10 282 -10 c 0
 127 -10 33 91 33 230 c 0
 33 247 34 263 37 279 c 0
 56 392 141 470 282 470 c 0
 434 470 522 381 522 236 c 0
 522 228 522 216 520 202 c 1
 384 222 l 1
 384 246 l 2
120 675 m 1
 211 675 l 1
 211 642 234 611 282 611 c 0
 330 611 354 642 354 675 c 1
 446 675 l 1
 446 597 387 530 282 530 c 0
 177 530 120 597 120 675 c 1
EndSplineSet
EndChar

StartChar: Edotaccent
Encoding: 278 278 268
Width: 587
VWidth: 0
Flags: HMW
LayerCount: 2
Fore
SplineSet
168 0 m 1
 168 122 l 1
 522 122 l 1
 522 0 l 1
 168 0 l 1
168 578 m 1
 168 700 l 1
 522 700 l 1
 522 578 l 1
 168 578 l 1
168 312 m 1
 168 431 l 1
 502 431 l 1
 502 312 l 1
 168 312 l 1
76 700 m 1
 216 700 l 1
 216 0 l 1
 76 0 l 1
 76 700 l 1
220 850 m 0
 220 893 254 926 298 926 c 0
 342 926 378 893 378 850 c 0
 378 807 342 774 298 774 c 0
 254 774 220 807 220 850 c 0
EndSplineSet
EndChar

StartChar: edotaccent
Encoding: 279 279 269
Width: 550
VWidth: 0
Flags: HMW
LayerCount: 2
Fore
SplineSet
96 202 m 1
 96 284 l 1
 496 284 l 1
 512 202 l 1
 96 202 l 1
390 246 m 2
 390 325 355 374 280 374 c 0
 211 374 162 330 162 256 c 1
 160 230 l 1
 160 138 214 92 288 92 c 0
 341 92 376 114 398 155 c 1
 508 115 l 1
 467 41 405 -10 282 -10 c 0
 137 -10 36 91 36 230 c 0
 36 247 37 264 40 280 c 0
 59 393 151 470 282 470 c 0
 418 470 514 381 514 236 c 0
 514 228 514 216 512 202 c 1
 390 222 l 1
 390 246 l 2
204 606 m 0
 204 649 238 682 282 682 c 0
 326 682 362 649 362 606 c 0
 362 563 326 530 282 530 c 0
 238 530 204 563 204 606 c 0
EndSplineSet
EndChar

StartChar: Eogonek
Encoding: 280 280 270
Width: 587
VWidth: 0
Flags: HM
LayerCount: 2
Fore
SplineSet
168 0 m 1
 168 122 l 1
 522 122 l 1
 522 0 l 1
 168 0 l 1
168 578 m 1
 168 700 l 1
 522 700 l 1
 522 578 l 1
 168 578 l 1
168 312 m 1
 168 431 l 1
 502 431 l 1
 502 312 l 1
 168 312 l 1
76 700 m 1
 216 700 l 1
 216 0 l 1
 76 0 l 1
 76 700 l 1
504 -116 m 1
 538 -179 l 1
 523 -199 492 -219 440 -219 c 0
 370 -219 322 -183 322 -119 c 1
 415 -95 l 1
 415 -123 428 -136 454 -136 c 0
 476 -136 490 -129 504 -116 c 1
415 -95 m 1
 322 -119 l 1
 322 -55 388 -10 458 26 c 1
 500 1 l 1
 448 -25 415 -63 415 -95 c 1
EndSplineSet
EndChar

StartChar: eogonek
Encoding: 281 281 271
Width: 555
VWidth: 0
Flags: HMW
LayerCount: 2
Fore
SplineSet
96 202 m 1
 96 281 l 1
 503 281 l 1
 520 202 l 1
 96 202 l 1
384 246 m 2
 384 328 352 378 280 378 c 0
 214 378 166 334 166 256 c 1
 164 230 l 1
 164 132 214 90 282 90 c 0
 340 90 382 113 406 155 c 1
 520 120 l 1
 474 42 410 -10 282 -10 c 0
 127 -10 33 91 33 230 c 0
 33 247 34 263 37 279 c 0
 56 392 141 470 282 470 c 0
 434 470 522 381 522 236 c 0
 522 228 522 216 520 202 c 1
 384 222 l 1
 384 246 l 2
324 -121 m 1
 356 -185 l 1
 341 -205 312 -225 260 -225 c 0
 190 -225 140 -189 140 -125 c 1
 234 -101 l 1
 234 -129 248 -141 274 -141 c 0
 296 -141 310 -134 324 -121 c 1
234 -101 m 1
 140 -125 l 1
 140 -61 208 -16 278 20 c 1
 318 -5 l 1
 266 -31 234 -69 234 -101 c 1
EndSplineSet
EndChar

StartChar: Ecaron
Encoding: 282 282 272
Width: 587
VWidth: 0
Flags: HM
LayerCount: 2
Fore
SplineSet
168 0 m 1
 168 122 l 1
 522 122 l 1
 522 0 l 1
 168 0 l 1
168 578 m 1
 168 700 l 1
 522 700 l 1
 522 578 l 1
 168 578 l 1
168 312 m 1
 168 431 l 1
 502 431 l 1
 502 312 l 1
 168 312 l 1
76 700 m 1
 216 700 l 1
 216 0 l 1
 76 0 l 1
 76 700 l 1
298 888 m 1
 396 976 l 1
 485 914 l 1
 298 774 l 1
 112 914 l 1
 202 976 l 1
 298 888 l 1
EndSplineSet
EndChar

StartChar: ecaron
Encoding: 283 283 273
Width: 555
VWidth: 0
Flags: HMW
LayerCount: 2
Fore
SplineSet
96 202 m 1
 96 281 l 1
 503 281 l 1
 520 202 l 1
 96 202 l 1
384 246 m 2
 384 328 352 378 280 378 c 0
 214 378 166 334 166 256 c 1
 164 230 l 1
 164 132 214 90 282 90 c 0
 340 90 382 113 406 155 c 1
 520 120 l 1
 474 42 410 -10 282 -10 c 0
 127 -10 33 91 33 230 c 0
 33 247 34 263 37 279 c 0
 56 392 141 470 282 470 c 0
 434 470 522 381 522 236 c 0
 522 228 522 216 520 202 c 1
 384 222 l 1
 384 246 l 2
282 644 m 1
 380 732 l 1
 468 670 l 1
 282 530 l 1
 96 670 l 1
 186 732 l 1
 282 644 l 1
EndSplineSet
EndChar

StartChar: Gcircumflex
Encoding: 284 284 274
Width: 802
VWidth: 0
Flags: HMW
LayerCount: 2
Fore
SplineSet
416 260 m 1
 416 374 l 1
 762 374 l 1
 682 260 l 1
 416 260 l 1
762 374 m 1
 770 160 642 -18 410 -18 c 0
 192 -18 36 132 36 350 c 0
 36 568 196 714 414 714 c 0
 556 714 659 651 723 554 c 1
 600 482 l 1
 564 542 504 585 414 585 c 0
 288 585 186 496 186 350 c 0
 186 204 284 110 414 110 c 0
 574 110 630 234 630 370 c 1
 762 374 l 1
414 863 m 1
 318 774 l 1
 228 836 l 1
 414 976 l 1
 600 836 l 1
 512 774 l 1
 414 863 l 1
EndSplineSet
EndChar

StartChar: gcircumflex
Encoding: 285 285 275
Width: 598
VWidth: 0
Flags: HM
LayerCount: 2
Fore
SplineSet
452 234 m 1
 412 234 l 1
 412 318 348 362 292 362 c 0
 224 362 168 316 168 234 c 1
 33 234 l 1
 33 388 138 470 254 470 c 0
 369 470 452 383 452 234 c 1
412 234 m 1
 452 234 l 1
 452 85 369 -2 254 -2 c 0
 138 -2 33 80 33 234 c 1
 168 234 l 1
 168 152 224 106 292 106 c 0
 348 106 412 150 412 234 c 1
42 -32 m 1
 169 -32 l 1
 173 -91 218 -129 286 -129 c 0
 352 -129 412 -84 412 10 c 2
 412 460 l 1
 537 460 l 1
 537 10 l 2
 537 -162 424 -237 292 -237 c 0
 131 -237 50 -153 42 -32 c 1
293 619 m 1
 197 530 l 1
 108 592 l 1
 293 732 l 1
 480 592 l 1
 390 530 l 1
 293 619 l 1
EndSplineSet
EndChar

StartChar: Gbreve
Encoding: 286 286 276
Width: 802
VWidth: 0
Flags: HMW
LayerCount: 2
Fore
SplineSet
416 260 m 1
 416 374 l 1
 762 374 l 1
 682 260 l 1
 416 260 l 1
762 374 m 1
 770 160 642 -18 410 -18 c 0
 192 -18 36 132 36 350 c 0
 36 568 196 714 414 714 c 0
 556 714 659 651 723 554 c 1
 600 482 l 1
 564 542 504 585 414 585 c 0
 288 585 186 496 186 350 c 0
 186 204 284 110 414 110 c 0
 574 110 630 234 630 370 c 1
 762 374 l 1
252 918 m 1
 343 918 l 1
 343 885 366 854 414 854 c 0
 462 854 486 885 486 918 c 1
 578 918 l 1
 578 840 519 774 414 774 c 0
 309 774 252 840 252 918 c 1
EndSplineSet
EndChar

StartChar: gbreve
Encoding: 287 287 277
Width: 598
VWidth: 0
Flags: HM
LayerCount: 2
Fore
SplineSet
452 234 m 1
 412 234 l 1
 412 318 348 362 292 362 c 0
 224 362 168 316 168 234 c 1
 33 234 l 1
 33 388 138 470 254 470 c 0
 369 470 452 383 452 234 c 1
412 234 m 1
 452 234 l 1
 452 85 369 -2 254 -2 c 0
 138 -2 33 80 33 234 c 1
 168 234 l 1
 168 152 224 106 292 106 c 0
 348 106 412 150 412 234 c 1
42 -32 m 1
 169 -32 l 1
 173 -91 218 -129 286 -129 c 0
 352 -129 412 -84 412 10 c 2
 412 460 l 1
 537 460 l 1
 537 10 l 2
 537 -162 424 -237 292 -237 c 0
 131 -237 50 -153 42 -32 c 1
135 675 m 1
 226 675 l 1
 226 642 250 611 298 611 c 0
 346 611 370 642 370 675 c 1
 461 675 l 1
 461 597 403 530 298 530 c 0
 193 530 135 597 135 675 c 1
EndSplineSet
EndChar

StartChar: Gdotaccent
Encoding: 288 288 278
Width: 802
VWidth: 0
Flags: HMW
LayerCount: 2
Fore
SplineSet
416 260 m 1
 416 374 l 1
 762 374 l 1
 682 260 l 1
 416 260 l 1
762 374 m 1
 770 160 642 -18 410 -18 c 0
 192 -18 36 132 36 350 c 0
 36 568 196 714 414 714 c 0
 556 714 659 651 723 554 c 1
 600 482 l 1
 564 542 504 585 414 585 c 0
 288 585 186 496 186 350 c 0
 186 204 284 110 414 110 c 0
 574 110 630 234 630 370 c 1
 762 374 l 1
336 848 m 0
 336 890 370 922 414 922 c 0
 458 922 492 890 492 848 c 0
 492 806 458 774 414 774 c 0
 370 774 336 806 336 848 c 0
EndSplineSet
EndChar

StartChar: gdotaccent
Encoding: 289 289 279
Width: 598
VWidth: 0
Flags: HM
LayerCount: 2
Fore
SplineSet
42 -32 m 1
 169 -32 l 1
 173 -91 218 -129 286 -129 c 0
 352 -129 412 -84 412 10 c 2
 412 460 l 1
 537 460 l 1
 537 10 l 2
 537 -162 424 -237 292 -237 c 0
 131 -237 50 -153 42 -32 c 1
33 234 m 0
 33 388 138 470 254 470 c 0
 369 470 452 383 452 234 c 0
 452 85 369 -2 254 -2 c 0
 138 -2 33 80 33 234 c 0
168 234 m 0
 168 152 224 106 292 106 c 0
 348 106 412 150 412 234 c 0
 412 318 348 362 292 362 c 0
 224 362 168 316 168 234 c 0
246 624 m 4
 246 666 280 698 324 698 c 4
 368 698 402 666 402 624 c 4
 402 582 368 550 324 550 c 4
 280 550 246 582 246 624 c 4
EndSplineSet
EndChar

StartChar: uni0122
Encoding: 290 290 280
Width: 802
VWidth: 0
Flags: HMW
LayerCount: 2
Fore
SplineSet
416 260 m 1
 416 374 l 1
 762 374 l 1
 682 260 l 1
 416 260 l 1
762 374 m 1
 770 160 642 -18 410 -18 c 0
 192 -18 36 132 36 350 c 0
 36 568 196 714 414 714 c 0
 556 714 659 651 723 554 c 1
 600 482 l 1
 564 542 504 585 414 585 c 0
 288 585 186 496 186 350 c 0
 186 204 284 110 414 110 c 0
 574 110 630 234 630 370 c 1
 762 374 l 1
368 -78 m 1
 498 -110 l 1
 376 -360 l 1
 280 -338 l 1
 368 -78 l 1
EndSplineSet
EndChar

StartChar: Hcircumflex
Encoding: 292 292 281
Width: 764
VWidth: 0
Flags: HM
LayerCount: 2
Fore
SplineSet
122 307 m 1
 122 438 l 1
 637 438 l 1
 637 307 l 1
 122 307 l 1
546 700 m 1
 690 700 l 1
 690 0 l 1
 546 0 l 1
 546 700 l 1
76 700 m 1
 220 700 l 1
 220 0 l 1
 76 0 l 1
 76 700 l 1
383 863 m 1
 286 774 l 1
 196 836 l 1
 383 976 l 1
 569 836 l 1
 480 774 l 1
 383 863 l 1
EndSplineSet
EndChar

StartChar: hcircumflex
Encoding: 293 293 282
Width: 555
VWidth: 0
Flags: HM
LayerCount: 2
Fore
SplineSet
195 780 m 1
 195 0 l 1
 64 0 l 1
 64 780 l 1
 195 780 l 1
362 280 m 2
 362 340 340 374 286 374 c 0
 232 374 195 338 195 280 c 1
 163 280 l 1
 163 389 226 475 334 475 c 0
 442 475 492 412 492 298 c 2
 492 0 l 1
 362 0 l 1
 362 280 l 2
199 928 m 1
 102 840 l 1
 12 902 l 1
 199 1042 l 1
 386 902 l 1
 296 840 l 1
 199 928 l 1
EndSplineSet
EndChar

StartChar: Itilde
Encoding: 296 296 283
Width: 297
VWidth: 0
Flags: HMW
LayerCount: 2
Fore
SplineSet
76 700 m 1
 222 700 l 1
 222 0 l 1
 76 0 l 1
 76 700 l 1
-38 832 m 1
 -28 881 18 922 76 922 c 0
 142 922 154 872 210 872 c 0
 234 872 253 892 273 924 c 1
 336 859 l 1
 320 822 268 777 210 777 c 0
 155 777 124 828 76 828 c 0
 37 828 28 792 28 777 c 1
 -38 832 l 1
EndSplineSet
EndChar

StartChar: itilde
Encoding: 297 297 284
Width: 271
VWidth: 0
Flags: HM
LayerCount: 2
Fore
SplineSet
72 460 m 1
 198 460 l 1
 198 0 l 1
 72 0 l 1
 72 460 l 1
-51 588 m 1
 -41 637 6 678 64 678 c 0
 130 678 140 628 196 628 c 0
 220 628 240 648 260 680 c 1
 322 614 l 1
 306 577 254 532 196 532 c 0
 141 532 110 584 62 584 c 0
 23 584 14 548 14 533 c 1
 -51 588 l 1
EndSplineSet
EndChar

StartChar: Imacron
Encoding: 298 298 285
Width: 297
VWidth: 0
Flags: HMW
LayerCount: 2
Fore
SplineSet
76 700 m 1
 222 700 l 1
 222 0 l 1
 76 0 l 1
 76 700 l 1
-34 774 m 1
 -34 889 l 1
 332 889 l 1
 332 774 l 1
 -34 774 l 1
EndSplineSet
EndChar

StartChar: imacron
Encoding: 299 299 286
Width: 271
VWidth: 0
Flags: HM
LayerCount: 2
Fore
SplineSet
72 460 m 1
 198 460 l 1
 198 0 l 1
 72 0 l 1
 72 460 l 1
-47 530 m 1
 -47 645 l 1
 318 645 l 1
 318 530 l 1
 -47 530 l 1
EndSplineSet
EndChar

StartChar: Ibreve
Encoding: 300 300 287
Width: 297
VWidth: 0
Flags: HMW
LayerCount: 2
Fore
SplineSet
76 700 m 1
 222 700 l 1
 222 0 l 1
 76 0 l 1
 76 700 l 1
-14 918 m 1
 78 918 l 1
 78 885 101 854 149 854 c 0
 197 854 220 885 220 918 c 1
 311 918 l 1
 311 840 254 774 149 774 c 0
 44 774 -14 840 -14 918 c 1
EndSplineSet
EndChar

StartChar: ibreve
Encoding: 301 301 288
Width: 271
VWidth: 0
Flags: HM
LayerCount: 2
Fore
SplineSet
72 460 m 1
 198 460 l 1
 198 0 l 1
 72 0 l 1
 72 460 l 1
-28 675 m 1
 64 675 l 1
 64 642 88 611 136 611 c 0
 184 611 206 642 206 675 c 1
 298 675 l 1
 298 597 241 530 136 530 c 0
 31 530 -28 597 -28 675 c 1
EndSplineSet
EndChar

StartChar: Iogonek
Encoding: 302 302 289
Width: 297
VWidth: 0
Flags: HMW
LayerCount: 2
Fore
SplineSet
76 700 m 1
 222 700 l 1
 222 0 l 1
 76 0 l 1
 76 700 l 1
208 -125 m 1
 241 -188 l 1
 226 -208 197 -228 145 -228 c 0
 75 -228 26 -192 26 -128 c 1
 118 -104 l 1
 118 -132 132 -145 158 -145 c 0
 180 -145 194 -138 208 -125 c 1
118 -104 m 1
 26 -128 l 1
 26 -64 92 -20 162 16 c 1
 203 -8 l 1
 151 -34 118 -72 118 -104 c 1
EndSplineSet
EndChar

StartChar: iogonek
Encoding: 303 303 290
Width: 271
VWidth: 0
Flags: HM
LayerCount: 2
Fore
SplineSet
58 638 m 0
 58 680 92 712 136 712 c 0
 180 712 214 680 214 638 c 0
 214 596 180 564 136 564 c 0
 92 564 58 596 58 638 c 0
72 460 m 1
 198 460 l 1
 198 0 l 1
 72 0 l 1
 72 460 l 1
194 -125 m 1
 228 -188 l 1
 213 -208 184 -228 132 -228 c 0
 62 -228 12 -192 12 -128 c 1
 106 -104 l 1
 106 -132 118 -145 144 -145 c 0
 166 -145 180 -138 194 -125 c 1
106 -104 m 1
 12 -128 l 1
 12 -64 78 -20 148 16 c 1
 190 -8 l 1
 138 -34 106 -72 106 -104 c 1
EndSplineSet
EndChar

StartChar: Idotaccent
Encoding: 304 304 291
Width: 297
VWidth: 0
Flags: HMW
LayerCount: 2
Fore
SplineSet
76 700 m 1
 222 700 l 1
 222 0 l 1
 76 0 l 1
 76 700 l 1
70 848 m 0
 70 890 104 922 148 922 c 0
 192 922 226 890 226 848 c 0
 226 806 192 774 148 774 c 0
 104 774 70 806 70 848 c 0
EndSplineSet
EndChar

StartChar: uni0136
Encoding: 310 310 292
Width: 659
VWidth: 0
Flags: HMW
LayerCount: 2
Fore
SplineSet
76 700 m 1
 224 700 l 1
 224 0 l 1
 76 0 l 1
 76 700 l 1
473 700 m 1
 644 700 l 1
 354 372 l 1
 658 0 l 1
 484 0 l 1
 182 368 l 1
 473 700 l 1
328 -60 m 1
 460 -92 l 1
 338 -342 l 1
 240 -319 l 1
 328 -60 l 1
EndSplineSet
EndChar

StartChar: uni0137
Encoding: 311 311 293
Width: 536
VWidth: 0
Flags: HM
LayerCount: 2
Fore
SplineSet
62 780 m 1
 187 780 l 1
 187 0 l 1
 62 0 l 1
 62 780 l 1
355 460 m 1
 512 460 l 1
 314 270 l 1
 532 0 l 1
 377 0 l 1
 158 270 l 1
 355 460 l 1
258 -60 m 1
 388 -92 l 1
 268 -342 l 1
 170 -319 l 1
 258 -60 l 1
EndSplineSet
EndChar

StartChar: Lacute
Encoding: 313 313 294
Width: 504
VWidth: 0
Flags: HM
LayerCount: 2
Fore
SplineSet
168 0 m 1
 168 126 l 1
 499 126 l 1
 499 0 l 1
 168 0 l 1
76 700 m 1
 220 700 l 1
 220 0 l 1
 76 0 l 1
 76 700 l 1
439 924 m 1
 259 774 l 1
 186 814 l 1
 336 974 l 1
 439 924 l 1
EndSplineSet
EndChar

StartChar: lacute
Encoding: 314 314 295
Width: 258
VWidth: 0
Flags: HM
LayerCount: 2
Fore
SplineSet
64 780 m 1
 195 780 l 1
 195 0 l 1
 64 0 l 1
 64 780 l 1
282 990 m 1
 102 840 l 1
 28 878 l 1
 178 1038 l 1
 282 990 l 1
EndSplineSet
EndChar

StartChar: uni013B
Encoding: 315 315 296
Width: 504
VWidth: 0
Flags: HM
LayerCount: 2
Fore
SplineSet
168 0 m 1
 168 126 l 1
 499 126 l 1
 499 0 l 1
 168 0 l 1
76 700 m 1
 220 700 l 1
 220 0 l 1
 76 0 l 1
 76 700 l 1
266 -60 m 1
 396 -92 l 1
 276 -342 l 1
 178 -319 l 1
 266 -60 l 1
EndSplineSet
EndChar

StartChar: uni013C
Encoding: 316 316 297
Width: 258
VWidth: 0
Flags: HM
LayerCount: 2
Fore
SplineSet
64 780 m 1
 195 780 l 1
 195 0 l 1
 64 0 l 1
 64 780 l 1
108 -60 m 1
 239 -92 l 1
 118 -342 l 1
 20 -319 l 1
 108 -60 l 1
EndSplineSet
EndChar

StartChar: Lcaron
Encoding: 317 317 298
Width: 504
VWidth: 0
Flags: HMW
LayerCount: 2
Fore
SplineSet
168 0 m 1
 168 126 l 1
 499 126 l 1
 499 0 l 1
 168 0 l 1
76 700 m 1
 220 700 l 1
 220 0 l 1
 76 0 l 1
 76 700 l 1
368 714 m 1
 499 683 l 1
 378 433 l 1
 280 456 l 1
 368 714 l 1
EndSplineSet
EndChar

StartChar: lcaron
Encoding: 318 318 299
Width: 258
VWidth: 0
Flags: HMW
LayerCount: 2
Fore
SplineSet
64 780 m 1
 195 780 l 1
 195 0 l 1
 64 0 l 1
 64 780 l 1
333 780 m 1
 462 748 l 1
 342 498 l 1
 245 521 l 1
 333 780 l 1
EndSplineSet
EndChar

StartChar: Ldot
Encoding: 319 319 300
Width: 504
VWidth: 0
Flags: HM
LayerCount: 2
Fore
SplineSet
168 0 m 1
 168 126 l 1
 499 126 l 1
 499 0 l 1
 168 0 l 1
76 700 m 1
 220 700 l 1
 220 0 l 1
 76 0 l 1
 76 700 l 1
300 417 m 0
 300 461 334 498 382 498 c 0
 430 498 464 461 464 417 c 0
 464 373 430 336 382 336 c 0
 334 336 300 373 300 417 c 0
EndSplineSet
EndChar

StartChar: ldot
Encoding: 320 320 301
Width: 444
VWidth: 0
Flags: HMW
LayerCount: 2
Fore
SplineSet
64 780 m 1
 195 780 l 1
 195 0 l 1
 64 0 l 1
 64 780 l 1
241 410 m 0
 241 454 276 492 324 492 c 0
 372 492 407 454 407 410 c 0
 407 366 372 329 324 329 c 0
 276 329 241 366 241 410 c 0
EndSplineSet
EndChar

StartChar: eth
Encoding: 240 240 302
Width: 641
VWidth: 0
Flags: HMW
LayerCount: 2
Fore
SplineSet
450 241 m 0
 450 319 395 374 321 374 c 0
 247 374 192 319 192 241 c 0
 192 163 247 110 321 110 c 0
 395 110 450 163 450 241 c 0
309 698 m 1
 521 420 l 2
 561 370 592 311 592 241 c 0
 592 77 471 -14 321 -14 c 0
 171 -14 50 77 50 241 c 0
 50 379 157 469 264 469 c 0
 312 469 344 460 378 425 c 1
 351 434 l 1
 127 698 l 1
 309 698 l 1
142 520 m 1
 142 594 l 1
 538 594 l 1
 538 520 l 1
 142 520 l 1
EndSplineSet
EndChar

StartChar: racute
Encoding: 341 341 303
Width: 390
VWidth: 0
Flags: HM
LayerCount: 2
Fore
SplineSet
192 460 m 1
 192 0 l 1
 64 0 l 1
 64 460 l 1
 192 460 l 1
327 324 m 1
 309 340 293 350 267 350 c 0
 218 350 192 309 192 243 c 1
 156 280 l 1
 156 389 228 470 302 470 c 0
 335 470 368 458 386 434 c 1
 327 324 l 1
376 680 m 1
 196 530 l 1
 124 570 l 1
 274 730 l 1
 376 680 l 1
EndSplineSet
EndChar

StartChar: rcaron
Encoding: 345 345 304
Width: 390
VWidth: 0
Flags: HM
LayerCount: 2
Fore
SplineSet
192 460 m 1
 192 0 l 1
 64 0 l 1
 64 460 l 1
 192 460 l 1
327 324 m 1
 309 340 293 350 267 350 c 0
 218 350 192 309 192 243 c 1
 156 280 l 1
 156 389 228 470 302 470 c 0
 335 470 368 458 386 434 c 1
 327 324 l 1
225 644 m 1
 322 732 l 1
 411 670 l 1
 225 530 l 1
 39 670 l 1
 128 732 l 1
 225 644 l 1
EndSplineSet
EndChar

StartChar: Rcaron
Encoding: 344 344 305
Width: 621
VWidth: 0
Flags: HMW
LayerCount: 2
Fore
SplineSet
235 326 m 1
 388 326 l 1
 616 0 l 1
 445 0 l 1
 235 326 l 1
76 700 m 1
 220 700 l 1
 220 0 l 1
 76 0 l 1
 76 700 l 1
164 577 m 1
 164 700 l 1
 312 700 l 2
 477 700 574 610 574 476 c 0
 574 342 477 254 312 254 c 2
 164 254 l 1
 164 368 l 1
 303 368 l 2
 377 368 425 406 425 472 c 0
 425 538 377 577 303 577 c 2
 164 577 l 1
296 888 m 1
 392 976 l 1
 482 914 l 1
 296 774 l 1
 110 914 l 1
 199 976 l 1
 296 888 l 1
EndSplineSet
EndChar

StartChar: uni0213
Encoding: 531 531 306
Width: 390
VWidth: 0
Flags: HM
LayerCount: 2
Fore
SplineSet
192 460 m 1
 192 0 l 1
 64 0 l 1
 64 460 l 1
 192 460 l 1
327 324 m 1
 309 340 293 350 267 350 c 0
 218 350 192 309 192 243 c 1
 156 280 l 1
 156 389 228 470 302 470 c 0
 335 470 368 458 386 434 c 1
 327 324 l 1
63 530 m 1
 154 530 l 1
 154 563 178 594 226 594 c 0
 274 594 297 563 297 530 c 1
 388 530 l 1
 388 608 331 676 226 676 c 0
 121 676 63 608 63 530 c 1
EndSplineSet
EndChar

StartChar: uni0212
Encoding: 530 530 307
Width: 621
VWidth: 0
Flags: HMW
LayerCount: 2
Fore
SplineSet
235 326 m 1
 388 326 l 1
 616 0 l 1
 445 0 l 1
 235 326 l 1
76 700 m 1
 220 700 l 1
 220 0 l 1
 76 0 l 1
 76 700 l 1
164 577 m 1
 164 700 l 1
 312 700 l 2
 477 700 574 610 574 476 c 0
 574 342 477 254 312 254 c 2
 164 254 l 1
 164 368 l 1
 303 368 l 2
 377 368 425 406 425 472 c 0
 425 538 377 577 303 577 c 2
 164 577 l 1
148 774 m 1
 240 774 l 1
 240 807 264 838 312 838 c 0
 360 838 383 807 383 774 c 1
 474 774 l 1
 474 852 417 918 312 918 c 0
 207 918 148 852 148 774 c 1
EndSplineSet
EndChar

StartChar: OE
Encoding: 338 338 308
Width: 985
VWidth: 0
Flags: HMW
LayerCount: 2
Fore
SplineSet
562 312 m 1
 562 431 l 1
 920 431 l 1
 920 312 l 1
 562 312 l 1
493 670 m 1
 633 670 l 1
 633 30 l 1
 493 30 l 1
 493 670 l 1
940 122 m 1
 940 0 l 1
 390 0 l 2
 187 0 36 141 36 350 c 0
 36 559 186 700 390 700 c 2
 940 700 l 1
 940 578 l 1
 568 578 l 1
 551 572 l 1
 412 572 l 2
 268 572 184 491 184 350 c 0
 184 209 268 128 412 128 c 2
 548 128 l 1
 572 122 l 1
 940 122 l 1
EndSplineSet
EndChar

StartChar: oe
Encoding: 339 339 309
Width: 900
VWidth: 0
Flags: HMW
LayerCount: 2
Fore
SplineSet
728 250 m 2
 728 328 694 378 626 378 c 0
 564 378 512 338 512 260 c 1
 510 230 l 1
 510 138 556 87 628 87 c 0
 686 87 722 114 750 156 c 1
 864 120 l 1
 822 46 743 -10 644 -10 c 0
 519 -10 430 91 430 230 c 0
 430 247 431 263 434 279 c 0
 453 392 539 470 658 470 c 0
 768 470 865 379 865 234 c 0
 865 226 865 210 864 202 c 1
 728 230 l 1
 728 250 l 2
481 202 m 1
 481 280 l 1
 844 280 l 1
 864 202 l 1
 481 202 l 1
35 230 m 0
 35 379 138 470 263 470 c 0
 388 470 466 379 466 230 c 0
 466 81 388 -10 263 -10 c 0
 138 -10 35 81 35 230 c 0
164 230 m 0
 164 146 218 100 286 100 c 0
 348 100 396 146 396 230 c 0
 396 314 348 360 286 360 c 0
 218 360 164 314 164 230 c 0
EndSplineSet
EndChar

StartChar: a.alt
Encoding: 65536 -1 310
Width: 602
VWidth: 0
Flags: HMW
LayerCount: 2
Fore
SplineSet
413 460 m 1
 542 460 l 1
 542 0 l 1
 413 0 l 1
 413 460 l 1
33 230 m 0
 33 384 138 470 254 470 c 0
 369 470 452 379 452 230 c 0
 452 81 369 -10 254 -10 c 0
 138 -10 33 76 33 230 c 0
168 230 m 0
 168 148 224 98 292 98 c 0
 348 98 412 146 412 230 c 0
 412 314 348 362 292 362 c 0
 224 362 168 312 168 230 c 0
EndSplineSet
EndChar

StartChar: Jcircumflex
Encoding: 308 308 312
Width: 303
VWidth: 0
Flags: HMW
LayerCount: 2
Fore
SplineSet
-70 -76 m 1
 -52 -96 -22 -109 10 -109 c 0
 40 -109 76 -88 76 -26 c 2
 76 700 l 1
 228 700 l 1
 228 -56 l 2
 228 -182 136 -234 20 -234 c 0
 -50 -234 -116 -202 -148 -178 c 1
 -70 -76 l 1
152 863 m 1
 55 774 l 1
 -34 836 l 1
 152 976 l 1
 338 836 l 1
 248 774 l 1
 152 863 l 1
EndSplineSet
EndChar

StartChar: jcircumflex
Encoding: 309 309 313
Width: 264
VWidth: 0
Flags: HMW
LayerCount: 2
Fore
SplineSet
-29 -88 m 1
 -15 -108 0 -114 18 -114 c 0
 48 -114 66 -91 66 -39 c 2
 66 460 l 1
 193 460 l 1
 193 -68 l 2
 193 -172 138 -234 32 -234 c 0
 -28 -234 -64 -206 -84 -186 c 1
 -29 -88 l 1
130 619 m 1
 32 530 l 1
 -57 592 l 1
 130 732 l 1
 316 592 l 1
 226 530 l 1
 130 619 l 1
EndSplineSet
EndChar

StartChar: Nacute
Encoding: 323 323 314
Width: 787
VWidth: 0
Flags: HMW
LayerCount: 2
Fore
SplineSet
80 548 m 1
 76 735 l 1
 708 152 l 1
 712 -35 l 1
 80 548 l 1
573 700 m 1
 712 700 l 1
 712 -35 l 1
 573 128 l 1
 573 700 l 1
76 735 m 1
 216 572 l 1
 216 0 l 1
 76 0 l 1
 76 735 l 1
534 915 m 1
 354 765 l 1
 280 804 l 1
 430 964 l 1
 534 915 l 1
EndSplineSet
EndChar

StartChar: nacute
Encoding: 324 324 315
Width: 560
VWidth: 0
Flags: HM
LayerCount: 2
Fore
SplineSet
195 460 m 1
 195 0 l 1
 64 0 l 1
 64 460 l 1
 195 460 l 1
362 280 m 2
 362 340 340 374 286 374 c 0
 232 374 195 338 195 280 c 1
 163 276 l 1
 163 385 226 470 334 470 c 0
 442 470 496 408 496 294 c 2
 496 0 l 1
 362 0 l 1
 362 280 l 2
431 680 m 1
 251 530 l 1
 178 569 l 1
 328 729 l 1
 431 680 l 1
EndSplineSet
EndChar

StartChar: uni0145
Encoding: 325 325 316
Width: 787
VWidth: 0
Flags: HMW
LayerCount: 2
Fore
SplineSet
80 548 m 1
 76 735 l 1
 708 152 l 1
 712 -35 l 1
 80 548 l 1
573 700 m 1
 712 700 l 1
 712 -35 l 1
 573 128 l 1
 573 700 l 1
76 735 m 1
 216 572 l 1
 216 0 l 1
 76 0 l 1
 76 735 l 1
374 -48 m 1
 504 -80 l 1
 384 -330 l 1
 286 -308 l 1
 374 -48 l 1
EndSplineSet
EndChar

StartChar: uni0146
Encoding: 326 326 317
Width: 560
VWidth: 0
Flags: HM
LayerCount: 2
Fore
SplineSet
195 460 m 1
 195 0 l 1
 64 0 l 1
 64 460 l 1
 195 460 l 1
362 280 m 2
 362 340 340 374 286 374 c 0
 232 374 195 338 195 280 c 1
 163 276 l 1
 163 385 226 470 334 470 c 0
 442 470 496 408 496 294 c 2
 496 0 l 1
 362 0 l 1
 362 280 l 2
259 -60 m 1
 388 -92 l 1
 268 -342 l 1
 171 -319 l 1
 259 -60 l 1
EndSplineSet
EndChar

StartChar: Ncaron
Encoding: 327 327 318
Width: 787
VWidth: 0
Flags: HMW
LayerCount: 2
Fore
SplineSet
80 548 m 1
 76 735 l 1
 708 152 l 1
 712 -35 l 1
 80 548 l 1
573 700 m 1
 712 700 l 1
 712 -35 l 1
 573 128 l 1
 573 700 l 1
76 735 m 1
 216 572 l 1
 216 0 l 1
 76 0 l 1
 76 735 l 1
382 896 m 1
 479 984 l 1
 568 922 l 1
 382 782 l 1
 196 922 l 1
 286 984 l 1
 382 896 l 1
EndSplineSet
EndChar

StartChar: ncaron
Encoding: 328 328 319
Width: 560
VWidth: 0
Flags: HM
LayerCount: 2
Fore
SplineSet
195 460 m 1
 195 0 l 1
 64 0 l 1
 64 460 l 1
 195 460 l 1
362 280 m 2
 362 340 340 374 286 374 c 0
 232 374 195 338 195 280 c 1
 163 276 l 1
 163 385 226 470 334 470 c 0
 442 470 496 408 496 294 c 2
 496 0 l 1
 362 0 l 1
 362 280 l 2
280 644 m 1
 376 732 l 1
 466 670 l 1
 280 530 l 1
 94 670 l 1
 183 732 l 1
 280 644 l 1
EndSplineSet
EndChar

StartChar: Omacron
Encoding: 332 332 320
Width: 811
VWidth: 0
Flags: HM
LayerCount: 2
Fore
SplineSet
188 350 m 0
 188 216 278 120 406 120 c 0
 534 120 624 216 624 350 c 0
 624 484 537 580 406 580 c 0
 278 580 188 484 188 350 c 0
36 350 m 0
 36 562 195 714 406 714 c 0
 618 714 776 562 776 350 c 0
 776 138 621 -18 406 -18 c 0
 191 -18 36 138 36 350 c 0
224 774 m 1
 224 889 l 1
 588 889 l 1
 588 774 l 1
 224 774 l 1
EndSplineSet
EndChar

StartChar: omacron
Encoding: 333 333 321
Width: 576
VWidth: 0
Flags: HM
LayerCount: 2
Fore
SplineSet
33 230 m 0
 33 374 142 470 288 470 c 0
 434 470 544 374 544 230 c 0
 544 86 434 -10 288 -10 c 0
 142 -10 33 86 33 230 c 0
166 230 m 0
 166 152 220 100 288 100 c 0
 356 100 410 152 410 230 c 0
 410 308 356 360 288 360 c 0
 220 360 166 308 166 230 c 0
106 530 m 1
 106 645 l 1
 470 645 l 1
 470 530 l 1
 106 530 l 1
EndSplineSet
EndChar

StartChar: Obreve
Encoding: 334 334 322
Width: 811
VWidth: 0
Flags: HM
LayerCount: 2
Fore
SplineSet
188 350 m 0
 188 216 278 120 406 120 c 0
 534 120 624 216 624 350 c 0
 624 484 537 580 406 580 c 0
 278 580 188 484 188 350 c 0
36 350 m 0
 36 562 195 714 406 714 c 0
 618 714 776 562 776 350 c 0
 776 138 621 -18 406 -18 c 0
 191 -18 36 138 36 350 c 0
244 918 m 1
 334 918 l 1
 334 885 358 854 406 854 c 0
 454 854 478 885 478 918 c 1
 568 918 l 1
 568 840 511 774 406 774 c 0
 301 774 244 840 244 918 c 1
EndSplineSet
EndChar

StartChar: obreve
Encoding: 335 335 323
Width: 576
VWidth: 0
Flags: HM
LayerCount: 2
Fore
SplineSet
33 230 m 0
 33 374 142 470 288 470 c 0
 434 470 544 374 544 230 c 0
 544 86 434 -10 288 -10 c 0
 142 -10 33 86 33 230 c 0
166 230 m 0
 166 152 220 100 288 100 c 0
 356 100 410 152 410 230 c 0
 410 308 356 360 288 360 c 0
 220 360 166 308 166 230 c 0
126 675 m 1
 217 675 l 1
 217 642 240 611 288 611 c 0
 336 611 360 642 360 675 c 1
 450 675 l 1
 450 597 393 530 288 530 c 0
 183 530 126 597 126 675 c 1
EndSplineSet
EndChar

StartChar: Racute
Encoding: 340 340 324
Width: 621
VWidth: 0
Flags: HMW
LayerCount: 2
Fore
SplineSet
235 326 m 1
 388 326 l 1
 616 0 l 1
 445 0 l 1
 235 326 l 1
76 700 m 1
 220 700 l 1
 220 0 l 1
 76 0 l 1
 76 700 l 1
164 577 m 1
 164 700 l 1
 312 700 l 2
 477 700 574 610 574 476 c 0
 574 342 477 254 312 254 c 2
 164 254 l 1
 164 368 l 1
 303 368 l 2
 377 368 425 406 425 472 c 0
 425 538 377 577 303 577 c 2
 164 577 l 1
450 924 m 1
 270 774 l 1
 197 814 l 1
 347 974 l 1
 450 924 l 1
EndSplineSet
EndChar

StartChar: uni0156
Encoding: 342 342 325
Width: 621
VWidth: 0
Flags: HMW
LayerCount: 2
Fore
SplineSet
235 326 m 1
 388 326 l 1
 616 0 l 1
 445 0 l 1
 235 326 l 1
76 700 m 1
 220 700 l 1
 220 0 l 1
 76 0 l 1
 76 700 l 1
164 577 m 1
 164 700 l 1
 312 700 l 2
 477 700 574 610 574 476 c 0
 574 342 477 254 312 254 c 2
 164 254 l 1
 164 368 l 1
 303 368 l 2
 377 368 425 406 425 472 c 0
 425 538 377 577 303 577 c 2
 164 577 l 1
324 -60 m 1
 454 -92 l 1
 334 -342 l 1
 236 -319 l 1
 324 -60 l 1
EndSplineSet
EndChar

StartChar: uni0157
Encoding: 343 343 326
Width: 390
VWidth: 0
Flags: HM
LayerCount: 2
Fore
SplineSet
192 460 m 1
 192 0 l 1
 64 0 l 1
 64 460 l 1
 192 460 l 1
327 324 m 1
 309 340 293 350 267 350 c 0
 218 350 192 309 192 243 c 1
 156 280 l 1
 156 389 228 470 302 470 c 0
 335 470 368 458 386 434 c 1
 327 324 l 1
107 -60 m 1
 238 -92 l 1
 116 -342 l 1
 19 -319 l 1
 107 -60 l 1
EndSplineSet
EndChar

StartChar: Scedilla
Encoding: 350 350 327
Width: 602
VWidth: 0
Flags: HMW
LayerCount: 2
Fore
SplineSet
140 244 m 1
 186 156 236 108 314 108 c 0
 376 108 410 138 410 190 c 0
 410 258 340 282 260 313 c 0
 190 339 74 393 74 524 c 0
 74 638 172 714 308 714 c 0
 447 714 524 633 552 562 c 1
 442 496 l 1
 412 550 375 589 314 589 c 0
 258 589 223 562 223 518 c 0
 223 464 300 438 384 408 c 0
 474 376 561 316 561 194 c 0
 561 59 466 -18 310 -18 c 0
 186 -18 80 57 36 172 c 1
 140 244 l 1
294 60 m 1
 388 58 l 1
 296 -80 l 1
 207 -126 l 1
 294 60 l 1
424 -150 m 1
 339 -143 l 1
 339 -117 314 -110 282 -110 c 0
 272 -110 239 -110 207 -126 c 1
 264 -84 l 1
 290 -62 312 -58 338 -58 c 0
 376 -58 424 -89 424 -150 c 1
424 -150 m 1
 424 -219 360 -254 300 -254 c 0
 250 -254 214 -244 172 -214 c 1
 214 -155 l 1
 238 -173 264 -180 286 -180 c 0
 320 -180 339 -167 339 -143 c 1
 424 -150 l 1
EndSplineSet
EndChar

StartChar: scedilla
Encoding: 351 351 328
Width: 440
VWidth: 0
Flags: HMW
LayerCount: 2
Fore
SplineSet
86 170 m 1
 137 111 188 88 228 88 c 0
 262 88 283 98 283 126 c 0
 283 165 220 179 166 202 c 0
 105 229 46 261 46 340 c 0
 46 424 126 470 218 470 c 0
 296 470 366 438 406 396 c 1
 349 314 l 1
 317 348 263 370 226 370 c 0
 192 370 171 361 171 336 c 0
 171 306 232 290 288 268 c 0
 353 242 414 206 414 130 c 0
 414 26 348 -17 240 -17 c 0
 146 -17 65 28 20 90 c 1
 86 170 l 1
214 67 m 1
 311 64 l 1
 217 -72 l 1
 128 -120 l 1
 214 67 l 1
345 -143 m 1
 260 -136 l 1
 260 -110 234 -103 202 -103 c 0
 192 -103 160 -104 128 -120 c 1
 186 -77 l 1
 212 -55 232 -52 258 -52 c 0
 296 -52 345 -82 345 -143 c 1
345 -143 m 1
 345 -212 281 -247 221 -247 c 0
 171 -247 136 -239 94 -209 c 1
 135 -148 l 1
 159 -166 185 -173 207 -173 c 0
 241 -173 260 -160 260 -136 c 1
 345 -143 l 1
EndSplineSet
EndChar

StartChar: Zcaron
Encoding: 381 381 329
Width: 597
VWidth: 0
Flags: HMW
LayerCount: 2
Fore
SplineSet
50 570 m 1
 50 700 l 1
 582 700 l 1
 240 126 l 1
 550 126 l 1
 550 0 l 1
 10 0 l 1
 350 570 l 1
 50 570 l 1
316 888 m 1
 412 976 l 1
 502 914 l 1
 316 774 l 1
 130 914 l 1
 219 976 l 1
 316 888 l 1
EndSplineSet
EndChar

StartChar: zcaron
Encoding: 382 382 330
Width: 499
VWidth: 0
Flags: HMW
LayerCount: 2
Fore
SplineSet
139 119 m 1
 460 119 l 1
 460 0 l 1
 15 0 l 1
 139 119 l 1
54 460 m 1
 489 460 l 1
 362 341 l 1
 54 341 l 1
 54 460 l 1
360 460 m 1
 489 460 l 1
 158 0 l 1
 15 0 l 1
 360 460 l 1
271 644 m 1
 368 732 l 1
 458 670 l 1
 271 530 l 1
 85 670 l 1
 175 732 l 1
 271 644 l 1
EndSplineSet
EndChar

StartChar: Ydieresis
Encoding: 376 376 331
Width: 630
VWidth: 0
Flags: HMW
LayerCount: 2
Fore
SplineSet
242 360 m 1
 388 360 l 1
 388 0 l 1
 242 0 l 1
 242 360 l 1
464 700 m 1
 630 700 l 1
 315 166 l 1
 0 700 l 1
 166 700 l 1
 315 418 l 1
 464 700 l 1
366 848 m 0
 366 890 400 922 444 922 c 0
 488 922 523 890 523 848 c 0
 523 806 488 774 444 774 c 0
 400 774 366 806 366 848 c 0
108 848 m 0
 108 890 142 922 186 922 c 0
 230 922 264 890 264 848 c 0
 264 806 230 774 186 774 c 0
 142 774 108 806 108 848 c 0
EndSplineSet
EndChar

StartChar: Scaron
Encoding: 352 352 332
Width: 602
VWidth: 0
Flags: HMW
LayerCount: 2
Fore
SplineSet
140 244 m 1
 186 156 236 108 314 108 c 0
 376 108 410 138 410 190 c 0
 410 258 340 282 260 313 c 0
 190 339 74 393 74 524 c 0
 74 638 172 714 308 714 c 0
 447 714 524 633 552 562 c 1
 442 496 l 1
 412 550 375 589 314 589 c 0
 258 589 223 562 223 518 c 0
 223 464 300 438 384 408 c 0
 474 376 561 316 561 194 c 0
 561 59 466 -18 310 -18 c 0
 186 -18 80 57 36 172 c 1
 140 244 l 1
308 888 m 1
 405 976 l 1
 494 914 l 1
 308 774 l 1
 122 914 l 1
 212 976 l 1
 308 888 l 1
EndSplineSet
EndChar

StartChar: scaron
Encoding: 353 353 333
Width: 440
VWidth: 0
Flags: HMW
LayerCount: 2
Fore
SplineSet
86 170 m 1
 137 111 188 88 228 88 c 0
 262 88 283 98 283 126 c 0
 283 165 220 179 166 202 c 0
 105 229 46 261 46 340 c 0
 46 424 126 470 218 470 c 0
 296 470 366 438 406 396 c 1
 349 314 l 1
 317 348 263 370 226 370 c 0
 192 370 171 361 171 336 c 0
 171 306 232 290 288 268 c 0
 353 242 414 206 414 130 c 0
 414 26 348 -17 240 -17 c 0
 146 -17 65 28 20 90 c 1
 86 170 l 1
218 635 m 1
 315 724 l 1
 404 662 l 1
 218 522 l 1
 32 662 l 1
 122 724 l 1
 218 635 l 1
EndSplineSet
EndChar

StartChar: Lslash
Encoding: 321 321 334
Width: 503
VWidth: 0
Flags: HMW
LayerCount: 2
Fore
SplineSet
5 320 m 1
 -27 388 l 1
 302 605 l 1
 334 538 l 1
 5 320 l 1
176 0 m 1
 176 122 l 1
 494 122 l 1
 494 0 l 1
 176 0 l 1
76 700 m 1
 214 700 l 1
 214 0 l 1
 76 0 l 1
 76 700 l 1
EndSplineSet
EndChar

StartChar: lslash
Encoding: 322 322 335
Width: 255
VWidth: 0
Flags: HMW
LayerCount: 2
Fore
SplineSet
-2 320 m 1
 -34 388 l 1
 266 580 l 1
 298 514 l 1
 -2 320 l 1
65 780 m 1
 190 780 l 1
 190 0 l 1
 65 0 l 1
 65 780 l 1
EndSplineSet
EndChar

StartChar: uni0218
Encoding: 536 536 336
Width: 602
VWidth: 0
Flags: HMW
LayerCount: 2
Fore
SplineSet
140 244 m 1
 186 156 236 108 314 108 c 0
 376 108 410 138 410 190 c 0
 410 258 340 282 260 313 c 0
 190 339 74 393 74 524 c 0
 74 638 172 714 308 714 c 0
 447 714 524 633 552 562 c 1
 442 496 l 1
 412 550 375 589 314 589 c 0
 258 589 223 562 223 518 c 0
 223 464 300 438 384 408 c 0
 474 376 561 316 561 194 c 0
 561 59 466 -18 310 -18 c 0
 186 -18 80 57 36 172 c 1
 140 244 l 1
272 -70 m 1
 402 -102 l 1
 281 -352 l 1
 184 -329 l 1
 272 -70 l 1
EndSplineSet
EndChar

StartChar: uni0219
Encoding: 537 537 337
Width: 440
VWidth: 0
Flags: HMW
LayerCount: 2
Fore
SplineSet
86 170 m 1
 137 111 188 88 228 88 c 0
 262 88 283 98 283 126 c 0
 283 165 220 179 166 202 c 0
 105 229 46 261 46 340 c 0
 46 424 126 470 218 470 c 0
 296 470 366 438 406 396 c 1
 349 314 l 1
 317 348 263 370 226 370 c 0
 192 370 171 361 171 336 c 0
 171 306 232 290 288 268 c 0
 353 242 414 206 414 130 c 0
 414 26 348 -17 240 -17 c 0
 146 -17 65 28 20 90 c 1
 86 170 l 1
202 -68 m 1
 332 -100 l 1
 210 -350 l 1
 114 -327 l 1
 202 -68 l 1
EndSplineSet
EndChar

StartChar: pi
Encoding: 960 960 338
Width: 583
VWidth: 0
Flags: HMW
LayerCount: 2
Fore
SplineSet
90 430 m 1
 214 430 l 1
 214 0 l 1
 90 0 l 1
 90 430 l 1
30 460 m 1
 544 460 l 1
 544 350 l 1
 30 350 l 1
 30 460 l 1
340 430 m 1
 464 430 l 1
 464 167 l 2
 464 101 487 97 517 97 c 1
 517 -9 l 1
 402 -9 340 3 340 121 c 2
 340 430 l 1
EndSplineSet
EndChar

StartChar: trademark
Encoding: 8482 8482 339
Width: 721
VWidth: 0
Flags: HMW
LayerCount: 2
Fore
SplineSet
30 635 m 1
 30 700 l 1
 292 700 l 1
 292 635 l 1
 196 635 l 1
 196 350 l 1
 125 350 l 1
 125 635 l 1
 30 635 l 1
590 596 m 1
 642 717 l 1
 694 350 l 1
 618 350 l 1
 590 596 l 1
348 717 m 1
 400 596 l 1
 372 350 l 1
 296 350 l 1
 348 717 l 1
642 717 m 1
 642 611 l 1
 495 382 l 1
 348 611 l 1
 348 717 l 1
 495 492 l 1
 642 717 l 1
EndSplineSet
EndChar

StartChar: uni2219
Encoding: 8729 8729 340
Width: 315
VWidth: 0
Flags: HMW
LayerCount: 2
Fore
SplineSet
76 434 m 0
 76 478 110 516 158 516 c 0
 206 516 240 478 240 434 c 0
 240 390 206 353 158 353 c 0
 110 353 76 390 76 434 c 0
EndSplineSet
EndChar

StartChar: agrave.alt
Encoding: 65537 -1 341
Width: 602
VWidth: 0
Flags: HMW
LayerCount: 2
Fore
SplineSet
413 460 m 1
 542 460 l 1
 542 0 l 1
 413 0 l 1
 413 460 l 1
33 230 m 0
 33 384 138 470 254 470 c 0
 369 470 452 379 452 230 c 0
 452 81 369 -10 254 -10 c 0
 138 -10 33 76 33 230 c 0
168 230 m 0
 168 148 224 98 292 98 c 0
 348 98 412 146 412 230 c 0
 412 314 348 362 292 362 c 0
 224 362 168 312 168 230 c 0
132 680 m 1
 236 728 l 1
 386 568 l 1
 312 530 l 1
 132 680 l 1
EndSplineSet
EndChar

StartChar: aacute.alt
Encoding: 65538 -1 342
Width: 602
VWidth: 0
Flags: HMW
LayerCount: 2
Fore
SplineSet
413 460 m 1
 542 460 l 1
 542 0 l 1
 413 0 l 1
 413 460 l 1
33 230 m 0
 33 384 138 470 254 470 c 0
 369 470 452 379 452 230 c 0
 452 81 369 -10 254 -10 c 0
 138 -10 33 76 33 230 c 0
168 230 m 0
 168 148 224 98 292 98 c 0
 348 98 412 146 412 230 c 0
 412 314 348 362 292 362 c 0
 224 362 168 312 168 230 c 0
454 680 m 1
 274 530 l 1
 200 568 l 1
 350 728 l 1
 454 680 l 1
EndSplineSet
EndChar

StartChar: acircumflex.alt
Encoding: 65539 -1 343
Width: 602
VWidth: 0
Flags: HMW
LayerCount: 2
Fore
SplineSet
413 460 m 1
 542 460 l 1
 542 0 l 1
 413 0 l 1
 413 460 l 1
33 230 m 0
 33 384 138 470 254 470 c 0
 369 470 452 379 452 230 c 0
 452 81 369 -10 254 -10 c 0
 138 -10 33 76 33 230 c 0
168 230 m 0
 168 148 224 98 292 98 c 0
 348 98 412 146 412 230 c 0
 412 314 348 362 292 362 c 0
 224 362 168 312 168 230 c 0
302 618 m 1
 205 530 l 1
 116 592 l 1
 302 732 l 1
 488 592 l 1
 398 530 l 1
 302 618 l 1
EndSplineSet
EndChar

StartChar: atilde.alt
Encoding: 65540 -1 344
Width: 602
VWidth: 0
Flags: HMW
LayerCount: 2
Fore
SplineSet
413 460 m 1
 542 460 l 1
 542 0 l 1
 413 0 l 1
 413 460 l 1
33 230 m 0
 33 384 138 470 254 470 c 0
 369 470 452 379 452 230 c 0
 452 81 369 -10 254 -10 c 0
 138 -10 33 76 33 230 c 0
168 230 m 0
 168 148 224 98 292 98 c 0
 348 98 412 146 412 230 c 0
 412 314 348 362 292 362 c 0
 224 362 168 312 168 230 c 0
122 586 m 1
 132 635 178 677 236 677 c 0
 302 677 313 626 369 626 c 0
 393 626 412 646 432 678 c 1
 496 612 l 1
 480 575 428 531 370 531 c 0
 315 531 284 582 236 582 c 0
 197 582 187 547 187 532 c 1
 122 586 l 1
EndSplineSet
EndChar

StartChar: adieresis.alt
Encoding: 65541 -1 345
Width: 602
VWidth: 0
Flags: HMW
LayerCount: 2
Fore
SplineSet
413 460 m 1
 542 460 l 1
 542 0 l 1
 413 0 l 1
 413 460 l 1
33 230 m 0
 33 384 138 470 254 470 c 0
 369 470 452 379 452 230 c 0
 452 81 369 -10 254 -10 c 0
 138 -10 33 76 33 230 c 0
168 230 m 0
 168 148 224 98 292 98 c 0
 348 98 412 146 412 230 c 0
 412 314 348 362 292 362 c 0
 224 362 168 312 168 230 c 0
339 604 m 0
 339 646 374 678 418 678 c 0
 462 678 496 646 496 604 c 0
 496 562 462 530 418 530 c 0
 374 530 339 562 339 604 c 0
108 604 m 0
 108 646 142 678 186 678 c 0
 230 678 264 646 264 604 c 0
 264 562 230 530 186 530 c 0
 142 530 108 562 108 604 c 0
EndSplineSet
EndChar

StartChar: aring.alt
Encoding: 65542 -1 346
Width: 602
VWidth: 0
Flags: HMW
LayerCount: 2
Fore
SplineSet
413 460 m 1
 542 460 l 1
 542 0 l 1
 413 0 l 1
 413 460 l 1
33 230 m 0
 33 384 138 470 254 470 c 0
 369 470 452 379 452 230 c 0
 452 81 369 -10 254 -10 c 0
 138 -10 33 76 33 230 c 0
168 230 m 0
 168 148 224 98 292 98 c 0
 348 98 412 146 412 230 c 0
 412 314 348 362 292 362 c 0
 224 362 168 312 168 230 c 0
191 641 m 0
 191 707 245 752 309 752 c 0
 373 752 427 707 427 641 c 0
 427 575 373 530 309 530 c 0
 245 530 191 575 191 641 c 0
262 641 m 0
 262 610 284 592 309 592 c 0
 334 592 356 610 356 641 c 0
 356 672 334 690 309 690 c 0
 284 690 262 672 262 641 c 0
EndSplineSet
EndChar

StartChar: amacron.alt
Encoding: 65543 -1 347
Width: 602
VWidth: 0
Flags: HMW
LayerCount: 2
Fore
SplineSet
413 460 m 1
 542 460 l 1
 542 0 l 1
 413 0 l 1
 413 460 l 1
33 230 m 0
 33 384 138 470 254 470 c 0
 369 470 452 379 452 230 c 0
 452 81 369 -10 254 -10 c 0
 138 -10 33 76 33 230 c 0
168 230 m 0
 168 148 224 98 292 98 c 0
 348 98 412 146 412 230 c 0
 412 314 348 362 292 362 c 0
 224 362 168 312 168 230 c 0
116 530 m 1
 116 644 l 1
 482 644 l 1
 482 530 l 1
 116 530 l 1
EndSplineSet
EndChar

StartChar: abreve.alt
Encoding: 65544 -1 348
Width: 602
VWidth: 0
Flags: HMW
LayerCount: 2
Fore
SplineSet
413 460 m 1
 542 460 l 1
 542 0 l 1
 413 0 l 1
 413 460 l 1
33 230 m 0
 33 384 138 470 254 470 c 0
 369 470 452 379 452 230 c 0
 452 81 369 -10 254 -10 c 0
 138 -10 33 76 33 230 c 0
168 230 m 0
 168 148 224 98 292 98 c 0
 348 98 412 146 412 230 c 0
 412 314 348 362 292 362 c 0
 224 362 168 312 168 230 c 0
133 674 m 1
 224 674 l 1
 224 641 248 610 296 610 c 0
 344 610 368 641 368 674 c 1
 459 674 l 1
 459 596 401 530 296 530 c 0
 191 530 133 596 133 674 c 1
EndSplineSet
EndChar

StartChar: aogonek.alt
Encoding: 65545 -1 349
Width: 601
VWidth: 0
Flags: HMW
LayerCount: 2
Fore
SplineSet
413 460 m 1
 542 460 l 1
 542 0 l 1
 413 0 l 1
 413 460 l 1
33 230 m 0
 33 384 138 470 254 470 c 0
 369 470 452 379 452 230 c 0
 452 81 369 -10 254 -10 c 0
 138 -10 33 76 33 230 c 0
168 230 m 0
 168 148 224 98 292 98 c 0
 348 98 412 146 412 230 c 0
 412 314 348 362 292 362 c 0
 224 362 168 312 168 230 c 0
526 -116 m 1
 559 -180 l 1
 544 -200 514 -220 462 -220 c 0
 392 -220 344 -184 344 -120 c 1
 436 -96 l 1
 436 -124 450 -136 476 -136 c 0
 498 -136 512 -129 526 -116 c 1
436 -96 m 1
 344 -120 l 1
 344 -56 410 -11 480 25 c 1
 521 0 l 1
 469 -26 436 -64 436 -96 c 1
EndSplineSet
EndChar

StartChar: dagger
Encoding: 8224 8224 350
Width: 613
VWidth: 0
Flags: HMW
LayerCount: 2
Fore
SplineSet
90 540 m 1
 524 540 l 1
 524 430 l 1
 90 430 l 1
 90 540 l 1
245 700 m 1
 369 700 l 1
 369 -150 l 1
 245 -150 l 1
 245 700 l 1
EndSplineSet
EndChar

StartChar: daggerdbl
Encoding: 8225 8225 351
Width: 613
VWidth: 0
Flags: HMW
LayerCount: 2
Fore
SplineSet
90 146 m 1
 524 146 l 1
 524 36 l 1
 90 36 l 1
 90 146 l 1
90 540 m 1
 524 540 l 1
 524 430 l 1
 90 430 l 1
 90 540 l 1
245 700 m 1
 369 700 l 1
 369 -150 l 1
 245 -150 l 1
 245 700 l 1
EndSplineSet
EndChar

StartChar: ellipsis
Encoding: 8230 8230 352
Width: 917
VWidth: 0
Flags: HMW
LayerCount: 2
Fore
SplineSet
76 60 m 0
 76 104 110 140 158 140 c 0
 206 140 240 104 240 60 c 0
 240 16 206 -22 158 -22 c 0
 110 -22 76 16 76 60 c 0
376 60 m 0
 376 104 410 140 458 140 c 0
 506 140 540 104 540 60 c 0
 540 16 506 -22 458 -22 c 0
 410 -22 376 16 376 60 c 0
676 60 m 0
 676 104 710 140 758 140 c 0
 806 140 840 104 840 60 c 0
 840 16 806 -22 758 -22 c 0
 710 -22 676 16 676 60 c 0
EndSplineSet
EndChar

StartChar: uniFF10
Encoding: 65296 65296 353
Width: 615
VWidth: 0
Flags: HMW
LayerCount: 2
Fore
SplineSet
165 350 m 0
 165 209 221 114 307 114 c 0
 393 114 449 209 449 350 c 0
 449 491 393 586 307 586 c 0
 221 586 165 491 165 350 c 0
25 350 m 0
 25 572 139 712 307 712 c 0
 479 712 589 572 589 350 c 0
 589 128 479 -12 307 -12 c 0
 139 -12 25 128 25 350 c 0
EndSplineSet
EndChar

StartChar: uniFF11
Encoding: 65297 65297 354
Width: 615
VWidth: 0
Flags: HMW
LayerCount: 2
Fore
SplineSet
110 517 m 1
 110 646 l 1
 418 712 l 1
 418 0 l 1
 278 0 l 1
 278 560 l 1
 110 517 l 1
EndSplineSet
EndChar

StartChar: uniFF12
Encoding: 65298 65298 355
Width: 615
VWidth: 0
Flags: HMW
LayerCount: 2
Fore
SplineSet
17 0 m 1
 334 332 l 2
 387 389 420 432 420 488 c 0
 420 537 386 587 316 587 c 0
 244 587 194 530 194 446 c 1
 52 446 l 1
 52 595 149 713 320 713 c 0
 488 713 568 596 568 491 c 0
 568 417 528 355 470 302 c 2
 288 132 l 1
 581 132 l 1
 581 0 l 1
 17 0 l 1
EndSplineSet
EndChar

StartChar: uniFF13
Encoding: 65299 65299 356
Width: 615
VWidth: 0
Flags: HMW
LayerCount: 2
Fore
SplineSet
272 340 m 1
 272 410 l 1
 354 410 405 457 405 512 c 0
 405 560 376 594 318 594 c 0
 262 594 219 556 219 504 c 1
 85 504 l 1
 85 624 178 712 318 712 c 0
 464 712 548 626 548 520 c 0
 548 406 429 340 272 340 c 1
311 -14 m 0
 151 -14 55 91 55 211 c 1
 198 211 l 1
 198 143 252 105 316 105 c 0
 380 105 425 139 425 204 c 0
 425 270 370 312 272 312 c 1
 272 388 l 1
 442 388 568 331 568 190 c 0
 568 69 469 -14 311 -14 c 0
EndSplineSet
EndChar

StartChar: uniFF14
Encoding: 65300 65300 357
Width: 615
VWidth: 0
Flags: HMW
LayerCount: 2
Fore
SplineSet
14 129 m 1
 132 237 l 1
 417 237 l 0
 434 252 l 0
 592 252 l 1
 592 129 l 1
 14 129 l 1
152 164 m 1
 14 129 l 1
 392 700 l 25
 492 700 l 1
 492 0 l 1
 342 0 l 1
 342 165 l 0
 356 176 l 0
 356 471 l 1
 152 164 l 1
EndSplineSet
EndChar

StartChar: uniFF15
Encoding: 65301 65301 358
Width: 615
VWidth: 0
Flags: HMW
LayerCount: 2
Fore
SplineSet
574 226 m 0
 574 62 437 -12 302 -12 c 0
 173 -12 91 38 31 96 c 1
 99 208 l 1
 147 156 215 120 275 120 c 0
 364 120 418 162 418 238 c 0
 418 314 349 355 275 355 c 0
 217 355 155 345 84 305 c 1
 182 384 l 1
 232 438 294 457 362 457 c 0
 475 457 574 370 574 226 c 0
287 574 m 1
 230 391 l 1
 84 305 l 1
 180 700 l 1
 562 700 l 1
 562 574 l 1
 287 574 l 1
EndSplineSet
EndChar

StartChar: uniFF16
Encoding: 65302 65302 359
Width: 615
VWidth: 0
Flags: HMW
LayerCount: 2
Fore
SplineSet
177 241 m 0
 177 163 233 110 307 110 c 0
 381 110 436 163 436 241 c 0
 436 319 381 374 307 374 c 0
 233 374 177 319 177 241 c 0
318 698 m 1
 500 698 l 1
 276 434 l 1
 250 425 l 1
 284 460 316 469 364 469 c 0
 471 469 578 379 578 241 c 0
 578 77 457 -14 307 -14 c 0
 157 -14 36 77 36 241 c 0
 36 311 66 370 106 420 c 2
 318 698 l 1
EndSplineSet
EndChar

StartChar: uniFF17
Encoding: 65303 65303 360
Width: 615
VWidth: 0
Flags: HMW
LayerCount: 2
Fore
SplineSet
44 566 m 1
 44 700 l 1
 592 700 l 1
 254 0 l 1
 100 0 l 1
 378 566 l 1
 44 566 l 1
EndSplineSet
EndChar

StartChar: uniFF18
Encoding: 65304 65304 361
Width: 615
VWidth: 0
Flags: HMW
LayerCount: 2
Fore
SplineSet
92 531 m 0
 92 643 192 714 316 714 c 0
 440 714 540 643 540 531 c 0
 540 409 431 346 316 346 c 0
 201 346 92 409 92 531 c 0
228 516 m 0
 228 464 267 428 316 428 c 0
 365 428 404 464 404 516 c 0
 404 568 368 606 316 606 c 0
 264 606 228 568 228 516 c 0
68 190 m 0
 68 332 201 394 316 394 c 0
 431 394 564 332 564 190 c 0
 564 68 450 -14 316 -14 c 0
 182 -14 68 68 68 190 c 0
210 211 m 0
 210 143 260 105 316 105 c 0
 372 105 422 143 422 211 c 0
 422 269 372 316 316 316 c 0
 260 316 210 269 210 211 c 0
EndSplineSet
EndChar

StartChar: uniFF19
Encoding: 65305 65305 362
Width: 615
VWidth: 0
Flags: HMW
LayerCount: 2
Fore
SplineSet
436 459 m 0
 436 537 381 590 307 590 c 0
 233 590 177 537 177 459 c 0
 177 381 233 326 307 326 c 0
 381 326 436 381 436 459 c 0
296 2 m 1
 114 2 l 1
 338 266 l 1
 364 275 l 1
 330 240 298 231 250 231 c 0
 143 231 36 321 36 459 c 0
 36 623 157 714 307 714 c 0
 457 714 578 623 578 459 c 0
 578 389 548 330 508 280 c 2
 296 2 l 1
EndSplineSet
EndChar

StartChar: caron
Encoding: 711 711 363
Width: 480
VWidth: 0
Flags: HMW
LayerCount: 2
Fore
SplineSet
240 670 m 1
 336 758 l 1
 426 696 l 1
 240 556 l 1
 54 696 l 1
 144 758 l 1
 240 670 l 1
EndSplineSet
EndChar

StartChar: napostrophe
Encoding: 329 329 364
Width: 713
VWidth: 0
Flags: HMW
LayerCount: 2
Fore
SplineSet
348 460 m 1
 348 0 l 1
 218 0 l 1
 218 460 l 1
 348 460 l 1
515 280 m 2
 515 340 492 374 438 374 c 0
 384 374 348 338 348 280 c 1
 316 276 l 1
 316 385 380 470 488 470 c 0
 596 470 650 408 650 294 c 2
 650 0 l 1
 515 0 l 1
 515 280 l 2
116 700 m 1
 255 700 l 1
 154 452 l 1
 62 452 l 1
 116 700 l 1
EndSplineSet
EndChar

StartChar: IJ
Encoding: 306 306 365
Width: 583
VWidth: 0
Flags: HMW
LayerCount: 2
Fore
SplineSet
210 -76 m 1
 228 -96 258 -109 290 -109 c 0
 320 -109 356 -88 356 -26 c 2
 356 700 l 1
 508 700 l 1
 508 -56 l 2
 508 -182 417 -234 301 -234 c 0
 231 -234 164 -202 132 -178 c 1
 210 -76 l 1
76 700 m 1
 222 700 l 1
 222 0 l 1
 76 0 l 1
 76 700 l 1
EndSplineSet
EndChar

StartChar: ij
Encoding: 307 307 366
Width: 534
VWidth: 0
Flags: HMW
LayerCount: 2
Fore
SplineSet
320 638 m 0
 320 680 355 712 399 712 c 0
 443 712 477 680 477 638 c 0
 477 596 443 564 399 564 c 0
 355 564 320 596 320 638 c 0
241 -88 m 1
 255 -108 270 -114 288 -114 c 0
 318 -114 336 -91 336 -39 c 2
 336 460 l 1
 462 460 l 1
 462 -68 l 2
 462 -172 406 -234 300 -234 c 0
 240 -234 204 -206 184 -186 c 1
 241 -88 l 1
58 638 m 0
 58 680 92 712 136 712 c 0
 180 712 214 680 214 638 c 0
 214 596 180 564 136 564 c 0
 92 564 58 596 58 638 c 0
72 460 m 1
 198 460 l 1
 198 0 l 1
 72 0 l 1
 72 460 l 1
EndSplineSet
EndChar

StartChar: uni0237
Encoding: 567 567 367
Width: 264
VWidth: 0
Flags: HMW
LayerCount: 2
Fore
SplineSet
-29 -88 m 1
 -15 -108 0 -114 18 -114 c 0
 48 -114 66 -91 66 -39 c 2
 66 460 l 1
 193 460 l 1
 193 -68 l 2
 193 -172 138 -234 32 -234 c 0
 -28 -234 -64 -206 -84 -186 c 1
 -29 -88 l 1
EndSplineSet
EndChar

StartChar: Sacute
Encoding: 346 346 368
Width: 602
VWidth: 0
Flags: HM
LayerCount: 2
Fore
SplineSet
140 244 m 1
 186 156 236 108 314 108 c 0
 376 108 410 138 410 190 c 0
 410 258 340 282 260 313 c 0
 190 339 74 393 74 524 c 0
 74 638 172 714 308 714 c 0
 447 714 524 633 552 562 c 1
 442 496 l 1
 412 550 375 589 314 589 c 0
 258 589 223 562 223 518 c 0
 223 464 300 438 384 408 c 0
 474 376 561 316 561 194 c 0
 561 59 466 -18 310 -18 c 0
 186 -18 80 57 36 172 c 1
 140 244 l 1
488 924 m 1
 308 774 l 1
 235 814 l 1
 385 974 l 1
 488 924 l 1
EndSplineSet
EndChar

StartChar: sacute
Encoding: 347 347 369
Width: 440
VWidth: 0
Flags: HM
LayerCount: 2
Fore
SplineSet
86 170 m 1
 137 111 188 88 228 88 c 0
 262 88 283 98 283 126 c 0
 283 165 220 179 166 202 c 0
 105 229 46 261 46 340 c 0
 46 424 126 470 218 470 c 0
 296 470 366 438 406 396 c 1
 349 314 l 1
 317 348 263 370 226 370 c 0
 192 370 171 361 171 336 c 0
 171 306 232 290 288 268 c 0
 353 242 414 206 414 130 c 0
 414 26 348 -17 240 -17 c 0
 146 -17 65 28 20 90 c 1
 86 170 l 1
398 680 m 1
 218 530 l 1
 144 569 l 1
 294 729 l 1
 398 680 l 1
EndSplineSet
EndChar

StartChar: Scircumflex
Encoding: 348 348 370
Width: 602
VWidth: 0
Flags: HM
LayerCount: 2
Fore
SplineSet
140 244 m 1
 186 156 236 108 314 108 c 0
 376 108 410 138 410 190 c 0
 410 258 340 282 260 313 c 0
 190 339 74 393 74 524 c 0
 74 638 172 714 308 714 c 0
 447 714 524 633 552 562 c 1
 442 496 l 1
 412 550 375 589 314 589 c 0
 258 589 223 562 223 518 c 0
 223 464 300 438 384 408 c 0
 474 376 561 316 561 194 c 0
 561 59 466 -18 310 -18 c 0
 186 -18 80 57 36 172 c 1
 140 244 l 1
308 863 m 1
 212 774 l 1
 122 836 l 1
 308 976 l 1
 494 836 l 1
 405 774 l 1
 308 863 l 1
EndSplineSet
EndChar

StartChar: scircumflex
Encoding: 349 349 371
Width: 440
VWidth: 0
Flags: HM
LayerCount: 2
Fore
SplineSet
86 170 m 1
 137 111 188 88 228 88 c 0
 262 88 283 98 283 126 c 0
 283 165 220 179 166 202 c 0
 105 229 46 261 46 340 c 0
 46 424 126 470 218 470 c 0
 296 470 366 438 406 396 c 1
 349 314 l 1
 317 348 263 370 226 370 c 0
 192 370 171 361 171 336 c 0
 171 306 232 290 288 268 c 0
 353 242 414 206 414 130 c 0
 414 26 348 -17 240 -17 c 0
 146 -17 65 28 20 90 c 1
 86 170 l 1
228 619 m 1
 130 530 l 1
 41 592 l 1
 228 732 l 1
 414 592 l 1
 324 530 l 1
 228 619 l 1
EndSplineSet
EndChar

StartChar: uni1E9E
Encoding: 7838 7838 372
Width: 826
VWidth: 0
Flags: HMW
LayerCount: 2
Fore
SplineSet
80 370 m 1
 219 354 l 1
 219 0 l 1
 80 0 l 1
 80 370 l 1
478 345 m 1
 478 410 l 1
 560 410 608 451 608 509 c 0
 608 563 554 600 454 600 c 0
 329 600 219 531 219 354 c 1
 80 370 l 1
 80 592 234 710 449 710 c 0
 633 710 750 640 750 526 c 0
 750 417 641 345 478 345 c 1
520 -14 m 0
 354 -14 276 100 276 209 c 1
 402 209 l 1
 402 147 449 102 520 102 c 0
 592 102 632 138 632 202 c 0
 632 276 568 313 478 313 c 1
 478 380 l 1
 641 380 770 324 770 185 c 0
 770 66 664 -14 520 -14 c 0
EndSplineSet
EndChar

StartChar: Zacute
Encoding: 377 377 373
Width: 597
VWidth: 0
Flags: H
LayerCount: 2
Fore
SplineSet
50 570 m 1
 50 700 l 1
 582 700 l 1
 238 126 l 1
 550 126 l 1
 550 0 l 1
 10 0 l 1
 352 570 l 1
 50 570 l 1
476 924 m 5
 296 774 l 5
 222 812 l 5
 372 972 l 5
 476 924 l 5
EndSplineSet
EndChar

StartChar: zacute
Encoding: 378 378 374
Width: 503
VWidth: 0
Flags: H
LayerCount: 2
Fore
SplineSet
269 341 m 1
 54 341 l 1
 54 460 l 1
 489 460 l 1
 242 119 l 1
 460 119 l 1
 460 0 l 1
 15 0 l 1
 269 341 l 1
441.5 680 m 5
 261.5 530 l 5
 187.5 568 l 5
 337.5 728 l 5
 441.5 680 l 5
EndSplineSet
EndChar

StartChar: Zdotaccent
Encoding: 379 379 375
Width: 597
VWidth: 0
Flags: H
LayerCount: 2
Fore
SplineSet
50 570 m 1
 50 700 l 1
 582 700 l 1
 238 126 l 1
 550 126 l 1
 550 0 l 1
 10 0 l 1
 352 570 l 1
 50 570 l 1
238 848 m 0
 238 890 272 922 316 922 c 0
 360 922 394 890 394 848 c 0
 394 806 360 774 316 774 c 0
 272 774 238 806 238 848 c 0
EndSplineSet
EndChar

StartChar: zdotaccent
Encoding: 380 380 376
Width: 503
VWidth: 0
Flags: H
LayerCount: 2
Fore
SplineSet
269 341 m 1
 54 341 l 1
 54 460 l 1
 489 460 l 1
 242 119 l 1
 460 119 l 1
 460 0 l 1
 15 0 l 1
 269 341 l 1
193.5 624 m 4
 193.5 666 227.5 698 271.5 698 c 4
 315.5 698 349.5 666 349.5 624 c 4
 349.5 582 315.5 550 271.5 550 c 4
 227.5 550 193.5 582 193.5 624 c 4
EndSplineSet
EndChar
